<?xml version="1.0" standalone="no"?>
<!DOCTYPE svg PUBLIC "-//W3C//DTD SVG 20010904//EN"
 "http://www.w3.org/TR/2001/REC-SVG-20010904/DTD/svg10.dtd">
<svg version="1.0" xmlns="http://www.w3.org/2000/svg"
 width="4343.000000pt" height="4343.000000pt" viewBox="0 0 4343.000000 4343.000000"
 preserveAspectRatio="xMidYMid meet">
<metadata>
Created by potrace 1.11, written by Peter Selinger 2001-2013
</metadata>
<g transform="translate(0.000000,4343.000000) scale(0.100000,-0.100000)"
fill="#000000" stroke="none">
<path d="M23092 39322 c-15 -16 -52 -48 -82 -72 -30 -25 -113 -95 -185 -156
-242 -207 -856 -649 -1479 -1065 -654 -436 -815 -561 -1170 -909 -290 -285
-505 -527 -728 -822 -239 -317 -352 -518 -498 -883 -40 -99 -121 -290 -180
-425 -59 -135 -111 -261 -115 -280 -4 -19 -10 -41 -14 -48 -5 -9 -64 48 -179
172 -451 482 -981 926 -1432 1196 -178 107 -734 382 -885 437 -77 29 -259 97
-405 152 -146 55 -346 123 -445 151 -136 39 -218 70 -336 126 -86 41 -164 74
-173 74 -9 0 -21 11 -26 24 -10 28 -47 56 -72 56 -44 0 -70 -25 -110 -105 -57
-114 -114 -197 -269 -390 -247 -310 -254 -321 -762 -1185 -298 -505 -594
-1255 -712 -1803 -55 -258 -97 -567 -118 -886 l-12 -181 -55 46 c-194 161
-481 334 -819 493 -598 282 -1257 519 -1857 669 -237 60 -1380 291 -1614 326
-266 41 -464 56 -815 60 -181 3 -396 10 -476 16 -81 6 -277 15 -435 20 -268 9
-302 12 -474 45 -102 19 -239 45 -305 56 -66 12 -128 25 -137 30 -28 15 -64
10 -92 -12 l-26 -20 0 -219 c0 -452 -38 -855 -144 -1535 -59 -376 -81 -734
-73 -1190 3 -181 11 -397 17 -480 39 -556 132 -1030 302 -1543 33 -101 59
-185 56 -187 -2 -2 -76 2 -163 10 -206 19 -316 19 -473 0 -70 -8 -241 -22
-380 -30 -261 -16 -361 -29 -522 -70 -52 -13 -183 -42 -290 -65 -422 -89 -701
-155 -1275 -304 -206 -53 -372 -84 -745 -138 -336 -48 -330 -45 -330 -145 0
-78 20 -214 65 -443 51 -263 64 -360 75 -582 15 -298 50 -520 161 -1013 124
-547 283 -1002 570 -1630 105 -230 384 -789 475 -951 326 -584 743 -1146 1267
-1706 437 -467 964 -866 1380 -1044 48 -20 87 -40 87 -43 0 -3 -80 -32 -177
-64 -514 -170 -1225 -485 -1534 -679 -421 -266 -1031 -788 -1545 -1324 -243
-253 -381 -404 -773 -844 -467 -523 -603 -672 -703 -763 -155 -142 -171 -201
-87 -321 23 -33 83 -119 132 -191 273 -395 544 -677 1012 -1050 1354 -1080
2715 -1735 3986 -1919 88 -13 162 -26 164 -28 3 -2 -22 -85 -55 -184 -135
-401 -310 -954 -310 -978 0 -32 41 -79 139 -158 226 -183 580 -359 1144 -570
454 -169 839 -278 1337 -378 780 -156 1386 -187 1980 -99 160 23 880 119 897
119 6 0 -27 -57 -74 -127 -137 -206 -220 -398 -317 -735 -106 -372 -174 -752
-213 -1201 -20 -236 -23 -877 -4 -1137 35 -510 62 -687 201 -1360 127 -609
145 -717 210 -1275 23 -192 50 -413 61 -490 13 -90 23 -247 30 -442 14 -436
24 -493 93 -501 16 -2 387 116 899 287 1291 429 1523 504 2072 675 1113 345
1459 479 2240 866 434 215 769 410 1053 613 396 283 774 654 1181 1162 217
270 276 361 366 570 27 61 76 166 110 235 34 69 66 136 71 149 10 23 12 22
100 -55 49 -44 205 -177 346 -297 283 -240 380 -326 704 -623 241 -222 340
-308 517 -451 64 -52 150 -131 190 -175 39 -44 128 -128 197 -187 69 -58 174
-155 233 -214 126 -125 149 -136 197 -89 17 17 30 41 30 55 0 41 60 116 169
211 58 50 137 120 176 155 38 35 148 127 244 204 96 77 278 230 406 341 127
111 301 260 386 332 200 171 398 375 529 544 110 143 382 426 399 415 6 -3 90
-99 188 -213 282 -329 438 -476 738 -694 553 -403 1057 -661 1750 -895 952
-322 1736 -433 3055 -433 239 0 532 5 651 10 119 6 378 15 575 20 243 7 414
17 529 30 223 27 493 36 610 21 50 -7 138 -28 196 -48 l107 -36 38 19 c63 31
66 58 16 156 -63 124 -75 195 -69 423 3 105 10 363 16 575 6 212 15 423 22
470 6 47 12 204 15 350 16 1150 16 1251 5 1415 -36 509 -145 1000 -365 1652
-79 232 -148 408 -259 659 -114 257 -126 278 -202 374 -76 95 -90 119 -78 129
4 4 85 24 178 45 343 75 780 198 1059 298 194 69 347 133 729 302 522 232 769
323 1111 410 234 60 286 90 286 166 0 25 -8 36 -47 63 -115 78 -219 199 -287
335 l-26 52 45 0 c231 0 914 122 1378 246 548 146 1322 450 1819 715 352 188
702 405 1113 692 143 100 343 237 445 304 102 66 244 164 315 216 145 106 164
116 267 153 116 42 178 92 178 143 0 42 -43 69 -221 140 -336 135 -636 282
-793 389 -112 76 -197 147 -364 303 -313 292 -375 347 -578 517 -382 320 -896
702 -1464 1088 -368 250 -776 473 -1183 647 l-127 54 82 42 c118 60 230 137
344 237 54 48 164 142 244 208 448 372 671 621 1057 1181 108 156 186 276 678
1040 706 1096 1217 1832 1501 2160 142 165 354 440 354 460 0 12 -9 34 -20 47
-18 23 -28 26 -132 32 -132 9 -241 26 -388 62 -117 29 -617 181 -925 281 -350
113 -724 198 -1145 258 -286 42 -688 46 -786 8 -8 -3 -14 0 -14 6 0 20 169
363 252 511 44 80 99 178 121 218 23 40 78 113 124 162 45 49 94 108 108 130
29 46 33 100 8 122 -10 9 -171 55 -357 103 -398 101 -716 192 -946 270 -480
163 -881 253 -1345 304 -305 34 -540 44 -959 39 -218 -2 -396 -2 -396 0 0 2
33 58 73 125 184 306 317 609 445 1009 22 70 65 189 96 266 73 183 99 278 142
502 19 102 61 304 94 450 126 567 161 811 235 1670 44 509 76 802 116 1070
118 797 157 1237 146 1658 -5 204 -6 215 -28 238 -30 32 -78 32 -109 -1 -59
-63 -243 -95 -745 -130 -425 -29 -841 -101 -1379 -236 -805 -204 -1497 -485
-2391 -973 -126 -70 -233 -126 -237 -126 -5 0 -8 3 -8 8 0 21 -65 572 -95 807
-43 340 -55 475 -55 645 0 163 -15 398 -40 655 -18 181 -19 201 -3 411 13 183
13 236 3 308 -15 106 -32 131 -87 129 -51 -1 -222 -58 -473 -155 -113 -44
-261 -98 -330 -120 -522 -164 -735 -248 -1615 -635 -465 -205 -948 -461 -1203
-639 -35 -24 -64 -44 -66 -44 -2 0 -9 37 -16 83 -27 185 -73 342 -225 769 -64
178 -132 366 -152 418 -150 397 -447 1005 -731 1500 -205 357 -503 819 -722
1120 -62 85 -140 198 -172 250 -33 52 -85 125 -115 163 -50 63 -56 67 -94 67
-31 0 -46 -6 -67 -28z m-2642 -14196 c0 -2 -7 -9 -15 -16 -13 -11 -14 -10 -9
4 5 14 24 23 24 12z"/>
</g>
</svg>
