<?xml version="1.0" encoding="utf-8"?>
<!-- Generator: Adobe Illustrator 21.0.2, SVG Export Plug-In . SVG Version: 6.00 Build 0)  -->
<svg version="1.1" id="Layer_1" xmlns="http://www.w3.org/2000/svg" xmlns:xlink="http://www.w3.org/1999/xlink" x="0px" y="0px"
	 viewBox="0 0 48 48" style="enable-background:new 0 0 48 48;" xml:space="preserve">
<style type="text/css">
	.st0{fill:none;stroke:#D81C3B;stroke-width:2;stroke-miterlimit:10;}
	.st1{fill:#D81C3B;}
	.st2{fill:#D81C3B;stroke:#D81C3B;stroke-width:2;stroke-linecap:round;stroke-linejoin:round;stroke-miterlimit:10;}
</style>
<rect class="st0" width="48" height="48"/>
<path class="st1" d="M37.7,21.3H24.3c-0.6,0-1-0.4-1-1V6.8c0-0.6,0.4-1,1-1h13.4c0.6,0,1,0.4,1,1v13.4
	C38.7,20.8,38.2,21.3,37.7,21.3z"/>
<g>
	<g>
		<path class="st2" d="M15.1,20.3c-3,0-5.4-1.4-5.6-4.4h4.4c0.1,1,0.6,1.1,1,1.1c0.4,0,0.8-0.2,0.8-0.7c0-1.8-6.3-1.1-6.2-5.7
			c0-2.7,2.2-4,5.1-4c3.2,0,5.3,1.5,5.4,4.3h-4.5c0-0.8-0.5-1-0.9-1c-0.3,0-0.6,0.2-0.6,0.7c0,1.7,6.2,1.4,6.2,5.5
			C20.1,18.5,18.3,20.3,15.1,20.3z"/>
	</g>
</g>
<path class="st1" d="M20.1,38h-9.2c-0.6,0-1-0.4-1-1V24c0-0.6,0.4-1,1-1h9.2c0.6,0,1,0.4,1,1v13C21.1,37.6,20.6,38,20.1,38z"/>
<path class="st1" d="M31.8,37.6l6.7-13.2c0.3-0.7-0.1-1.5-0.9-1.5H24.2c-0.7,0-1.2,0.8-0.9,1.5L30,37.6
	C30.4,38.3,31.4,38.3,31.8,37.6z"/>
<circle class="st1" cx="40.2" cy="36" r="2"/>
</svg>
