<?xml version="1.0" encoding="utf-8"?>
<!-- Generator: Adobe Illustrator 21.1.0, SVG Export Plug-In . SVG Version: 6.00 Build 0)  -->
<svg version="1.1" id="Layer_1" xmlns="http://www.w3.org/2000/svg" xmlns:xlink="http://www.w3.org/1999/xlink" x="0px" y="0px"
	 viewBox="0 0 151.6 140.7" style="enable-background:new 0 0 151.6 140.7;" xml:space="preserve">
<style type="text/css">
	.st0{fill:#4A34CE;}
	.st1{enable-background:new    ;}
	.st2{clip-path:url(#SVGID_2_);enable-background:new    ;}
	.st3{fill:#FE6C6C;}
	.st4{fill:#FE6D6D;}
	.st5{fill:#FE6E6E;}
	.st6{fill:#FE6F6F;}
	.st7{fill:#FE7070;}
	.st8{fill:#FE7171;}
	.st9{fill:#FE7272;}
	.st10{fill:#FE7373;}
	.st11{fill:#FE7474;}
	.st12{fill:#FE7575;}
	.st13{fill:#FE7676;}
	.st14{clip-path:url(#SVGID_4_);enable-background:new    ;}
	.st15{clip-path:url(#SVGID_6_);enable-background:new    ;}
	.st16{clip-path:url(#SVGID_8_);enable-background:new    ;}
	.st17{fill:#FE6B6B;}
	.st18{clip-path:url(#SVGID_10_);enable-background:new    ;}
	.st19{clip-path:url(#SVGID_12_);enable-background:new    ;}
	.st20{fill:#FCE9E9;}
	.st21{clip-path:url(#SVGID_14_);enable-background:new    ;}
	.st22{clip-path:url(#SVGID_16_);enable-background:new    ;}
	.st23{clip-path:url(#SVGID_18_);enable-background:new    ;}
	.st24{clip-path:url(#SVGID_20_);enable-background:new    ;}
	.st25{clip-path:url(#SVGID_22_);enable-background:new    ;}
	.st26{clip-path:url(#SVGID_24_);enable-background:new    ;}
	.st27{clip-path:url(#SVGID_26_);enable-background:new    ;}
	.st28{clip-path:url(#SVGID_28_);enable-background:new    ;}
	.st29{clip-path:url(#SVGID_30_);enable-background:new    ;}
	.st30{clip-path:url(#SVGID_32_);enable-background:new    ;}
	.st31{clip-path:url(#SVGID_34_);enable-background:new    ;}
	.st32{clip-path:url(#SVGID_36_);enable-background:new    ;}
	.st33{clip-path:url(#SVGID_38_);enable-background:new    ;}
	.st34{clip-path:url(#SVGID_40_);enable-background:new    ;}
	.st35{clip-path:url(#SVGID_42_);enable-background:new    ;}
	.st36{clip-path:url(#SVGID_44_);enable-background:new    ;}
	.st37{clip-path:url(#SVGID_46_);enable-background:new    ;}
	.st38{clip-path:url(#SVGID_48_);enable-background:new    ;}
	.st39{clip-path:url(#SVGID_50_);enable-background:new    ;}
	.st40{clip-path:url(#SVGID_52_);enable-background:new    ;}
	.st41{clip-path:url(#SVGID_54_);enable-background:new    ;}
	.st42{clip-path:url(#SVGID_56_);enable-background:new    ;}
	.st43{clip-path:url(#SVGID_58_);enable-background:new    ;}
	.st44{clip-path:url(#SVGID_60_);enable-background:new    ;}
	.st45{clip-path:url(#SVGID_62_);enable-background:new    ;}
	.st46{clip-path:url(#SVGID_64_);enable-background:new    ;}
	.st47{clip-path:url(#SVGID_66_);enable-background:new    ;}
	.st48{clip-path:url(#SVGID_68_);enable-background:new    ;}
	.st49{clip-path:url(#SVGID_70_);enable-background:new    ;}
	.st50{clip-path:url(#SVGID_72_);enable-background:new    ;}
	.st51{clip-path:url(#SVGID_74_);enable-background:new    ;}
	.st52{clip-path:url(#SVGID_76_);enable-background:new    ;}
	.st53{clip-path:url(#SVGID_78_);enable-background:new    ;}
	.st54{clip-path:url(#SVGID_80_);enable-background:new    ;}
	.st55{clip-path:url(#SVGID_82_);enable-background:new    ;}
	.st56{clip-path:url(#SVGID_84_);enable-background:new    ;}
	.st57{clip-path:url(#SVGID_86_);enable-background:new    ;}
	.st58{clip-path:url(#SVGID_88_);enable-background:new    ;}
	.st59{clip-path:url(#SVGID_90_);enable-background:new    ;}
	.st60{clip-path:url(#SVGID_92_);enable-background:new    ;}
	.st61{clip-path:url(#SVGID_94_);enable-background:new    ;}
	.st62{clip-path:url(#SVGID_96_);enable-background:new    ;}
	.st63{clip-path:url(#SVGID_98_);enable-background:new    ;}
	.st64{clip-path:url(#SVGID_100_);enable-background:new    ;}
	.st65{clip-path:url(#SVGID_102_);enable-background:new    ;}
	.st66{clip-path:url(#SVGID_104_);enable-background:new    ;}
	.st67{clip-path:url(#SVGID_106_);enable-background:new    ;}
	.st68{clip-path:url(#SVGID_108_);enable-background:new    ;}
	.st69{clip-path:url(#SVGID_110_);enable-background:new    ;}
	.st70{clip-path:url(#SVGID_112_);enable-background:new    ;}
	.st71{clip-path:url(#SVGID_114_);enable-background:new    ;}
</style>
<polygon class="st0" points="144.8,116.1 6.8,140.7 6.8,27.5 144.8,0 "/>
<g>
	<g>
		<g class="st1">
			<g class="st1">
				<defs>
					<path id="SVGID_1_" class="st1" d="M27.6,56.6l-2.3-1.2c0.3,0.2,0.7,0.3,1.2,0.2c0.8-0.1,1.7-0.6,1.7-1.4
						c0-0.3-0.2-0.6-0.5-0.7l2.3,1.2c0.3,0.2,0.5,0.4,0.5,0.7c0,0.8-0.9,1.3-1.7,1.4C28.3,56.9,27.9,56.8,27.6,56.6z"/>
				</defs>
				<clipPath id="SVGID_2_">
					<use xlink:href="#SVGID_1_"  style="overflow:visible;"/>
				</clipPath>
				<g class="st2">
					<path class="st3" d="M27.6,56.6l-2.3-1.2c0.3,0.2,0.7,0.3,1.2,0.2c0.7-0.1,1.6-0.6,1.7-1.3l2.3,1.2c-0.1,0.8-0.9,1.2-1.7,1.3
						C28.3,56.9,27.9,56.8,27.6,56.6"/>
					<path class="st4" d="M30.5,55.5l-2.3-1.2c0,0,0,0,0-0.1c0,0,0,0,0,0L30.5,55.5C30.5,55.4,30.5,55.4,30.5,55.5
						C30.5,55.5,30.5,55.5,30.5,55.5"/>
					<path class="st4" d="M30.5,55.4l-2.3-1.2c0,0,0,0,0,0L30.5,55.4C30.5,55.4,30.5,55.4,30.5,55.4"/>
					<path class="st5" d="M30.5,55.4l-2.3-1.2c0,0,0,0,0,0L30.5,55.4C30.5,55.3,30.5,55.3,30.5,55.4"/>
					<path class="st5" d="M30.5,55.3l-2.3-1.2c0,0,0,0,0,0L30.5,55.3C30.4,55.3,30.4,55.3,30.5,55.3"/>
					<path class="st6" d="M30.4,55.3L28.2,54c0,0,0,0,0,0L30.4,55.3C30.4,55.2,30.4,55.3,30.4,55.3"/>
					<path class="st6" d="M30.4,55.2L28.2,54c0,0,0,0,0,0L30.4,55.2C30.4,55.2,30.4,55.2,30.4,55.2"/>
					<path class="st7" d="M30.4,55.2l-2.3-1.2c0,0,0,0,0,0L30.4,55.2C30.4,55.2,30.4,55.2,30.4,55.2"/>
					<path class="st7" d="M30.4,55.1l-2.3-1.2c0,0,0,0,0,0L30.4,55.1C30.4,55.1,30.4,55.1,30.4,55.1"/>
					<path class="st8" d="M30.4,55.1l-2.3-1.2c0,0,0,0,0,0L30.4,55.1C30.4,55.1,30.4,55.1,30.4,55.1"/>
					<path class="st8" d="M30.4,55.1l-2.3-1.2c0,0,0,0,0,0L30.4,55.1C30.4,55,30.4,55.1,30.4,55.1"/>
					<path class="st9" d="M30.4,55l-2.3-1.2c0,0,0,0,0,0L30.4,55C30.3,55,30.3,55,30.4,55"/>
					<path class="st9" d="M30.3,55L28,53.8c0,0,0,0,0,0L30.3,55C30.3,55,30.3,55,30.3,55"/>
					<path class="st10" d="M30.3,55L28,53.7c0,0,0,0,0,0L30.3,55C30.3,54.9,30.3,55,30.3,55"/>
					<path class="st11" d="M30.3,54.9L28,53.7c0,0,0,0,0,0L30.3,54.9C30.2,54.9,30.3,54.9,30.3,54.9"/>
					<path class="st11" d="M30.2,54.9L28,53.6c0,0,0,0-0.1-0.1L30.2,54.9C30.2,54.8,30.2,54.9,30.2,54.9"/>
					<path class="st12" d="M30.2,54.8l-2.3-1.2c0,0,0,0-0.1-0.1L30.2,54.8C30.1,54.8,30.2,54.8,30.2,54.8"/>
					<path class="st12" d="M30.1,54.8l-2.3-1.2c0,0,0,0-0.1,0L30.1,54.8C30.1,54.7,30.1,54.8,30.1,54.8"/>
					<path class="st13" d="M30,54.7l-2.3-1.2c0,0-0.1,0-0.1,0L30,54.7C30,54.7,30,54.7,30,54.7"/>
				</g>
			</g>
			<g class="st1">
				<defs>
					<path id="SVGID_3_" class="st1" d="M27.9,46.3l2.3,1.2c0.6,0.3,0.8,0.8,0.8,0.9l-2.3-1.2C28.7,47.1,28.5,46.6,27.9,46.3z"/>
				</defs>
				<clipPath id="SVGID_4_">
					<use xlink:href="#SVGID_3_"  style="overflow:visible;"/>
				</clipPath>
				<g class="st14">
					<polyline class="st7" points="31,48.4 28.7,47.1 28.7,47.1 31,48.4 31,48.4 					"/>
					<path class="st8" d="M31,48.4l-2.3-1.2c0,0,0,0,0-0.1L31,48.4C31,48.3,31,48.3,31,48.4"/>
					<path class="st8" d="M30.9,48.3L28.7,47c0,0,0-0.1,0-0.1L30.9,48.3C30.9,48.2,30.9,48.3,30.9,48.3"/>
					<path class="st9" d="M30.9,48.2L28.6,47c0,0,0-0.1-0.1-0.1L30.9,48.2C30.9,48.1,30.9,48.2,30.9,48.2"/>
					<path class="st9" d="M30.8,48.1l-2.3-1.2c0,0,0-0.1-0.1-0.1L30.8,48.1C30.8,48,30.8,48.1,30.8,48.1"/>
					<path class="st10" d="M30.8,48l-2.3-1.2c0,0-0.1-0.1-0.1-0.1L30.8,48C30.7,47.9,30.7,48,30.8,48"/>
					<path class="st11" d="M30.7,47.9l-2.3-1.2c0,0-0.1-0.1-0.1-0.1L30.7,47.9C30.6,47.9,30.7,47.9,30.7,47.9"/>
					<path class="st11" d="M30.6,47.8l-2.3-1.2c0,0-0.1-0.1-0.1-0.1L30.6,47.8C30.5,47.8,30.6,47.8,30.6,47.8"/>
					<path class="st12" d="M30.5,47.7l-2.3-1.2c0,0-0.1-0.1-0.1-0.1l2.3,1.2C30.4,47.7,30.5,47.7,30.5,47.7"/>
					<path class="st12" d="M30.4,47.6l-2.3-1.2c0,0-0.1-0.1-0.1-0.1l2.3,1.2C30.3,47.6,30.4,47.6,30.4,47.6"/>
					<path class="st13" d="M30.3,47.5L28,46.3c0,0-0.1,0-0.1-0.1L30.3,47.5C30.2,47.5,30.2,47.5,30.3,47.5"/>
				</g>
			</g>
			<g class="st1">
				<defs>
					<path id="SVGID_5_" class="st1" d="M28.3,49.2L26,47.9c0.9,0.5,3,0.5,4.6,1.4l2.3,1.2C31.3,49.7,29.2,49.7,28.3,49.2z"/>
				</defs>
				<clipPath id="SVGID_6_">
					<use xlink:href="#SVGID_5_"  style="overflow:visible;"/>
				</clipPath>
				<g class="st15">
					<path class="st3" d="M28.3,49.2L26,47.9c0.9,0.5,3,0.5,4.6,1.4l2.3,1.2C31.3,49.7,29.2,49.7,28.3,49.2"/>
				</g>
			</g>
			<g class="st1">
				<defs>
					<path id="SVGID_7_" class="st1" d="M25,60.4l-2.3-1.2c-0.8-0.5-1.5-1.2-2.1-2.2l2.3,1.2C23.5,59.2,24.2,59.9,25,60.4z"/>
				</defs>
				<clipPath id="SVGID_8_">
					<use xlink:href="#SVGID_7_"  style="overflow:visible;"/>
				</clipPath>
				<g class="st16">
					<path class="st13" d="M25,60.4l-2.3-1.2c-0.1,0-0.2-0.1-0.2-0.1l2.3,1.2C24.9,60.3,24.9,60.3,25,60.4"/>
					<path class="st12" d="M24.8,60.2L22.5,59c-0.1-0.1-0.2-0.1-0.3-0.2l2.3,1.2C24.6,60.1,24.7,60.2,24.8,60.2"/>
					<path class="st12" d="M24.5,60l-2.3-1.2c-0.1-0.1-0.2-0.1-0.3-0.2l2.3,1.2C24.3,59.9,24.4,59.9,24.5,60"/>
					<path class="st11" d="M24.2,59.8l-2.3-1.2c-0.1-0.1-0.2-0.1-0.2-0.2l2.3,1.2C24,59.6,24.1,59.7,24.2,59.8"/>
					<path class="st11" d="M24,59.6l-2.3-1.2c-0.1-0.1-0.1-0.2-0.2-0.2l2.3,1.2C23.8,59.4,23.9,59.5,24,59.6"/>
					<path class="st10" d="M23.7,59.3l-2.3-1.2c-0.1-0.1-0.1-0.2-0.2-0.3l2.3,1.2C23.6,59.2,23.7,59.2,23.7,59.3"/>
					<path class="st9" d="M23.5,59.1l-2.3-1.2c-0.1-0.1-0.1-0.2-0.2-0.3l2.3,1.2C23.4,58.9,23.5,59,23.5,59.1"/>
					<path class="st9" d="M23.3,58.8l-2.3-1.2c-0.1-0.1-0.1-0.2-0.2-0.3l2.3,1.2C23.2,58.6,23.3,58.7,23.3,58.8"/>
					<path class="st8" d="M23.1,58.5l-2.3-1.2c-0.1-0.1-0.1-0.2-0.2-0.3l2.3,1.2C23,58.3,23.1,58.4,23.1,58.5"/>
				</g>
			</g>
			<g>
				<polygon class="st17" points="23,58.2 20.7,56.9 24.3,54.4 26.6,55.7 				"/>
			</g>
			<g class="st1">
				<defs>
					<path id="SVGID_9_" class="st1" d="M30.1,42.4l2.3,1.2c-0.9-0.5-1.9-0.6-2.9-0.5l-2.3-1.2C28.3,41.8,29.3,41.9,30.1,42.4z"/>
				</defs>
				<clipPath id="SVGID_10_">
					<use xlink:href="#SVGID_9_"  style="overflow:visible;"/>
				</clipPath>
				<g class="st18">
					<path class="st3" d="M29.5,43.2l-2.3-1.2c1.1-0.2,2.1,0,2.9,0.5l2.3,1.2C31.5,43.2,30.5,43,29.5,43.2"/>
				</g>
			</g>
			<g class="st1">
				<defs>
					<path id="SVGID_11_" class="st1" d="M25.5,53.3l-2.3-1.2c-1.2-0.6-2.1-1.7-2-3.9c0-3.3,2.5-5.8,6-6.3l2.3,1.2
						c-3.5,0.5-6,3.1-6,6.3C23.5,51.6,24.4,52.7,25.5,53.3z"/>
				</defs>
				<clipPath id="SVGID_12_">
					<use xlink:href="#SVGID_11_"  style="overflow:visible;"/>
				</clipPath>
				<g class="st19">
					<path class="st13" d="M25.5,53.3l-2.3-1.2c-0.1,0-0.1-0.1-0.2-0.1l2.3,1.2C25.4,53.3,25.5,53.3,25.5,53.3"/>
					<path class="st12" d="M25.3,53.2L23,52c-0.1-0.1-0.2-0.1-0.3-0.2L25,53C25.1,53.1,25.2,53.2,25.3,53.2"/>
					<path class="st12" d="M25,53l-2.3-1.2c-0.1-0.1-0.1-0.1-0.2-0.2l2.3,1.2C24.8,52.9,24.9,52.9,25,53"/>
					<path class="st11" d="M24.8,52.8l-2.3-1.2c-0.1-0.1-0.1-0.1-0.2-0.2l2.3,1.2C24.6,52.7,24.7,52.8,24.8,52.8"/>
					<path class="st11" d="M24.6,52.6l-2.3-1.2c0,0-0.1-0.1-0.1-0.2l2.3,1.2C24.5,52.5,24.5,52.6,24.6,52.6"/>
					<path class="st10" d="M24.4,52.5l-2.3-1.2c0-0.1-0.1-0.1-0.1-0.2l2.3,1.2C24.3,52.4,24.4,52.4,24.4,52.5"/>
					<path class="st9" d="M24.3,52.3L22,51.1c0-0.1-0.1-0.1-0.1-0.2l2.3,1.2C24.2,52.2,24.3,52.3,24.3,52.3"/>
					<path class="st9" d="M24.2,52.2l-2.3-1.2c0-0.1-0.1-0.1-0.1-0.2l2.3,1.2C24.1,52.1,24.1,52.1,24.2,52.2"/>
					<path class="st8" d="M24.1,52l-2.3-1.2c0-0.1-0.1-0.1-0.1-0.2l2.3,1.2C24,51.9,24,51.9,24.1,52"/>
					<path class="st8" d="M24,51.8l-2.3-1.2c0-0.1-0.1-0.1-0.1-0.2l2.3,1.2C23.9,51.7,23.9,51.8,24,51.8"/>
					<path class="st7" d="M23.9,51.6l-2.3-1.2c0-0.1-0.1-0.1-0.1-0.2l2.3,1.2C23.8,51.5,23.9,51.6,23.9,51.6"/>
					<path class="st7" d="M23.8,51.5l-2.3-1.2c0-0.1-0.1-0.1-0.1-0.2l2.3,1.2C23.8,51.3,23.8,51.4,23.8,51.5"/>
					<path class="st6" d="M23.7,51.2L21.5,50c0-0.1,0-0.1-0.1-0.2l2.3,1.2C23.7,51.1,23.7,51.2,23.7,51.2"/>
					<path class="st6" d="M23.7,51l-2.3-1.2c0-0.1,0-0.2-0.1-0.3l2.3,1.2C23.6,50.9,23.6,50.9,23.7,51"/>
					<path class="st5" d="M23.6,50.8l-2.3-1.2c0-0.1,0-0.2-0.1-0.3l2.3,1.2C23.6,50.6,23.6,50.7,23.6,50.8"/>
					<path class="st5" d="M23.5,50.5l-2.3-1.2c0-0.1,0-0.2,0-0.4l2.3,1.2C23.5,50.2,23.5,50.4,23.5,50.5"/>
					<path class="st4" d="M23.5,50.1l-2.3-1.2c0-0.1,0-0.3,0-0.5l2.3,1.2C23.5,49.8,23.5,50,23.5,50.1"/>
					<path class="st4" d="M23.5,49.6l-2.3-1.2c0,0,0-0.1,0-0.1c0-0.1,0-0.3,0-0.4l2.3,1.2c0,0.1,0,0.3,0,0.4
						C23.5,49.5,23.5,49.6,23.5,49.6"/>
					<path class="st3" d="M23.5,49.1l-2.3-1.2c0.2-3.1,2.7-5.4,6-5.9l2.3,1.2C26.2,43.6,23.7,46,23.5,49.1"/>
				</g>
			</g>
			<g>
				<path class="st20" d="M29.5,43.2c2.2-0.3,4.1,0.8,5.1,3L31,48.4c0-0.1-0.6-1.2-1.9-1.1c-0.8,0.1-1.2,0.5-1.2,1.2
					c0,1.9,7.2,0.1,7.2,5.9c0,3.7-3,6-6.3,6.5c-2.6,0.4-4.5-0.4-5.8-2.7l3.6-2.5c0,0.1,0.8,1.4,2.2,1.2c0.8-0.1,1.7-0.6,1.7-1.4
					c0-2.1-7,0-7-5.9C23.5,46.2,26,43.7,29.5,43.2z"/>
			</g>
		</g>
		<g class="st1">
			<g class="st1">
				<defs>
					<path id="SVGID_13_" class="st1" d="M44.3,44.5l2.3,1.2c0.7,0.4,0.9,1.3,0.9,2.2c0,1.1,0,9.4,0,9.9l-2.3-1.2c0-0.4,0-8.7,0-9.9
						C45.2,45.8,45,44.9,44.3,44.5z"/>
				</defs>
				<clipPath id="SVGID_14_">
					<use xlink:href="#SVGID_13_"  style="overflow:visible;"/>
				</clipPath>
				<g class="st21">
					<path class="st4" d="M47.4,57.8l-2.3-1.2c0-0.4,0-8.7,0-9.9c0-0.1,0-0.1,0-0.2l2.3,1.2c0,0.1,0,0.1,0,0.2
						C47.5,49.1,47.4,57.4,47.4,57.8"/>
					<path class="st4" d="M47.5,47.8l-2.3-1.2c0-0.1,0-0.3,0-0.4l2.3,1.2C47.5,47.5,47.5,47.6,47.5,47.8"/>
					<path class="st5" d="M47.4,47.4l-2.3-1.2c0-0.1,0-0.2,0-0.3l2.3,1.2C47.4,47.2,47.4,47.3,47.4,47.4"/>
					<path class="st5" d="M47.4,47.1l-2.3-1.2c0-0.1,0-0.1,0-0.2l2.3,1.2C47.4,47,47.4,47,47.4,47.1"/>
					<path class="st6" d="M47.4,46.9l-2.3-1.2c0-0.1,0-0.1,0-0.2l2.3,1.2C47.4,46.8,47.4,46.9,47.4,46.9"/>
					<path class="st6" d="M47.3,46.8l-2.3-1.2c0,0,0-0.1,0-0.1l2.3,1.2C47.3,46.7,47.3,46.7,47.3,46.8"/>
					<path class="st7" d="M47.3,46.6L45,45.4c0,0,0-0.1,0-0.1l2.3,1.2C47.3,46.6,47.3,46.6,47.3,46.6"/>
					<path class="st7" d="M47.3,46.5L45,45.3c0,0,0-0.1,0-0.1L47.3,46.5C47.2,46.5,47.2,46.5,47.3,46.5"/>
					<path class="st8" d="M47.2,46.4l-2.3-1.2c0,0,0-0.1,0-0.1L47.2,46.4C47.2,46.4,47.2,46.4,47.2,46.4"/>
					<path class="st8" d="M47.2,46.3l-2.3-1.2c0,0,0-0.1,0-0.1L47.2,46.3C47.1,46.3,47.2,46.3,47.2,46.3"/>
					<path class="st9" d="M47.1,46.3L44.8,45c0,0,0,0,0-0.1L47.1,46.3C47.1,46.2,47.1,46.2,47.1,46.3"/>
					<path class="st9" d="M47.1,46.2l-2.3-1.2c0,0,0,0-0.1-0.1L47.1,46.2C47,46.1,47.1,46.2,47.1,46.2"/>
					<path class="st10" d="M47,46.1l-2.3-1.2c0,0,0,0-0.1-0.1L47,46.1C47,46.1,47,46.1,47,46.1"/>
					<path class="st11" d="M47,46l-2.3-1.2c0,0,0,0-0.1-0.1L47,46C46.9,46,47,46,47,46"/>
					<path class="st11" d="M46.9,46l-2.3-1.2c0,0,0,0-0.1-0.1L46.9,46C46.9,45.9,46.9,46,46.9,46"/>
					<path class="st12" d="M46.8,45.9l-2.3-1.2c0,0-0.1,0-0.1-0.1L46.8,45.9C46.8,45.9,46.8,45.9,46.8,45.9"/>
					<path class="st12" d="M46.8,45.8l-2.3-1.2c0,0-0.1,0-0.1-0.1l2.3,1.2C46.7,45.8,46.7,45.8,46.8,45.8"/>
					<path class="st13" d="M46.7,45.8l-2.3-1.2c0,0,0,0-0.1,0L46.7,45.8C46.6,45.7,46.6,45.8,46.7,45.8"/>
				</g>
			</g>
			<g class="st1">
				<defs>
					<path id="SVGID_15_" class="st1" d="M47.7,40l2.3,1.2c-0.9-0.5-2-0.7-3.2-0.5c-3.1,0.4-4.5,3-4.6,3.2l-2.3-1.2
						c0.1-0.1,1.5-2.7,4.6-3.2C45.7,39.3,46.8,39.5,47.7,40z"/>
				</defs>
				<clipPath id="SVGID_16_">
					<use xlink:href="#SVGID_15_"  style="overflow:visible;"/>
				</clipPath>
				<g class="st22">
					<path class="st3" d="M42.2,43.9l-2.3-1.2c0.1-0.1,1.5-2.7,4.6-3.2c1.2-0.2,2.3,0,3.2,0.5l2.3,1.2c-0.9-0.5-2-0.7-3.2-0.5
						C43.7,41.2,42.3,43.8,42.2,43.9"/>
				</g>
			</g>
			<g>
				<path class="st20" d="M42.2,37.5l0,6.4c0.1-0.1,1.5-2.7,4.6-3.2c3.1-0.4,5.6,1.6,5.6,4.8c0,4,0,7.6,0,11.6l-4.9,0.7
					c0-0.4,0-8.7,0-9.9c0-1.4-0.4-2.7-2.4-2.4c-1.5,0.2-2.8,1.7-2.8,3.4c0,3.2,0,9.3,0,9.6l-4.8,0.7l0-21L42.2,37.5z"/>
			</g>
			<g>
				<polygon class="st9" points="37.4,59.2 35.1,58 35.2,37 37.5,38.2 				"/>
			</g>
			<g>
				<polygon class="st17" points="37.5,38.2 35.2,37 39.9,36.3 42.2,37.5 				"/>
			</g>
		</g>
		<g class="st1">
			<g>
				<polygon class="st6" points="71,47.5 68.7,46.3 71.9,36 74.2,37.2 				"/>
			</g>
			<g>
				<polygon class="st17" points="74.2,37.2 71.9,36 76.9,35.3 79.2,36.5 				"/>
			</g>
			<g>
				<polygon class="st20" points="79.2,36.5 73,54.2 68.8,54.8 62.3,38.9 67.6,38.1 71,47.5 74.2,37.2 				"/>
			</g>
			<g>
				<polygon class="st13" points="68.8,54.8 66.5,53.6 60,37.6 62.3,38.9 				"/>
			</g>
			<g>
				<polygon class="st17" points="62.3,38.9 60,37.6 65.3,36.9 67.6,38.1 				"/>
			</g>
		</g>
		<g class="st1">
			<g>
				<polygon class="st20" points="55.6,56.7 55.7,39.8 60.4,39.1 60.4,56 				"/>
			</g>
			<g>
				<polygon class="st9" points="55.6,56.7 53.4,55.4 53.4,38.6 55.7,39.8 				"/>
			</g>
			<g>
				<polygon class="st17" points="55.7,39.8 53.4,38.6 58.1,37.9 60.4,39.1 				"/>
			</g>
		</g>
		<g class="st1">
			<g>
				<path class="st20" d="M58,38.3c-1.5,0.2-2.8-1-2.8-2.7c0-1.7,1.3-3.3,2.9-3.5c1.6-0.2,2.9,0.9,2.9,2.6
					C60.9,36.5,59.6,38.1,58,38.3z"/>
			</g>
			<g class="st1">
				<defs>
					<path id="SVGID_17_" class="st1" d="M56.5,38l-2.3-1.2c-0.8-0.4-1.3-1.3-1.3-2.4c0-1.7,1.3-3.3,2.9-3.5c0.6-0.1,1.1,0,1.5,0.3
						l2.3,1.2c-0.4-0.2-1-0.3-1.5-0.3c-1.6,0.2-2.9,1.8-2.9,3.5C55.2,36.7,55.7,37.6,56.5,38z"/>
				</defs>
				<clipPath id="SVGID_18_">
					<use xlink:href="#SVGID_17_"  style="overflow:visible;"/>
				</clipPath>
				<g class="st23">
					<path class="st13" d="M56.5,38l-2.3-1.2c0,0-0.1,0-0.1-0.1l2.3,1.2C56.5,38,56.5,38,56.5,38"/>
					<path class="st12" d="M56.4,38l-2.3-1.2c-0.1,0-0.1-0.1-0.2-0.1l2.3,1.2C56.3,37.9,56.4,37.9,56.4,38"/>
					<path class="st12" d="M56.2,37.8L54,36.6c0,0-0.1-0.1-0.1-0.1l2.3,1.2C56.1,37.8,56.2,37.8,56.2,37.8"/>
					<path class="st11" d="M56.1,37.7l-2.3-1.2c0,0-0.1-0.1-0.1-0.1l2.3,1.2C56,37.7,56.1,37.7,56.1,37.7"/>
					<path class="st11" d="M56,37.6l-2.3-1.2c0,0-0.1-0.1-0.1-0.1l2.3,1.2C55.9,37.5,56,37.6,56,37.6"/>
					<path class="st10" d="M55.9,37.5l-2.3-1.2c0,0-0.1-0.1-0.1-0.1l2.3,1.2C55.8,37.4,55.8,37.5,55.9,37.5"/>
					<path class="st9" d="M55.8,37.4l-2.3-1.2c0,0-0.1-0.1-0.1-0.1l2.3,1.2C55.7,37.3,55.8,37.3,55.8,37.4"/>
					<path class="st9" d="M55.7,37.3L53.4,36c0,0-0.1-0.1-0.1-0.1l2.3,1.2C55.7,37.2,55.7,37.2,55.7,37.3"/>
					<path class="st8" d="M55.6,37.2l-2.3-1.2c0,0,0-0.1-0.1-0.1l2.3,1.2C55.6,37.1,55.6,37.1,55.6,37.2"/>
					<path class="st8" d="M55.6,37l-2.3-1.2c0,0,0-0.1-0.1-0.1l2.3,1.2C55.5,36.9,55.5,37,55.6,37"/>
					<path class="st7" d="M55.5,36.9l-2.3-1.2c0,0,0-0.1-0.1-0.1l2.3,1.2C55.5,36.8,55.5,36.9,55.5,36.9"/>
					<path class="st7" d="M55.4,36.8l-2.3-1.2c0,0,0-0.1-0.1-0.1l2.3,1.2C55.4,36.7,55.4,36.7,55.4,36.8"/>
					<path class="st6" d="M55.4,36.6l-2.3-1.2c0,0,0-0.1,0-0.2l2.3,1.2C55.4,36.5,55.4,36.6,55.4,36.6"/>
					<path class="st6" d="M55.3,36.5l-2.3-1.2c0-0.1,0-0.1,0-0.2l2.3,1.2C55.3,36.4,55.3,36.4,55.3,36.5"/>
					<path class="st5" d="M55.3,36.3L53,35.1c0-0.1,0-0.1,0-0.2l2.3,1.2C55.3,36.2,55.3,36.2,55.3,36.3"/>
					<path class="st5" d="M55.3,36.1L53,34.9c0-0.1,0-0.1,0-0.2l2.3,1.2C55.2,36,55.3,36.1,55.3,36.1"/>
					<path class="st4" d="M55.2,35.9L53,34.7c0-0.1,0-0.2,0-0.2l2.3,1.2C55.2,35.8,55.2,35.8,55.2,35.9"/>
					<path class="st4" d="M55.2,35.7l-2.3-1.2c0,0,0-0.1,0-0.1c0-0.1,0-0.2,0-0.2l2.3,1.2C55.2,35.4,55.2,35.5,55.2,35.7
						C55.2,35.6,55.2,35.6,55.2,35.7"/>
					<path class="st3" d="M55.2,35.4L53,34.1c0.1-1.6,1.3-3.1,2.8-3.3c0.6-0.1,1.1,0,1.5,0.3l2.3,1.2c-0.4-0.2-1-0.3-1.5-0.3
						C56.6,32.3,55.3,33.8,55.2,35.4"/>
				</g>
			</g>
		</g>
		<g class="st1">
			<g>
				<polygon class="st9" points="35.5,89.7 33.2,88.5 33.2,86.7 35.5,87.9 				"/>
			</g>
			<g class="st1">
				<defs>
					<path id="SVGID_19_" class="st1" d="M29.9,85.8l-2.3-1.2c0.5,0.3,1.2,0.4,1.9,0.3l2.3,1.2C31.1,86.2,30.5,86,29.9,85.8z"/>
				</defs>
				<clipPath id="SVGID_20_">
					<use xlink:href="#SVGID_19_"  style="overflow:visible;"/>
				</clipPath>
				<g class="st24">
					<path class="st3" d="M29.9,85.8l-2.3-1.2c0.5,0.3,1.2,0.4,1.9,0.3l2.3,1.2C31.1,86.2,30.5,86,29.9,85.8"/>
				</g>
			</g>
			<g class="st1">
				<defs>
					<path id="SVGID_21_" class="st1" d="M31.7,76.8l2.3,1.2c1,0.6,1.7,1.8,1.7,3.3c0,2.3-1.4,4.4-3.8,4.7l-2.3-1.2
						c2.5-0.3,3.8-2.4,3.8-4.7C33.4,78.6,32.8,77.4,31.7,76.8z"/>
				</defs>
				<clipPath id="SVGID_22_">
					<use xlink:href="#SVGID_21_"  style="overflow:visible;"/>
				</clipPath>
				<g class="st25">
					<path class="st3" d="M31.8,86.1l-2.3-1.2c2.3-0.3,3.7-2.2,3.8-4.3l2.3,1.2C35.5,83.9,34.2,85.7,31.8,86.1"/>
					<path class="st4" d="M35.7,81.7l-2.3-1.2c0-0.1,0-0.3,0-0.4c0,0,0-0.1,0-0.1l2.3,1.2c0,0,0,0.1,0,0.1
						C35.7,81.5,35.7,81.6,35.7,81.7"/>
					<path class="st4" d="M35.7,81.2L33.4,80c0-0.1,0-0.3,0-0.4l2.3,1.2C35.7,81,35.7,81.1,35.7,81.2"/>
					<path class="st5" d="M35.6,80.9l-2.3-1.2c0-0.1,0-0.2,0-0.3l2.3,1.2C35.6,80.7,35.6,80.8,35.6,80.9"/>
					<path class="st5" d="M35.6,80.6l-2.3-1.2c0-0.1,0-0.2,0-0.3l2.3,1.2C35.6,80.4,35.6,80.5,35.6,80.6"/>
					<path class="st6" d="M35.6,80.3L33.3,79c0-0.1,0-0.2-0.1-0.2l2.3,1.2C35.5,80.1,35.5,80.2,35.6,80.3"/>
					<path class="st6" d="M35.5,80.1l-2.3-1.2c0-0.1,0-0.1-0.1-0.2l2.3,1.2C35.5,79.9,35.5,80,35.5,80.1"/>
					<path class="st7" d="M35.4,79.8l-2.3-1.2c0-0.1,0-0.1-0.1-0.2l2.3,1.2C35.4,79.7,35.4,79.8,35.4,79.8"/>
					<path class="st7" d="M35.4,79.7l-2.3-1.2c0-0.1-0.1-0.1-0.1-0.2l2.3,1.2C35.3,79.5,35.3,79.6,35.4,79.7"/>
					<path class="st8" d="M35.3,79.5L33,78.2c0-0.1-0.1-0.1-0.1-0.2l2.3,1.2C35.2,79.4,35.3,79.4,35.3,79.5"/>
					<path class="st8" d="M35.2,79.3l-2.3-1.2c0-0.1-0.1-0.1-0.1-0.2l2.3,1.2C35.2,79.2,35.2,79.3,35.2,79.3"/>
					<path class="st9" d="M35.1,79.1l-2.3-1.2c0-0.1-0.1-0.1-0.1-0.2L35,79C35.1,79,35.1,79.1,35.1,79.1"/>
					<path class="st9" d="M35,79l-2.3-1.2c0,0-0.1-0.1-0.1-0.1l2.3,1.2C35,78.9,35,78.9,35,79"/>
					<path class="st10" d="M34.9,78.8l-2.3-1.2c0,0-0.1-0.1-0.1-0.1l2.3,1.2C34.8,78.8,34.9,78.8,34.9,78.8"/>
					<path class="st11" d="M34.8,78.7l-2.3-1.2c0,0-0.1-0.1-0.1-0.1l2.3,1.2C34.7,78.6,34.8,78.7,34.8,78.7"/>
					<path class="st11" d="M34.7,78.6l-2.3-1.2c0,0-0.1-0.1-0.1-0.1l2.3,1.2C34.6,78.5,34.6,78.5,34.7,78.6"/>
					<path class="st12" d="M34.5,78.4l-2.3-1.2c-0.1,0-0.1-0.1-0.2-0.1l2.3,1.2C34.4,78.3,34.5,78.4,34.5,78.4"/>
					<path class="st12" d="M34.4,78.3l-2.3-1.2C32,77,32,77,31.9,76.9l2.3,1.2C34.2,78.2,34.3,78.2,34.4,78.3"/>
					<path class="st13" d="M34.2,78.2l-2.3-1.2c0,0-0.1-0.1-0.1-0.1l2.3,1.2C34.1,78.1,34.1,78.1,34.2,78.2"/>
				</g>
			</g>
			<g>
				<polygon class="st9" points="35.5,74.4 33.2,73.2 33.2,67.4 35.5,68.7 				"/>
			</g>
			<g>
				<polygon class="st17" points="35.5,68.7 33.2,67.4 37.9,66.8 40.2,68 				"/>
			</g>
			<g class="st1">
				<defs>
					<path id="SVGID_23_" class="st1" d="M32.3,72.6l2.3,1.2c-0.8-0.4-2-0.9-3.6-0.6l-2.3-1.2C30.2,71.7,31.5,72.1,32.3,72.6z"/>
				</defs>
				<clipPath id="SVGID_24_">
					<use xlink:href="#SVGID_23_"  style="overflow:visible;"/>
				</clipPath>
				<g class="st26">
					<path class="st3" d="M30.9,73.2l-2.3-1.2c1.6-0.2,2.8,0.2,3.6,0.6l2.3,1.2C33.8,73.4,32.5,72.9,30.9,73.2"/>
				</g>
			</g>
			<g class="st1">
				<defs>
					<path id="SVGID_25_" class="st1" d="M26.9,90.2L24.6,89c-2.2-1.2-3.5-3.9-3.4-7.1c0-4.6,2.9-9.3,7.5-10l2.3,1.2
						c-4.6,0.6-7.5,5.4-7.5,10C23.4,86.3,24.7,89,26.9,90.2z"/>
				</defs>
				<clipPath id="SVGID_26_">
					<use xlink:href="#SVGID_25_"  style="overflow:visible;"/>
				</clipPath>
				<g class="st27">
					<path class="st13" d="M26.9,90.2L24.6,89c-0.1-0.1-0.2-0.1-0.3-0.2l2.3,1.2C26.7,90.1,26.8,90.2,26.9,90.2"/>
					<path class="st12" d="M26.6,90.1l-2.3-1.2c-0.1-0.1-0.3-0.2-0.4-0.3l2.3,1.2C26.3,89.9,26.4,90,26.6,90.1"/>
					<path class="st12" d="M26.2,89.8l-2.3-1.2c-0.1-0.1-0.2-0.2-0.3-0.3l2.3,1.2C26,89.6,26.1,89.7,26.2,89.8"/>
					<path class="st11" d="M25.9,89.5l-2.3-1.2c-0.1-0.1-0.2-0.2-0.3-0.3l2.3,1.2C25.7,89.3,25.8,89.4,25.9,89.5"/>
					<path class="st11" d="M25.6,89.2L23.3,88c-0.1-0.1-0.2-0.2-0.3-0.3l2.3,1.2C25.4,89.1,25.5,89.1,25.6,89.2"/>
					<path class="st10" d="M25.3,89L23,87.7c-0.1-0.1-0.2-0.2-0.2-0.3l2.3,1.2C25.1,88.8,25.2,88.9,25.3,89"/>
					<path class="st9" d="M25.1,88.7l-2.3-1.2c-0.1-0.1-0.2-0.2-0.2-0.3l2.3,1.2C24.9,88.5,25,88.6,25.1,88.7"/>
					<path class="st9" d="M24.8,88.4l-2.3-1.2c-0.1-0.1-0.1-0.2-0.2-0.3l2.3,1.2C24.7,88.1,24.8,88.2,24.8,88.4"/>
					<path class="st8" d="M24.6,88l-2.3-1.2c-0.1-0.1-0.1-0.2-0.2-0.3l2.3,1.2C24.5,87.8,24.6,87.9,24.6,88"/>
					<path class="st8" d="M24.4,87.7l-2.3-1.2c-0.1-0.1-0.1-0.2-0.2-0.4l2.3,1.2C24.3,87.4,24.4,87.6,24.4,87.7"/>
					<path class="st7" d="M24.3,87.3L22,86.1c-0.1-0.1-0.1-0.3-0.2-0.4l2.3,1.2C24.1,87.1,24.2,87.2,24.3,87.3"/>
					<path class="st7" d="M24.1,86.9l-2.3-1.2c-0.1-0.1-0.1-0.3-0.2-0.4l2.3,1.2C24,86.6,24,86.8,24.1,86.9"/>
					<path class="st6" d="M23.9,86.5l-2.3-1.2c-0.1-0.2-0.1-0.3-0.1-0.5l2.3,1.2C23.8,86.2,23.9,86.3,23.9,86.5"/>
					<path class="st6" d="M23.8,86l-2.3-1.2c0-0.2-0.1-0.3-0.1-0.5l2.3,1.2C23.7,85.7,23.7,85.8,23.8,86"/>
					<path class="st5" d="M23.7,85.5l-2.3-1.2c0-0.2-0.1-0.4-0.1-0.6l2.3,1.2C23.6,85.1,23.6,85.3,23.7,85.5"/>
					<path class="st5" d="M23.5,84.9l-2.3-1.2c0-0.2-0.1-0.5-0.1-0.7l2.3,1.2C23.5,84.4,23.5,84.7,23.5,84.9"/>
					<path class="st4" d="M23.5,84.2L21.2,83c0-0.3,0-0.6,0-0.8l2.3,1.2C23.4,83.7,23.4,83.9,23.5,84.2"/>
					<path class="st4" d="M23.4,83.4l-2.3-1.2c0-0.1,0-0.2,0-0.3c0-0.2,0-0.5,0-0.7l2.3,1.2c0,0.2,0,0.5,0,0.7
						C23.4,83.2,23.4,83.3,23.4,83.4"/>
					<path class="st3" d="M23.4,82.4l-2.3-1.2c0.3-4.3,3.1-8.6,7.5-9.2l2.3,1.2C26.6,73.8,23.7,78,23.4,82.4"/>
				</g>
			</g>
			<g>
				<path class="st20" d="M35.5,68.7l4.7-0.7l0,21l-4.6,0.7l0-1.8c-1.5,1.7-3,2.6-5,2.9c-4.4,0.6-7.1-3-7.1-7.7
					c0-4.6,2.9-9.3,7.5-10c2.7-0.4,4.4,1.2,4.5,1.3L35.5,68.7z M31.8,86.1c2.5-0.3,3.8-2.4,3.8-4.7c0-2.4-1.5-3.9-3.7-3.6
					c-2.4,0.3-3.8,2.5-3.8,4.6C28.2,84.7,29.7,86.4,31.8,86.1"/>
			</g>
		</g>
		<g class="st1">
			<g>
				<polygon class="st20" points="74.1,84.3 74.1,67.4 78.9,66.8 78.8,83.6 				"/>
			</g>
			<g>
				<polygon class="st9" points="74.1,84.3 71.8,83 71.9,66.2 74.1,67.4 				"/>
			</g>
			<g>
				<polygon class="st17" points="74.1,67.4 71.9,66.2 76.6,65.5 78.9,66.8 				"/>
			</g>
		</g>
		<g class="st1">
			<g class="st1">
				<defs>
					<path id="SVGID_27_" class="st1" d="M87.8,83.4l-2.3-1.2c0.4,0.2,1,0.2,1.7,0.1c1.7-0.2,3.2-1.3,3.2-3.1c0-0.4,0-0.8,0-1.3
						l2.3,1.2c0,0.4,0,0.8,0,1.3c0,1.8-1.5,2.9-3.2,3.1C88.8,83.6,88.3,83.6,87.8,83.4z"/>
				</defs>
				<clipPath id="SVGID_28_">
					<use xlink:href="#SVGID_27_"  style="overflow:visible;"/>
				</clipPath>
				<g class="st28">
					<path class="st3" d="M87.8,83.4l-2.3-1.2c0.4,0.2,1,0.2,1.7,0.1c1.6-0.2,3.1-1.2,3.2-2.9l2.3,1.2c-0.1,1.7-1.6,2.7-3.2,2.9
						C88.8,83.6,88.3,83.6,87.8,83.4"/>
					<path class="st4" d="M92.7,80.6l-2.3-1.2c0-0.1,0-0.1,0-0.2c0-0.3,0-0.6,0-0.8l2.3,1.2c0,0.3,0,0.5,0,0.8
						C92.7,80.5,92.7,80.6,92.7,80.6"/>
					<path class="st4" d="M92.7,79.6l-2.3-1.2c0-0.1,0-0.2,0-0.4l2.3,1.2C92.7,79.4,92.7,79.5,92.7,79.6"/>
					<path class="st5" d="M92.7,79.2L90.4,78c0,0,0,0,0-0.1L92.7,79.2C92.7,79.2,92.7,79.2,92.7,79.2"/>
				</g>
			</g>
			<g class="st1">
				<defs>
					<path id="SVGID_29_" class="st1" d="M87.5,77l-2.3-1.2c0.5,0.3,1.1,0.4,1.7,0.3l2.3,1.2C88.6,77.4,88,77.3,87.5,77z"/>
				</defs>
				<clipPath id="SVGID_30_">
					<use xlink:href="#SVGID_29_"  style="overflow:visible;"/>
				</clipPath>
				<g class="st29">
					<path class="st3" d="M87.5,77l-2.3-1.2c0.5,0.3,1.1,0.4,1.7,0.3l2.3,1.2C88.6,77.4,88,77.3,87.5,77"/>
				</g>
			</g>
			<g class="st1">
				<defs>
					<path id="SVGID_31_" class="st1" d="M89.1,68.4l2.3,1.2c1,0.6,1.5,1.8,1.5,3.3c0,1.9-1.3,4.1-3.6,4.4L87,76.1
						c2.4-0.3,3.6-2.5,3.6-4.4C90.6,70.2,90.1,68.9,89.1,68.4z"/>
				</defs>
				<clipPath id="SVGID_32_">
					<use xlink:href="#SVGID_31_"  style="overflow:visible;"/>
				</clipPath>
				<g class="st30">
					<path class="st3" d="M89.3,77.3L87,76.1c2.2-0.3,3.5-2.3,3.6-4.2l2.3,1.2C92.8,75,91.5,77,89.3,77.3"/>
					<path class="st4" d="M92.9,73.2l-2.3-1.2c0-0.1,0-0.2,0-0.3c0,0,0-0.1,0-0.1l2.3,1.2c0,0,0,0.1,0,0.1
						C92.9,73,92.9,73.1,92.9,73.2"/>
					<path class="st4" d="M92.9,72.7l-2.3-1.2c0-0.1,0-0.3,0-0.4l2.3,1.2C92.9,72.4,92.9,72.6,92.9,72.7"/>
					<path class="st5" d="M92.9,72.3l-2.3-1.2c0-0.1,0-0.2,0-0.3l2.3,1.2C92.9,72.1,92.9,72.2,92.9,72.3"/>
					<path class="st5" d="M92.9,72l-2.3-1.2c0-0.1,0-0.2-0.1-0.3l2.3,1.2C92.8,71.8,92.8,71.9,92.9,72"/>
					<path class="st6" d="M92.8,71.7l-2.3-1.2c0-0.1,0-0.2-0.1-0.2l2.3,1.2C92.8,71.5,92.8,71.6,92.8,71.7"/>
					<path class="st6" d="M92.7,71.5l-2.3-1.2c0-0.1,0-0.1-0.1-0.2l2.3,1.2C92.7,71.3,92.7,71.4,92.7,71.5"/>
					<path class="st7" d="M92.7,71.2L90.4,70c0-0.1,0-0.1-0.1-0.2l2.3,1.2C92.6,71.1,92.7,71.2,92.7,71.2"/>
					<path class="st7" d="M92.6,71.1l-2.3-1.2c0-0.1,0-0.1-0.1-0.2l2.3,1.2C92.6,70.9,92.6,71,92.6,71.1"/>
					<path class="st8" d="M92.5,70.9l-2.3-1.2c0-0.1-0.1-0.1-0.1-0.2l2.3,1.2C92.5,70.8,92.5,70.8,92.5,70.9"/>
					<path class="st8" d="M92.5,70.7l-2.3-1.2c0-0.1-0.1-0.1-0.1-0.1l2.3,1.2C92.4,70.6,92.4,70.7,92.5,70.7"/>
					<path class="st9" d="M92.4,70.6l-2.3-1.2c0,0-0.1-0.1-0.1-0.1l2.3,1.2C92.3,70.5,92.3,70.5,92.4,70.6"/>
					<path class="st9" d="M92.3,70.4L90,69.2c0,0-0.1-0.1-0.1-0.1l2.3,1.2C92.2,70.4,92.3,70.4,92.3,70.4"/>
					<path class="st10" d="M92.2,70.3l-2.3-1.2c0,0-0.1-0.1-0.1-0.1l2.3,1.2C92.1,70.2,92.2,70.3,92.2,70.3"/>
					<path class="st11" d="M92.1,70.2l-2.3-1.2c0,0-0.1-0.1-0.1-0.1l2.3,1.2C92,70.1,92.1,70.1,92.1,70.2"/>
					<path class="st11" d="M92,70.1l-2.3-1.2c0,0-0.1-0.1-0.1-0.1l2.3,1.2C91.9,70,91.9,70,92,70.1"/>
					<path class="st12" d="M91.9,69.9l-2.3-1.2c0,0-0.1-0.1-0.2-0.1l2.3,1.2C91.8,69.9,91.8,69.9,91.9,69.9"/>
					<path class="st12" d="M91.7,69.8l-2.3-1.2c-0.1,0-0.1-0.1-0.2-0.1l2.3,1.2C91.6,69.7,91.6,69.8,91.7,69.8"/>
					<path class="st13" d="M91.5,69.7l-2.3-1.2c0,0-0.1-0.1-0.1-0.1l2.3,1.2C91.4,69.6,91.5,69.7,91.5,69.7"/>
				</g>
			</g>
			<g>
				<polygon class="st17" points="92.9,64.8 90.6,63.5 95.2,62.9 97.4,64.1 				"/>
			</g>
			<g>
				<polygon class="st9" points="92.9,66.7 90.6,65.4 90.6,63.5 92.9,64.8 				"/>
			</g>
			<g class="st1">
				<defs>
					<path id="SVGID_33_" class="st1" d="M84.4,87.3l-2.3-1.2c-1.5-0.8-2.5-2.1-2.7-4.1l2.3,1.2C81.9,85.2,83,86.5,84.4,87.3z"/>
				</defs>
				<clipPath id="SVGID_34_">
					<use xlink:href="#SVGID_33_"  style="overflow:visible;"/>
				</clipPath>
				<g class="st31">
					<path class="st13" d="M84.4,87.3l-2.3-1.2C82,86,81.9,86,81.8,85.9l2.3,1.2C84.2,87.2,84.3,87.3,84.4,87.3"/>
					<path class="st12" d="M84.1,87.2l-2.3-1.2c-0.1-0.1-0.3-0.2-0.4-0.3l2.3,1.2C83.9,87,84,87.1,84.1,87.2"/>
					<path class="st12" d="M83.7,86.9l-2.3-1.2c-0.1-0.1-0.2-0.2-0.3-0.3l2.3,1.2C83.5,86.7,83.6,86.8,83.7,86.9"/>
					<path class="st11" d="M83.4,86.6l-2.3-1.2c-0.1-0.1-0.2-0.2-0.3-0.2l2.3,1.2C83.2,86.5,83.3,86.5,83.4,86.6"/>
					<path class="st11" d="M83.2,86.4l-2.3-1.2c-0.1-0.1-0.1-0.2-0.2-0.2l2.3,1.2C83,86.2,83.1,86.3,83.2,86.4"/>
					<path class="st10" d="M82.9,86.1l-2.3-1.2c-0.1-0.1-0.1-0.2-0.2-0.2l2.3,1.2C82.8,86,82.9,86.1,82.9,86.1"/>
					<path class="st9" d="M82.8,85.9l-2.3-1.2c-0.1-0.1-0.1-0.2-0.2-0.2l2.3,1.2C82.6,85.8,82.7,85.8,82.8,85.9"/>
					<path class="st9" d="M82.6,85.7l-2.3-1.2c-0.1-0.1-0.1-0.2-0.1-0.2l2.3,1.2C82.5,85.5,82.5,85.6,82.6,85.7"/>
					<path class="st8" d="M82.4,85.4l-2.3-1.2c0-0.1-0.1-0.2-0.1-0.2l2.3,1.2C82.3,85.3,82.4,85.4,82.4,85.4"/>
					<path class="st8" d="M82.3,85.2L80,84c0-0.1-0.1-0.2-0.1-0.3l2.3,1.2C82.2,85,82.3,85.1,82.3,85.2"/>
					<path class="st7" d="M82.2,84.9l-2.3-1.2c0-0.1-0.1-0.2-0.1-0.3l2.3,1.2C82.1,84.8,82.1,84.9,82.2,84.9"/>
					<path class="st7" d="M82.1,84.7l-2.3-1.2c0-0.1-0.1-0.2-0.1-0.3l2.3,1.2C82,84.5,82,84.6,82.1,84.7"/>
					<path class="st6" d="M82,84.4l-2.3-1.2c0-0.1-0.1-0.2-0.1-0.3l2.3,1.2C81.9,84.2,81.9,84.3,82,84.4"/>
					<path class="st6" d="M81.9,84.1l-2.3-1.2c0-0.1-0.1-0.2-0.1-0.3l2.3,1.2C81.8,83.9,81.8,84,81.9,84.1"/>
					<path class="st5" d="M81.8,83.8l-2.3-1.2c0-0.1-0.1-0.2-0.1-0.4l2.3,1.2C81.7,83.5,81.8,83.7,81.8,83.8"/>
					<path class="st5" d="M81.7,83.4l-2.3-1.2c0,0,0-0.1,0-0.1l2.3,1.2C81.7,83.3,81.7,83.4,81.7,83.4"/>
				</g>
			</g>
			<g class="st1">
				<defs>
					<path id="SVGID_35_" class="st1" d="M81.7,83.3L79.4,82c0.2,0,4.1-0.6,5.3-0.7l2.3,1.2C85.8,82.7,81.9,83.2,81.7,83.3z"/>
				</defs>
				<clipPath id="SVGID_36_">
					<use xlink:href="#SVGID_35_"  style="overflow:visible;"/>
				</clipPath>
				<g class="st32">
					<path class="st3" d="M81.7,83.3L79.4,82c0.2,0,4.1-0.6,5.3-0.7l2.3,1.2C85.8,82.7,81.9,83.2,81.7,83.3"/>
				</g>
			</g>
			<g class="st1">
				<defs>
					<path id="SVGID_37_" class="st1" d="M84.7,81.2l-2.3-1.2c-2-1.1-3.3-3.6-3.3-6.7c0-4.6,2.7-8.8,6.8-9.4c1.3-0.2,2.3,0,3.3,0.5
						l2.3,1.2c-0.9-0.5-2-0.7-3.3-0.5c-4.1,0.6-6.8,4.8-6.8,9.4C81.4,77.6,82.6,80.1,84.7,81.2z"/>
				</defs>
				<clipPath id="SVGID_38_">
					<use xlink:href="#SVGID_37_"  style="overflow:visible;"/>
				</clipPath>
				<g class="st33">
					<path class="st13" d="M84.7,81.2l-2.3-1.2c-0.1-0.1-0.2-0.1-0.3-0.2l2.3,1.2C84.5,81.1,84.6,81.1,84.7,81.2"/>
					<path class="st12" d="M84.4,81l-2.3-1.2c-0.1-0.1-0.3-0.2-0.4-0.3l2.3,1.2C84.2,80.8,84.3,80.9,84.4,81"/>
					<path class="st12" d="M84,80.7l-2.3-1.2c-0.1-0.1-0.2-0.2-0.3-0.3l2.3,1.2C83.8,80.6,83.9,80.7,84,80.7"/>
					<path class="st11" d="M83.7,80.5l-2.3-1.2c-0.1-0.1-0.2-0.2-0.3-0.3l2.3,1.2C83.5,80.3,83.6,80.4,83.7,80.5"/>
					<path class="st11" d="M83.4,80.2L81.2,79c-0.1-0.1-0.2-0.2-0.3-0.3l2.3,1.2C83.3,80,83.3,80.1,83.4,80.2"/>
					<path class="st10" d="M83.2,79.9l-2.3-1.2c-0.1-0.1-0.2-0.2-0.2-0.3l2.3,1.2C83,79.8,83.1,79.9,83.2,79.9"/>
					<path class="st9" d="M82.9,79.7l-2.3-1.2c-0.1-0.1-0.1-0.2-0.2-0.3l2.3,1.2C82.8,79.5,82.9,79.6,82.9,79.7"/>
					<path class="st9" d="M82.7,79.4l-2.3-1.2c-0.1-0.1-0.1-0.2-0.2-0.3l2.3,1.2C82.6,79.2,82.7,79.3,82.7,79.4"/>
					<path class="st8" d="M82.5,79.1l-2.3-1.2c-0.1-0.1-0.1-0.2-0.2-0.3l2.3,1.2C82.4,78.8,82.5,79,82.5,79.1"/>
					<path class="st8" d="M82.4,78.7l-2.3-1.2c-0.1-0.1-0.1-0.2-0.2-0.3l2.3,1.2C82.2,78.5,82.3,78.6,82.4,78.7"/>
					<path class="st7" d="M82.2,78.4l-2.3-1.2c-0.1-0.1-0.1-0.2-0.2-0.4L82,78C82.1,78.1,82.1,78.3,82.2,78.4"/>
					<path class="st7" d="M82,78l-2.3-1.2c-0.1-0.1-0.1-0.3-0.1-0.4l2.3,1.2C81.9,77.8,82,77.9,82,78"/>
					<path class="st6" d="M81.9,77.6l-2.3-1.2c0-0.1-0.1-0.3-0.1-0.4l2.3,1.2C81.8,77.3,81.8,77.5,81.9,77.6"/>
					<path class="st6" d="M81.7,77.2l-2.3-1.2c0-0.2-0.1-0.3-0.1-0.5l2.3,1.2C81.7,76.9,81.7,77,81.7,77.2"/>
					<path class="st5" d="M81.6,76.7l-2.3-1.2c0-0.2-0.1-0.4-0.1-0.5l2.3,1.2C81.6,76.3,81.6,76.5,81.6,76.7"/>
					<path class="st5" d="M81.5,76.1l-2.3-1.2c0-0.2-0.1-0.4-0.1-0.6l2.3,1.2C81.5,75.7,81.5,75.9,81.5,76.1"/>
					<path class="st4" d="M81.4,75.5l-2.3-1.2c0-0.3,0-0.5,0-0.8l2.3,1.2C81.4,75,81.4,75.3,81.4,75.5"/>
					<path class="st4" d="M81.4,74.7l-2.3-1.2c0-0.1,0-0.2,0-0.2c0-0.3,0-0.5,0-0.8l2.3,1.2c0,0.3,0,0.5,0,0.8
						C81.4,74.6,81.4,74.7,81.4,74.7"/>
					<path class="st3" d="M81.4,73.7l-2.3-1.2c0.3-4.3,2.9-8.1,6.8-8.6c1.3-0.2,2.3,0,3.3,0.5l2.3,1.2c-0.9-0.5-2-0.7-3.3-0.5
						C84.3,65.7,81.7,69.5,81.4,73.7"/>
				</g>
			</g>
			<g>
				<path class="st20" d="M92.9,64.8l4.5-0.6c0,0.7,0,14,0,14.9c0,5.2-3.7,8.4-8,9.1c-3.8,0.5-7.2-1.1-7.7-4.8
					c0.2,0,4.1-0.6,5.3-0.7c0.7,1.1,1.3,1.2,2.5,1c1.7-0.2,3.2-1.3,3.2-3.1c0-0.4,0-0.8,0-1.3c-0.9,1-2.6,2.3-4.5,2.6
					c-4,0.6-6.8-2.7-6.8-7.3c0-4.6,2.7-8.8,6.8-9.4c2-0.3,3.3,0.2,4.7,1.6L92.9,64.8z M89.3,77.3c2.4-0.3,3.6-2.5,3.6-4.4
					c0-2.3-1.2-3.9-3.6-3.6c-2.2,0.3-3.3,2.4-3.3,4.5C86,76,87.2,77.6,89.3,77.3"/>
			</g>
		</g>
		<g class="st1">
			<g>
				<path class="st20" d="M76.5,65.9c-1.5,0.2-2.8-1-2.8-2.7c0-1.7,1.3-3.3,2.9-3.5c1.6-0.2,2.9,0.9,2.9,2.6
					C79.4,64.1,78.1,65.7,76.5,65.9z"/>
			</g>
			<g class="st1">
				<defs>
					<path id="SVGID_39_" class="st1" d="M75,65.6l-2.3-1.2c-0.8-0.4-1.3-1.3-1.3-2.4c0-1.7,1.3-3.3,2.9-3.5c0.6-0.1,1.1,0,1.6,0.3
						l2.3,1.2c-0.4-0.2-1-0.3-1.6-0.3c-1.6,0.2-2.9,1.8-2.9,3.5C73.7,64.3,74.2,65.2,75,65.6z"/>
				</defs>
				<clipPath id="SVGID_40_">
					<use xlink:href="#SVGID_39_"  style="overflow:visible;"/>
				</clipPath>
				<g class="st34">
					<path class="st13" d="M75,65.6l-2.3-1.2c0,0-0.1,0-0.1-0.1l2.3,1.2C74.9,65.6,75,65.6,75,65.6"/>
					<path class="st12" d="M74.9,65.6l-2.3-1.2c-0.1,0-0.1-0.1-0.2-0.1l2.3,1.2C74.8,65.5,74.8,65.5,74.9,65.6"/>
					<path class="st12" d="M74.7,65.4l-2.3-1.2c0,0-0.1-0.1-0.1-0.1l2.3,1.2C74.6,65.4,74.7,65.4,74.7,65.4"/>
					<path class="st11" d="M74.6,65.3l-2.3-1.2c0,0-0.1-0.1-0.1-0.1l2.3,1.2C74.5,65.3,74.5,65.3,74.6,65.3"/>
					<path class="st11" d="M74.5,65.2L72.2,64c0,0-0.1-0.1-0.1-0.1l2.3,1.2C74.4,65.1,74.4,65.2,74.5,65.2"/>
					<path class="st10" d="M74.3,65.1l-2.3-1.2c0,0-0.1-0.1-0.1-0.1l2.3,1.2C74.3,65,74.3,65.1,74.3,65.1"/>
					<path class="st9" d="M74.3,65L72,63.8c0,0-0.1-0.1-0.1-0.1l2.3,1.2C74.2,64.9,74.2,65,74.3,65"/>
					<path class="st9" d="M74.2,64.9l-2.3-1.2c0,0-0.1-0.1-0.1-0.1l2.3,1.2C74.1,64.8,74.1,64.8,74.2,64.9"/>
					<path class="st8" d="M74.1,64.8l-2.3-1.2c0,0,0-0.1-0.1-0.1l2.3,1.2C74,64.7,74.1,64.7,74.1,64.8"/>
					<path class="st8" d="M74,64.6l-2.3-1.2c0,0,0-0.1-0.1-0.1l2.3,1.2C74,64.5,74,64.6,74,64.6"/>
					<path class="st7" d="M74,64.5l-2.3-1.2c0,0,0-0.1-0.1-0.1l2.3,1.2C73.9,64.4,73.9,64.5,74,64.5"/>
					<path class="st7" d="M73.9,64.4l-2.3-1.2c0,0,0-0.1-0.1-0.1l2.3,1.2C73.9,64.3,73.9,64.3,73.9,64.4"/>
					<path class="st6" d="M73.8,64.2L71.6,63c0,0,0-0.1,0-0.2l2.3,1.2C73.8,64.1,73.8,64.2,73.8,64.2"/>
					<path class="st6" d="M73.8,64.1l-2.3-1.2c0-0.1,0-0.1,0-0.2l2.3,1.2C73.8,64,73.8,64,73.8,64.1"/>
					<path class="st5" d="M73.8,63.9l-2.3-1.2c0-0.1,0-0.1,0-0.2l2.3,1.2C73.7,63.8,73.7,63.9,73.8,63.9"/>
					<path class="st5" d="M73.7,63.7l-2.3-1.2c0-0.1,0-0.1,0-0.2l2.3,1.2C73.7,63.6,73.7,63.7,73.7,63.7"/>
					<path class="st4" d="M73.7,63.5l-2.3-1.2c0-0.1,0-0.2,0-0.2l2.3,1.2C73.7,63.4,73.7,63.4,73.7,63.5"/>
					<path class="st4" d="M73.7,63.3L71.4,62c0,0,0-0.1,0-0.1c0-0.1,0-0.2,0-0.2l2.3,1.2C73.7,63,73.7,63.1,73.7,63.3
						C73.7,63.2,73.7,63.3,73.7,63.3"/>
					<path class="st3" d="M73.7,63l-2.3-1.2c0.1-1.6,1.3-3.1,2.8-3.3c0.6-0.1,1.1,0,1.6,0.3l2.3,1.2c-0.4-0.2-1-0.3-1.6-0.3
						C75,59.9,73.8,61.4,73.7,63"/>
				</g>
			</g>
		</g>
		<g class="st1">
			<g class="st1">
				<defs>
					<path id="SVGID_41_" class="st1" d="M64.3,81.7L62,80.4c0.3,0.2,0.7,0.3,1.2,0.2c0.8-0.1,1.7-0.6,1.7-1.4
						c0-0.3-0.2-0.6-0.5-0.7l2.3,1.2c0.3,0.2,0.5,0.4,0.5,0.7c0,0.8-0.9,1.3-1.7,1.4C65,82,64.6,81.9,64.3,81.7z"/>
				</defs>
				<clipPath id="SVGID_42_">
					<use xlink:href="#SVGID_41_"  style="overflow:visible;"/>
				</clipPath>
				<g class="st35">
					<path class="st3" d="M64.3,81.7L62,80.4c0.3,0.2,0.7,0.3,1.2,0.2c0.7-0.1,1.6-0.6,1.7-1.3l2.3,1.2c-0.1,0.8-0.9,1.2-1.7,1.3
						C65,82,64.6,81.9,64.3,81.7"/>
					<path class="st4" d="M67.1,80.5l-2.3-1.2c0,0,0,0,0-0.1c0,0,0,0,0,0L67.1,80.5C67.1,80.5,67.1,80.5,67.1,80.5
						C67.1,80.5,67.1,80.5,67.1,80.5"/>
					<path class="st4" d="M67.1,80.5l-2.3-1.2c0,0,0,0,0,0L67.1,80.5C67.1,80.4,67.1,80.4,67.1,80.5"/>
					<path class="st5" d="M67.1,80.4l-2.3-1.2c0,0,0,0,0,0L67.1,80.4C67.1,80.4,67.1,80.4,67.1,80.4"/>
					<path class="st5" d="M67.1,80.4l-2.3-1.2c0,0,0,0,0,0L67.1,80.4C67.1,80.3,67.1,80.3,67.1,80.4"/>
					<path class="st6" d="M67.1,80.3l-2.3-1.2c0,0,0,0,0,0L67.1,80.3C67.1,80.3,67.1,80.3,67.1,80.3"/>
					<path class="st6" d="M67.1,80.3L64.8,79c0,0,0,0,0,0L67.1,80.3C67.1,80.2,67.1,80.3,67.1,80.3"/>
					<path class="st7" d="M67.1,80.2L64.8,79c0,0,0,0,0,0L67.1,80.2C67.1,80.2,67.1,80.2,67.1,80.2"/>
					<path class="st7" d="M67.1,80.2l-2.3-1.2c0,0,0,0,0,0L67.1,80.2C67.1,80.2,67.1,80.2,67.1,80.2"/>
					<path class="st8" d="M67.1,80.1l-2.3-1.2c0,0,0,0,0,0L67.1,80.1C67.1,80.1,67.1,80.1,67.1,80.1"/>
					<path class="st8" d="M67.1,80.1l-2.3-1.2c0,0,0,0,0,0L67.1,80.1C67,80.1,67.1,80.1,67.1,80.1"/>
					<path class="st9" d="M67,80.1l-2.3-1.2c0,0,0,0,0,0L67,80.1C67,80.1,67,80.1,67,80.1"/>
					<path class="st9" d="M67,80l-2.3-1.2c0,0,0,0,0,0L67,80C67,80,67,80,67,80"/>
					<path class="st10" d="M67,80l-2.3-1.2c0,0,0,0,0,0L67,80C67,80,67,80,67,80"/>
					<path class="st11" d="M67,80l-2.3-1.2c0,0,0,0,0,0L67,80C66.9,79.9,67,80,67,80"/>
					<path class="st11" d="M66.9,79.9l-2.3-1.2c0,0,0,0-0.1-0.1L66.9,79.9C66.9,79.9,66.9,79.9,66.9,79.9"/>
					<path class="st12" d="M66.9,79.9l-2.3-1.2c0,0,0,0-0.1-0.1L66.9,79.9C66.8,79.8,66.8,79.9,66.9,79.9"/>
					<path class="st12" d="M66.8,79.8l-2.3-1.2c0,0,0,0-0.1,0L66.8,79.8C66.7,79.8,66.8,79.8,66.8,79.8"/>
					<path class="st13" d="M66.7,79.8l-2.3-1.2c0,0-0.1,0-0.1,0L66.7,79.8C66.7,79.7,66.7,79.8,66.7,79.8"/>
				</g>
			</g>
			<g class="st1">
				<defs>
					<path id="SVGID_43_" class="st1" d="M64.6,71.3l2.3,1.2c0.6,0.3,0.8,0.8,0.8,0.9l-2.3-1.2C65.4,72.1,65.1,71.6,64.6,71.3z"/>
				</defs>
				<clipPath id="SVGID_44_">
					<use xlink:href="#SVGID_43_"  style="overflow:visible;"/>
				</clipPath>
				<g class="st36">
					<polyline class="st7" points="67.7,73.4 65.4,72.2 65.4,72.2 67.7,73.4 67.7,73.4 					"/>
					<path class="st8" d="M67.7,73.4l-2.3-1.2c0,0,0,0,0-0.1L67.7,73.4C67.6,73.4,67.7,73.4,67.7,73.4"/>
					<path class="st8" d="M67.6,73.3l-2.3-1.2c0,0,0-0.1,0-0.1L67.6,73.3C67.6,73.3,67.6,73.3,67.6,73.3"/>
					<path class="st9" d="M67.6,73.2L65.3,72c0,0,0-0.1-0.1-0.1L67.6,73.2C67.5,73.2,67.6,73.2,67.6,73.2"/>
					<path class="st9" d="M67.5,73.2l-2.3-1.2c0,0,0-0.1-0.1-0.1L67.5,73.2C67.5,73.1,67.5,73.1,67.5,73.2"/>
					<path class="st10" d="M67.4,73.1l-2.3-1.2c0,0-0.1-0.1-0.1-0.1L67.4,73.1C67.4,73,67.4,73,67.4,73.1"/>
					<path class="st11" d="M67.4,73l-2.3-1.2c0,0-0.1-0.1-0.1-0.1L67.4,73C67.3,72.9,67.3,72.9,67.4,73"/>
					<path class="st11" d="M67.3,72.9L65,71.6c0,0-0.1-0.1-0.1-0.1L67.3,72.9C67.2,72.8,67.3,72.8,67.3,72.9"/>
					<path class="st12" d="M67.2,72.8l-2.3-1.2c0,0-0.1-0.1-0.1-0.1l2.3,1.2C67.1,72.7,67.2,72.7,67.2,72.8"/>
					<path class="st12" d="M67.1,72.7l-2.3-1.2c0,0-0.1-0.1-0.1-0.1l2.3,1.2C67,72.6,67,72.7,67.1,72.7"/>
					<path class="st13" d="M66.9,72.6l-2.3-1.2c0,0-0.1,0-0.1-0.1L66.9,72.6C66.9,72.6,66.9,72.6,66.9,72.6"/>
				</g>
			</g>
			<g class="st1">
				<defs>
					<path id="SVGID_45_" class="st1" d="M64.9,74.2L62.7,73c0.9,0.5,3,0.5,4.6,1.4l2.3,1.2C68,74.7,65.9,74.7,64.9,74.2z"/>
				</defs>
				<clipPath id="SVGID_46_">
					<use xlink:href="#SVGID_45_"  style="overflow:visible;"/>
				</clipPath>
				<g class="st37">
					<path class="st3" d="M64.9,74.2L62.7,73c0.9,0.5,3,0.5,4.6,1.4l2.3,1.2C68,74.7,65.9,74.7,64.9,74.2"/>
				</g>
			</g>
			<g class="st1">
				<defs>
					<path id="SVGID_47_" class="st1" d="M61.7,85.4l-2.3-1.2c-0.8-0.5-1.5-1.2-2.1-2.2l2.3,1.2C60.2,84.2,60.9,85,61.7,85.4z"/>
				</defs>
				<clipPath id="SVGID_48_">
					<use xlink:href="#SVGID_47_"  style="overflow:visible;"/>
				</clipPath>
				<g class="st38">
					<path class="st13" d="M61.7,85.4l-2.3-1.2c-0.1,0-0.2-0.1-0.2-0.1l2.3,1.2C61.5,85.3,61.6,85.4,61.7,85.4"/>
					<path class="st12" d="M61.5,85.3L59.2,84c-0.1-0.1-0.2-0.1-0.3-0.2l2.3,1.2C61.3,85.1,61.4,85.2,61.5,85.3"/>
					<path class="st12" d="M61.1,85.1l-2.3-1.2c-0.1-0.1-0.2-0.1-0.3-0.2l2.3,1.2C61,84.9,61.1,85,61.1,85.1"/>
					<path class="st11" d="M60.9,84.8l-2.3-1.2c-0.1-0.1-0.2-0.1-0.2-0.2l2.3,1.2C60.7,84.7,60.8,84.8,60.9,84.8"/>
					<path class="st11" d="M60.6,84.6l-2.3-1.2c-0.1-0.1-0.1-0.2-0.2-0.2l2.3,1.2C60.5,84.4,60.6,84.5,60.6,84.6"/>
					<path class="st10" d="M60.4,84.4l-2.3-1.2C58.1,83,58,83,57.9,82.9l2.3,1.2C60.3,84.2,60.3,84.3,60.4,84.4"/>
					<path class="st9" d="M60.2,84.1l-2.3-1.2c-0.1-0.1-0.1-0.2-0.2-0.3l2.3,1.2C60.1,83.9,60.1,84,60.2,84.1"/>
					<path class="st9" d="M60,83.8l-2.3-1.2c-0.1-0.1-0.1-0.2-0.2-0.3l2.3,1.2C59.9,83.6,59.9,83.7,60,83.8"/>
					<path class="st8" d="M59.8,83.5l-2.3-1.2c-0.1-0.1-0.1-0.2-0.2-0.3l2.3,1.2C59.7,83.3,59.8,83.4,59.8,83.5"/>
				</g>
			</g>
			<g>
				<polygon class="st17" points="59.6,83.2 57.4,82 61,79.5 63.3,80.7 				"/>
			</g>
			<g class="st1">
				<defs>
					<path id="SVGID_49_" class="st1" d="M66.8,67.5l2.3,1.2c-0.9-0.5-1.8-0.6-2.9-0.5L63.9,67C64.9,66.8,65.9,67,66.8,67.5z"/>
				</defs>
				<clipPath id="SVGID_50_">
					<use xlink:href="#SVGID_49_"  style="overflow:visible;"/>
				</clipPath>
				<g class="st39">
					<path class="st3" d="M66.2,68.2L63.9,67c1.1-0.2,2.1,0,2.9,0.5l2.3,1.2C68.2,68.2,67.2,68.1,66.2,68.2"/>
				</g>
			</g>
			<g class="st1">
				<defs>
					<path id="SVGID_51_" class="st1" d="M62.2,78.4l-2.3-1.2c-1.2-0.6-2.1-1.7-2-3.9c0-3.3,2.5-5.8,6-6.3l2.3,1.2
						c-3.5,0.5-6,3.1-6,6.3C60.2,76.7,61.1,77.8,62.2,78.4z"/>
				</defs>
				<clipPath id="SVGID_52_">
					<use xlink:href="#SVGID_51_"  style="overflow:visible;"/>
				</clipPath>
				<g class="st40">
					<path class="st13" d="M62.2,78.4l-2.3-1.2c-0.1,0-0.1-0.1-0.2-0.1l2.3,1.2C62.1,78.3,62.1,78.4,62.2,78.4"/>
					<path class="st12" d="M62,78.3L59.7,77c-0.1-0.1-0.2-0.1-0.3-0.2l2.3,1.2C61.8,78.1,61.9,78.2,62,78.3"/>
					<path class="st12" d="M61.7,78l-2.3-1.2c-0.1-0.1-0.1-0.1-0.2-0.2l2.3,1.2C61.5,77.9,61.6,78,61.7,78"/>
					<path class="st11" d="M61.5,77.9l-2.3-1.2c-0.1-0.1-0.1-0.1-0.2-0.2l2.3,1.2C61.3,77.8,61.4,77.8,61.5,77.9"/>
					<path class="st11" d="M61.3,77.7L59,76.4c0,0-0.1-0.1-0.1-0.2l2.3,1.2C61.2,77.6,61.2,77.6,61.3,77.7"/>
					<path class="st10" d="M61.1,77.5l-2.3-1.2c0-0.1-0.1-0.1-0.1-0.2l2.3,1.2C61,77.4,61.1,77.5,61.1,77.5"/>
					<path class="st9" d="M61,77.4l-2.3-1.2c0-0.1-0.1-0.1-0.1-0.2l2.3,1.2C60.9,77.3,60.9,77.3,61,77.4"/>
					<path class="st9" d="M60.9,77.2L58.6,76c0-0.1-0.1-0.1-0.1-0.2l2.3,1.2C60.8,77.1,60.8,77.1,60.9,77.2"/>
					<path class="st8" d="M60.8,77l-2.3-1.2c0-0.1-0.1-0.1-0.1-0.2l2.3,1.2C60.7,76.9,60.7,77,60.8,77"/>
					<path class="st8" d="M60.7,76.9l-2.3-1.2c0-0.1-0.1-0.1-0.1-0.2l2.3,1.2C60.6,76.8,60.6,76.8,60.7,76.9"/>
					<path class="st7" d="M60.6,76.7l-2.3-1.2c0-0.1-0.1-0.1-0.1-0.2l2.3,1.2C60.5,76.6,60.5,76.6,60.6,76.7"/>
					<path class="st7" d="M60.5,76.5l-2.3-1.2c0-0.1-0.1-0.1-0.1-0.2l2.3,1.2C60.4,76.4,60.5,76.4,60.5,76.5"/>
					<path class="st6" d="M60.4,76.3l-2.3-1.2c0-0.1,0-0.1-0.1-0.2l2.3,1.2C60.4,76.2,60.4,76.2,60.4,76.3"/>
					<path class="st6" d="M60.4,76.1l-2.3-1.2c0-0.1,0-0.2-0.1-0.3l2.3,1.2C60.3,75.9,60.3,76,60.4,76.1"/>
					<path class="st5" d="M60.3,75.8L58,74.6c0-0.1,0-0.2-0.1-0.3l2.3,1.2C60.3,75.6,60.3,75.7,60.3,75.8"/>
					<path class="st5" d="M60.2,75.5L58,74.3c0-0.1,0-0.2,0-0.4l2.3,1.2C60.2,75.3,60.2,75.4,60.2,75.5"/>
					<path class="st4" d="M60.2,75.1l-2.3-1.2c0-0.1,0-0.3,0-0.5l2.3,1.2C60.2,74.8,60.2,75,60.2,75.1"/>
					<path class="st4" d="M60.2,74.7l-2.3-1.2c0,0,0-0.1,0-0.1c0-0.1,0-0.3,0-0.4l2.3,1.2c0,0.1,0,0.3,0,0.4
						C60.2,74.6,60.2,74.6,60.2,74.7"/>
					<path class="st3" d="M60.2,74.1l-2.3-1.2c0.2-3.1,2.7-5.4,6-5.9l2.3,1.2C62.8,68.7,60.4,71.1,60.2,74.1"/>
				</g>
			</g>
			<g>
				<path class="st20" d="M66.2,68.2c2.2-0.3,4.1,0.8,5.1,3l-3.6,2.2c0-0.1-0.6-1.2-1.9-1.1c-0.8,0.1-1.3,0.5-1.3,1.2
					c0,1.9,7.2,0.1,7.2,5.9c0,3.7-3,6-6.3,6.5c-2.6,0.4-4.5-0.4-5.8-2.7l3.6-2.5c0,0.1,0.8,1.4,2.2,1.2c0.8-0.1,1.7-0.6,1.7-1.4
					c0-2.1-7,0-7-5.9C60.2,71.3,62.7,68.7,66.2,68.2z"/>
			</g>
		</g>
		<g class="st1">
			<g class="st1">
				<defs>
					<path id="SVGID_53_" class="st1" d="M54.4,80.7l-2.3-1.2c0.1,0.1,2.8,1.4,3.7,1.8l2.3,1.2C57.2,82.1,54.6,80.8,54.4,80.7z"/>
				</defs>
				<clipPath id="SVGID_54_">
					<use xlink:href="#SVGID_53_"  style="overflow:visible;"/>
				</clipPath>
				<g class="st41">
					<path class="st3" d="M54.4,80.7l-2.3-1.2c0.1,0.1,2.8,1.4,3.7,1.8l2.3,1.2C57.2,82.1,54.6,80.8,54.4,80.7"/>
				</g>
			</g>
			<g class="st1">
				<defs>
					<path id="SVGID_55_" class="st1" d="M48.8,83.2L46.6,82c0.6,0.3,1.4,0.4,2.2,0.3c1.6-0.2,2.6-1.5,3.4-2.8l2.3,1.2
						c-0.8,1.3-1.8,2.6-3.4,2.8C50.2,83.6,49.4,83.5,48.8,83.2z"/>
				</defs>
				<clipPath id="SVGID_56_">
					<use xlink:href="#SVGID_55_"  style="overflow:visible;"/>
				</clipPath>
				<g class="st42">
					<path class="st3" d="M48.8,83.2L46.6,82c0.6,0.3,1.4,0.4,2.2,0.3c1.6-0.2,2.6-1.5,3.4-2.8l2.3,1.2c-0.8,1.3-1.8,2.6-3.4,2.8
						C50.2,83.6,49.4,83.5,48.8,83.2"/>
				</g>
			</g>
			<g class="st1">
				<defs>
					<path id="SVGID_57_" class="st1" d="M49.9,73.6l2.3,1.2c0.6,0.3,1,0.9,1.3,1.8l-2.3-1.2C50.9,74.5,50.5,73.9,49.9,73.6z"/>
				</defs>
				<clipPath id="SVGID_58_">
					<use xlink:href="#SVGID_57_"  style="overflow:visible;"/>
				</clipPath>
				<g class="st43">
					<path class="st7" d="M53.5,76.7l-2.3-1.2c0-0.1-0.1-0.1-0.1-0.2l2.3,1.2C53.4,76.5,53.5,76.6,53.5,76.7"/>
					<path class="st7" d="M53.4,76.5l-2.3-1.2c0-0.1-0.1-0.2-0.1-0.3l2.3,1.2C53.3,76.3,53.4,76.4,53.4,76.5"/>
					<path class="st8" d="M53.3,76.2L51,74.9c0-0.1-0.1-0.2-0.1-0.2l2.3,1.2C53.2,76,53.3,76.1,53.3,76.2"/>
					<path class="st8" d="M53.2,76l-2.3-1.2c0-0.1-0.1-0.1-0.1-0.2l2.3,1.2C53.1,75.8,53.2,75.9,53.2,76"/>
					<path class="st9" d="M53.1,75.8l-2.3-1.2c0-0.1-0.1-0.1-0.1-0.2l2.3,1.2C53,75.7,53,75.7,53.1,75.8"/>
					<path class="st9" d="M53,75.6l-2.3-1.2c0,0-0.1-0.1-0.1-0.1l2.3,1.2C52.9,75.5,52.9,75.6,53,75.6"/>
					<path class="st10" d="M52.9,75.5l-2.3-1.2c0,0-0.1-0.1-0.1-0.1l2.3,1.2C52.8,75.4,52.8,75.4,52.9,75.5"/>
					<path class="st11" d="M52.8,75.3l-2.3-1.2c0,0-0.1-0.1-0.1-0.1l2.3,1.2C52.7,75.3,52.7,75.3,52.8,75.3"/>
					<path class="st11" d="M52.7,75.2L50.4,74c0,0-0.1-0.1-0.1-0.1l2.3,1.2C52.6,75.2,52.6,75.2,52.7,75.2"/>
					<path class="st12" d="M52.6,75.1l-2.3-1.2c0,0-0.1-0.1-0.1-0.1l2.3,1.2C52.5,75.1,52.5,75.1,52.6,75.1"/>
					<path class="st12" d="M52.4,75l-2.3-1.2c0,0-0.1-0.1-0.1-0.1l2.3,1.2C52.4,75,52.4,75,52.4,75"/>
					<path class="st13" d="M52.3,74.9L50,73.7c0,0-0.1,0-0.1-0.1L52.3,74.9C52.2,74.9,52.3,74.9,52.3,74.9"/>
				</g>
			</g>
			<g class="st1">
				<defs>
					<path id="SVGID_59_" class="st1" d="M47.6,77.5l-2.3-1.2c0.3,0,5.4-0.8,5.9-0.8l2.3,1.2C53,76.7,47.8,77.5,47.6,77.5z"/>
				</defs>
				<clipPath id="SVGID_60_">
					<use xlink:href="#SVGID_59_"  style="overflow:visible;"/>
				</clipPath>
				<g class="st44">
					<path class="st3" d="M47.6,77.5l-2.3-1.2c0.3,0,5.4-0.8,5.9-0.8l2.3,1.2C53,76.7,47.8,77.5,47.6,77.5"/>
				</g>
			</g>
			<g>
				<path class="st20" d="M58.4,78.5c0,0.4,0,0.6,0,1c-0.5,0.1-10.6,1.5-11,1.5c0.4,1.9,1.9,2.7,3.7,2.5c1.6-0.2,2.6-1.5,3.4-2.8
					c0.1,0.1,2.8,1.4,3.7,1.8c-1.4,2.8-4,5-7.3,5.4c-4.8,0.7-8.1-2-8.1-7.7c0-5.1,3.4-9.3,8-9.9C55.2,69.7,58.4,72.5,58.4,78.5z
					 M47.6,77.5c0.3,0,5.4-0.8,5.9-0.8c-0.6-1.5-1.4-2.2-2.8-2C49,74.9,48.2,75.8,47.6,77.5"/>
			</g>
			<g class="st1">
				<defs>
					<path id="SVGID_61_" class="st1" d="M46,87.3L43.8,86c-2.1-1.1-3.3-3.5-3.3-7c0-5.1,3.4-9.3,8-9.9c1.6-0.2,3.1,0,4.3,0.6L55,71
						c-1.2-0.6-2.6-0.9-4.3-0.6c-4.6,0.6-8,4.8-8,9.9C42.7,83.8,44,86.1,46,87.3z"/>
				</defs>
				<clipPath id="SVGID_62_">
					<use xlink:href="#SVGID_61_"  style="overflow:visible;"/>
				</clipPath>
				<g class="st45">
					<path class="st13" d="M46,87.3L43.8,86c-0.1-0.1-0.2-0.1-0.3-0.2l2.3,1.2C45.8,87.2,45.9,87.2,46,87.3"/>
					<path class="st12" d="M45.7,87.1l-2.3-1.2c-0.1-0.1-0.3-0.2-0.4-0.3l2.3,1.2C45.5,86.9,45.6,87,45.7,87.1"/>
					<path class="st12" d="M45.3,86.8l-2.3-1.2c-0.1-0.1-0.2-0.2-0.3-0.3l2.3,1.2C45.1,86.6,45.2,86.7,45.3,86.8"/>
					<path class="st11" d="M45,86.5l-2.3-1.2c-0.1-0.1-0.2-0.2-0.3-0.3l2.3,1.2C44.8,86.4,44.9,86.5,45,86.5"/>
					<path class="st11" d="M44.7,86.3L42.4,85c-0.1-0.1-0.2-0.2-0.3-0.3l2.3,1.2C44.6,86.1,44.6,86.2,44.7,86.3"/>
					<path class="st10" d="M44.5,86l-2.3-1.2c-0.1-0.1-0.2-0.2-0.2-0.3l2.3,1.2C44.3,85.8,44.4,85.9,44.5,86"/>
					<path class="st9" d="M44.2,85.7L42,84.5c-0.1-0.1-0.1-0.2-0.2-0.3l2.3,1.2C44.1,85.5,44.2,85.6,44.2,85.7"/>
					<path class="st9" d="M44,85.4l-2.3-1.2c-0.1-0.1-0.1-0.2-0.2-0.3l2.3,1.2C43.9,85.3,44,85.4,44,85.4"/>
					<path class="st8" d="M43.9,85.2l-2.3-1.2c-0.1-0.1-0.1-0.2-0.2-0.3l2.3,1.2C43.7,84.9,43.8,85.1,43.9,85.2"/>
					<path class="st8" d="M43.7,84.8l-2.3-1.2c-0.1-0.1-0.1-0.2-0.2-0.3l2.3,1.2C43.6,84.6,43.6,84.7,43.7,84.8"/>
					<path class="st7" d="M43.5,84.5l-2.3-1.2c-0.1-0.1-0.1-0.2-0.2-0.4l2.3,1.2C43.4,84.3,43.5,84.4,43.5,84.5"/>
					<path class="st7" d="M43.4,84.1l-2.3-1.2c-0.1-0.1-0.1-0.3-0.1-0.4l2.3,1.2C43.3,83.9,43.3,84,43.4,84.1"/>
					<path class="st6" d="M43.2,83.7l-2.3-1.2c0-0.1-0.1-0.3-0.1-0.4l2.3,1.2C43.1,83.5,43.2,83.6,43.2,83.7"/>
					<path class="st6" d="M43.1,83.3l-2.3-1.2c0-0.2-0.1-0.3-0.1-0.5l2.3,1.2C43,83,43,83.2,43.1,83.3"/>
					<path class="st5" d="M43,82.8l-2.3-1.2c0-0.2-0.1-0.4-0.1-0.6l2.3,1.2C42.9,82.4,42.9,82.6,43,82.8"/>
					<path class="st5" d="M42.8,82.2L40.6,81c0-0.2-0.1-0.5-0.1-0.7l2.3,1.2C42.8,81.8,42.8,82,42.8,82.2"/>
					<path class="st4" d="M42.8,81.5l-2.3-1.2c0-0.3,0-0.6-0.1-0.9l2.3,1.2C42.7,80.9,42.7,81.2,42.8,81.5"/>
					<path class="st4" d="M42.7,80.6l-2.3-1.2c0-0.1,0-0.2,0-0.3c0-0.3,0-0.5,0-0.8l2.3,1.2c0,0.2,0,0.5,0,0.8
						C42.7,80.4,42.7,80.5,42.7,80.6"/>
					<path class="st3" d="M42.7,79.5l-2.3-1.2c0.3-4.8,3.6-8.5,8-9.2c1.6-0.2,3.1,0,4.3,0.6L55,71c-1.2-0.6-2.6-0.9-4.3-0.6
						C46.3,71,43.1,74.8,42.7,79.5"/>
				</g>
			</g>
		</g>
		<g class="st1">
			<g class="st1">
				<defs>
					<path id="SVGID_63_" class="st1" d="M107.7,65.8L110,67c0.7,0.4,0.9,1.3,0.9,2.2c0,1.1,0,9.4,0,9.9l-2.3-1.2c0-0.4,0-8.7,0-9.9
						C108.6,67.1,108.4,66.2,107.7,65.8z"/>
				</defs>
				<clipPath id="SVGID_64_">
					<use xlink:href="#SVGID_63_"  style="overflow:visible;"/>
				</clipPath>
				<g class="st46">
					<path class="st4" d="M110.8,79.1l-2.3-1.2c0-0.4,0-8.7,0-9.9c0-0.1,0-0.1,0-0.2l2.3,1.2c0,0.1,0,0.1,0,0.2
						C110.8,70.4,110.8,78.7,110.8,79.1"/>
					<path class="st4" d="M110.8,69.1l-2.3-1.2c0-0.1,0-0.3,0-0.4l2.3,1.2C110.8,68.8,110.8,68.9,110.8,69.1"/>
					<path class="st5" d="M110.8,68.7l-2.3-1.2c0-0.1,0-0.2,0-0.3l2.3,1.2C110.8,68.5,110.8,68.6,110.8,68.7"/>
					<path class="st5" d="M110.8,68.4l-2.3-1.2c0-0.1,0-0.1,0-0.2l2.3,1.2C110.8,68.3,110.8,68.3,110.8,68.4"/>
					<path class="st6" d="M110.7,68.2l-2.3-1.2c0-0.1,0-0.1,0-0.2l2.3,1.2C110.7,68.1,110.7,68.2,110.7,68.2"/>
					<path class="st6" d="M110.7,68l-2.3-1.2c0,0,0-0.1,0-0.1l2.3,1.2C110.7,68,110.7,68,110.7,68"/>
					<path class="st7" d="M110.7,67.9l-2.3-1.2c0,0,0-0.1,0-0.1l2.3,1.2C110.6,67.9,110.7,67.9,110.7,67.9"/>
					<path class="st7" d="M110.6,67.8l-2.3-1.2c0,0,0-0.1,0-0.1L110.6,67.8C110.6,67.8,110.6,67.8,110.6,67.8"/>
					<path class="st8" d="M110.6,67.7l-2.3-1.2c0,0,0-0.1,0-0.1L110.6,67.7C110.6,67.7,110.6,67.7,110.6,67.7"/>
					<path class="st8" d="M110.5,67.6l-2.3-1.2c0,0,0-0.1,0-0.1L110.5,67.6C110.5,67.6,110.5,67.6,110.5,67.6"/>
					<path class="st9" d="M110.5,67.6l-2.3-1.2c0,0,0,0,0-0.1L110.5,67.6C110.5,67.5,110.5,67.5,110.5,67.6"/>
					<path class="st9" d="M110.5,67.5l-2.3-1.2c0,0,0,0-0.1-0.1L110.5,67.5C110.4,67.4,110.4,67.5,110.5,67.5"/>
					<path class="st10" d="M110.4,67.4l-2.3-1.2c0,0,0,0-0.1-0.1L110.4,67.4C110.4,67.4,110.4,67.4,110.4,67.4"/>
					<path class="st11" d="M110.3,67.3l-2.3-1.2c0,0,0,0-0.1-0.1L110.3,67.3C110.3,67.3,110.3,67.3,110.3,67.3"/>
					<path class="st11" d="M110.3,67.3L108,66c0,0,0,0-0.1-0.1L110.3,67.3C110.2,67.2,110.3,67.3,110.3,67.3"/>
					<path class="st12" d="M110.2,67.2l-2.3-1.2c0,0-0.1,0-0.1-0.1L110.2,67.2C110.2,67.2,110.2,67.2,110.2,67.2"/>
					<path class="st12" d="M110.1,67.1l-2.3-1.2c0,0-0.1,0-0.1-0.1l2.3,1.2C110.1,67.1,110.1,67.1,110.1,67.1"/>
					<path class="st13" d="M110,67.1l-2.3-1.2c0,0,0,0-0.1,0L110,67.1C110,67,110,67.1,110,67.1"/>
				</g>
			</g>
			<g class="st1">
				<defs>
					<path id="SVGID_65_" class="st1" d="M111,61.3l2.3,1.2c-0.9-0.5-2-0.7-3.2-0.5l-2.3-1.2C109,60.6,110.1,60.8,111,61.3z"/>
				</defs>
				<clipPath id="SVGID_66_">
					<use xlink:href="#SVGID_65_"  style="overflow:visible;"/>
				</clipPath>
				<g class="st47">
					<path class="st3" d="M110.1,62l-2.3-1.2c1.2-0.2,2.3,0,3.2,0.5l2.3,1.2C112.4,62.1,111.3,61.9,110.1,62"/>
				</g>
			</g>
			<g class="st1">
				<defs>
					<path id="SVGID_67_" class="st1" d="M105.6,65.2l-2.3-1.2c0.1-0.1,1.5-2.7,4.6-3.2l2.3,1.2C107.1,62.5,105.6,65.1,105.6,65.2z"
						/>
				</defs>
				<clipPath id="SVGID_68_">
					<use xlink:href="#SVGID_67_"  style="overflow:visible;"/>
				</clipPath>
				<g class="st48">
					<path class="st3" d="M105.6,65.2l-2.3-1.2c0.1-0.1,1.5-2.7,4.6-3.2l2.3,1.2C107.1,62.5,105.6,65.1,105.6,65.2"/>
				</g>
			</g>
			<g>
				<path class="st20" d="M110.1,62c3.1-0.4,5.6,1.6,5.6,4.8c0,4,0,7.6,0,11.6l-4.9,0.7c0-0.4,0-8.7,0-9.9c0-1.4-0.3-2.7-2.4-2.4
					c-1.5,0.2-2.8,1.7-2.8,3.4c0,3.2,0,9.3,0,9.6l-4.8,0.7l0-16.9l4.7-0.7l0,2.2C105.6,65.1,107.1,62.5,110.1,62z"/>
			</g>
			<g>
				<polygon class="st9" points="100.8,80.5 98.5,79.3 98.5,62.4 100.8,63.7 				"/>
			</g>
			<g>
				<polygon class="st17" points="100.8,63.7 98.5,62.4 103.3,61.8 105.6,63 				"/>
			</g>
		</g>
		<g class="st1">
			<g>
				<polygon class="st9" points="35.4,119.9 33.1,118.7 33.1,117 35.4,118.3 				"/>
			</g>
			<g class="st1">
				<defs>
					<path id="SVGID_69_" class="st1" d="M29.9,116l-2.3-1.2c0.5,0.3,1.1,0.4,1.9,0.3l2.3,1.2C31,116.4,30.4,116.2,29.9,116z"/>
				</defs>
				<clipPath id="SVGID_70_">
					<use xlink:href="#SVGID_69_"  style="overflow:visible;"/>
				</clipPath>
				<g class="st49">
					<path class="st3" d="M29.9,116l-2.3-1.2c0.5,0.3,1.1,0.4,1.9,0.3l2.3,1.2C31,116.4,30.4,116.2,29.9,116"/>
				</g>
			</g>
			<g class="st1">
				<defs>
					<path id="SVGID_71_" class="st1" d="M31.6,107l2.3,1.2c1,0.6,1.7,1.7,1.7,3.3c0,2.4-1.8,4.4-3.9,4.7l-2.3-1.2
						c2.1-0.3,3.9-2.2,3.9-4.7C33.3,108.8,32.6,107.6,31.6,107z"/>
				</defs>
				<clipPath id="SVGID_72_">
					<use xlink:href="#SVGID_71_"  style="overflow:visible;"/>
				</clipPath>
				<g class="st50">
					<path class="st3" d="M31.7,116.3l-2.3-1.2c2-0.3,3.7-2,3.9-4.3l2.3,1.2C35.4,114.2,33.7,116,31.7,116.3"/>
					<path class="st4" d="M35.6,111.9l-2.3-1.2c0-0.1,0-0.2,0-0.3c0,0,0-0.1,0-0.1l2.3,1.2c0,0,0,0.1,0,0.1
						C35.6,111.7,35.6,111.8,35.6,111.9"/>
					<path class="st4" d="M35.6,111.5l-2.3-1.2c0-0.1,0-0.3,0-0.4l2.3,1.2C35.6,111.2,35.6,111.4,35.6,111.5"/>
					<path class="st5" d="M35.6,111.1l-2.3-1.2c0-0.1,0-0.2,0-0.3l2.3,1.2C35.5,110.9,35.6,111,35.6,111.1"/>
					<path class="st5" d="M35.5,110.8l-2.3-1.2c0-0.1,0-0.2,0-0.3l2.3,1.2C35.5,110.6,35.5,110.7,35.5,110.8"/>
					<path class="st6" d="M35.5,110.5l-2.3-1.2c0-0.1,0-0.2-0.1-0.2l2.3,1.2C35.4,110.4,35.5,110.5,35.5,110.5"/>
					<path class="st6" d="M35.4,110.3l-2.3-1.2c0-0.1,0-0.1-0.1-0.2l2.3,1.2C35.4,110.2,35.4,110.2,35.4,110.3"/>
					<path class="st7" d="M35.4,110.1l-2.3-1.2c0-0.1,0-0.1-0.1-0.2l2.3,1.2C35.3,110,35.3,110,35.4,110.1"/>
					<path class="st7" d="M35.3,109.9l-2.3-1.2c0-0.1-0.1-0.1-0.1-0.2l2.3,1.2C35.2,109.8,35.3,109.8,35.3,109.9"/>
					<path class="st8" d="M35.2,109.7l-2.3-1.2c0-0.1-0.1-0.1-0.1-0.2l2.3,1.2C35.2,109.6,35.2,109.7,35.2,109.7"/>
					<path class="st8" d="M35.1,109.5l-2.3-1.2c0-0.1-0.1-0.1-0.1-0.2l2.3,1.2C35.1,109.4,35.1,109.5,35.1,109.5"/>
					<path class="st9" d="M35,109.4l-2.3-1.2c0-0.1-0.1-0.1-0.1-0.2l2.3,1.2C35,109.3,35,109.3,35,109.4"/>
					<path class="st9" d="M34.9,109.2l-2.3-1.2c0-0.1-0.1-0.1-0.1-0.1l2.3,1.2C34.9,109.1,34.9,109.2,34.9,109.2"/>
					<path class="st10" d="M34.8,109.1l-2.3-1.2c0,0-0.1-0.1-0.1-0.1l2.3,1.2C34.8,109,34.8,109,34.8,109.1"/>
					<path class="st11" d="M34.7,108.9l-2.3-1.2c0,0-0.1-0.1-0.1-0.1l2.3,1.2C34.6,108.8,34.7,108.9,34.7,108.9"/>
					<path class="st11" d="M34.6,108.8l-2.3-1.2c0,0-0.1-0.1-0.2-0.1l2.3,1.2C34.5,108.7,34.5,108.7,34.6,108.8"/>
					<path class="st12" d="M34.4,108.6l-2.3-1.2c-0.1,0-0.1-0.1-0.2-0.1l2.3,1.2C34.3,108.6,34.4,108.6,34.4,108.6"/>
					<path class="st12" d="M34.3,108.5l-2.3-1.2c-0.1-0.1-0.1-0.1-0.2-0.1l2.3,1.2C34.1,108.4,34.2,108.5,34.3,108.5"/>
					<path class="st13" d="M34,108.4l-2.3-1.2c0,0-0.1-0.1-0.1-0.1l2.3,1.2C33.9,108.3,34,108.3,34,108.4"/>
				</g>
			</g>
			<g>
				<polygon class="st17" points="35.5,103.1 33.2,101.8 37.9,101.2 40.1,102.4 				"/>
			</g>
			<g>
				<polygon class="st9" points="35.5,104.8 33.2,103.5 33.2,101.8 35.5,103.1 				"/>
			</g>
			<g class="st1">
				<defs>
					<path id="SVGID_73_" class="st1" d="M26.7,120.4l-2.3-1.2c-2.1-1.1-3.3-3.6-3.3-7.1c0-4.7,3.2-9.3,7.6-9.9
						c1.3-0.2,2.3,0,3.2,0.5l2.3,1.2c-0.9-0.5-1.9-0.7-3.2-0.5c-4.3,0.6-7.6,5.2-7.6,9.9C23.4,116.8,24.6,119.2,26.7,120.4z"/>
				</defs>
				<clipPath id="SVGID_74_">
					<use xlink:href="#SVGID_73_"  style="overflow:visible;"/>
				</clipPath>
				<g class="st51">
					<path class="st13" d="M26.7,120.4l-2.3-1.2c-0.1,0-0.2-0.1-0.3-0.2l2.3,1.2C26.5,120.3,26.6,120.3,26.7,120.4"/>
					<path class="st12" d="M26.4,120.2l-2.3-1.2c-0.1-0.1-0.3-0.2-0.4-0.3l2.3,1.2C26.1,120,26.3,120.1,26.4,120.2"/>
					<path class="st12" d="M26,119.9l-2.3-1.2c-0.1-0.1-0.2-0.2-0.3-0.3l2.3,1.2C25.8,119.8,25.9,119.9,26,119.9"/>
					<path class="st11" d="M25.7,119.7l-2.3-1.2c-0.1-0.1-0.2-0.2-0.3-0.3l2.3,1.2C25.5,119.5,25.6,119.6,25.7,119.7"/>
					<path class="st11" d="M25.4,119.4l-2.3-1.2c-0.1-0.1-0.2-0.2-0.2-0.3l2.3,1.2C25.2,119.2,25.3,119.3,25.4,119.4"/>
					<path class="st10" d="M25.2,119.2l-2.3-1.2c-0.1-0.1-0.2-0.2-0.2-0.3l2.3,1.2C25,119,25.1,119.1,25.2,119.2"/>
					<path class="st9" d="M24.9,118.9l-2.3-1.2c-0.1-0.1-0.1-0.2-0.2-0.3l2.3,1.2C24.8,118.7,24.9,118.8,24.9,118.9"/>
					<path class="st9" d="M24.7,118.6l-2.3-1.2c-0.1-0.1-0.1-0.2-0.2-0.3l2.3,1.2C24.6,118.4,24.7,118.5,24.7,118.6"/>
					<path class="st8" d="M24.5,118.3l-2.3-1.2c-0.1-0.1-0.1-0.2-0.2-0.3l2.3,1.2C24.4,118.1,24.5,118.2,24.5,118.3"/>
					<path class="st8" d="M24.4,118l-2.3-1.2c-0.1-0.1-0.1-0.2-0.2-0.3l2.3,1.2C24.2,117.7,24.3,117.9,24.4,118"/>
					<path class="st7" d="M24.2,117.6l-2.3-1.2c-0.1-0.1-0.1-0.2-0.2-0.4l2.3,1.2C24.1,117.4,24.1,117.5,24.2,117.6"/>
					<path class="st7" d="M24,117.2l-2.3-1.2c-0.1-0.1-0.1-0.3-0.1-0.4l2.3,1.2C23.9,117,24,117.1,24,117.2"/>
					<path class="st6" d="M23.9,116.8l-2.3-1.2c-0.1-0.2-0.1-0.3-0.1-0.5l2.3,1.2C23.8,116.5,23.8,116.7,23.9,116.8"/>
					<path class="st6" d="M23.7,116.4l-2.3-1.2c0-0.2-0.1-0.3-0.1-0.5l2.3,1.2C23.7,116,23.7,116.2,23.7,116.4"/>
					<path class="st5" d="M23.6,115.9l-2.3-1.2c0-0.2-0.1-0.4-0.1-0.6l2.3,1.2C23.5,115.5,23.6,115.7,23.6,115.9"/>
					<path class="st5" d="M23.5,115.3l-2.3-1.2c0-0.2-0.1-0.5-0.1-0.7l2.3,1.2C23.4,114.8,23.5,115,23.5,115.3"/>
					<path class="st4" d="M23.4,114.5l-2.3-1.2c0-0.3,0-0.6-0.1-0.9l2.3,1.2C23.4,113.9,23.4,114.2,23.4,114.5"/>
					<path class="st4" d="M23.4,113.6l-2.3-1.2c0-0.1,0-0.2,0-0.3c0-0.2,0-0.5,0-0.7l2.3,1.2c0,0.2,0,0.5,0,0.7
						C23.4,113.4,23.4,113.5,23.4,113.6"/>
					<path class="st3" d="M23.4,112.6l-2.3-1.2c0.3-4.4,3.4-8.6,7.6-9.2c1.3-0.2,2.3,0,3.2,0.5l2.3,1.2c-0.9-0.5-1.9-0.7-3.2-0.5
						C26.8,103.9,23.7,108.1,23.4,112.6"/>
				</g>
			</g>
			<g>
				<path class="st20" d="M35.5,103.1l4.7-0.7l0,16.9l-4.8,0.7l0-1.6c-0.1,0.1-1.7,2.3-4.7,2.7c-4.3,0.6-7.3-2.3-7.3-7.7
					c0-4.7,3.2-9.3,7.6-9.9c1.9-0.3,3.1,0.2,4.5,1.4L35.5,103.1z M31.7,116.3c2.1-0.3,3.9-2.2,3.9-4.7c0-2.5-1.6-3.9-3.7-3.7
					c-2.3,0.3-3.7,2.3-3.7,4.6C28.2,114.8,29.5,116.6,31.7,116.3"/>
			</g>
		</g>
		<g class="st1">
			<g class="st1">
				<defs>
					<path id="SVGID_75_" class="st1" d="M49.1,119l-2.3-1.2c0.4,0.2,1,0.2,1.6,0.1c1.7-0.2,3.2-1.3,3.2-3.1c0-0.4,0-0.8,0-1.3
						l2.3,1.2c0.1,0.4,0,0.8,0,1.3c0,1.8-1.5,2.9-3.2,3.1C50.1,119.3,49.6,119.3,49.1,119z"/>
				</defs>
				<clipPath id="SVGID_76_">
					<use xlink:href="#SVGID_75_"  style="overflow:visible;"/>
				</clipPath>
				<g class="st52">
					<path class="st3" d="M49.1,119l-2.3-1.2c0.4,0.2,1,0.2,1.6,0.1c1.6-0.2,3.1-1.2,3.2-2.9l2.3,1.2c-0.1,1.7-1.6,2.7-3.2,2.9
						C50.1,119.3,49.6,119.3,49.1,119"/>
					<path class="st4" d="M53.9,116.3l-2.3-1.2c0-0.1,0-0.1,0-0.2c0-0.3,0-0.5,0-0.8l2.3,1.2c0,0.3,0,0.5,0,0.8
						C54,116.1,54,116.2,53.9,116.3"/>
					<path class="st4" d="M54,115.3l-2.3-1.2c0-0.1,0-0.2,0-0.4l2.3,1.2C54,115.1,54,115.2,54,115.3"/>
					<path class="st5" d="M53.9,115l-2.3-1.2c0,0,0-0.1,0-0.1l2.3,1.2C53.9,114.9,53.9,114.9,53.9,115"/>
				</g>
			</g>
			<g class="st1">
				<defs>
					<path id="SVGID_77_" class="st1" d="M48.8,112.7l-2.3-1.2c0.5,0.3,1.1,0.4,1.7,0.3l2.3,1.2C49.9,113,49.3,112.9,48.8,112.7z"/>
				</defs>
				<clipPath id="SVGID_78_">
					<use xlink:href="#SVGID_77_"  style="overflow:visible;"/>
				</clipPath>
				<g class="st53">
					<path class="st3" d="M48.8,112.7l-2.3-1.2c0.5,0.3,1.1,0.4,1.7,0.3l2.3,1.2C49.9,113,49.3,112.9,48.8,112.7"/>
				</g>
			</g>
			<g class="st1">
				<defs>
					<path id="SVGID_79_" class="st1" d="M50.4,104l2.3,1.2c1,0.6,1.5,1.8,1.5,3.3c0,1.9-1.3,4.1-3.6,4.4l-2.3-1.2
						c2.4-0.3,3.6-2.5,3.6-4.4C51.9,105.8,51.4,104.6,50.4,104z"/>
				</defs>
				<clipPath id="SVGID_80_">
					<use xlink:href="#SVGID_79_"  style="overflow:visible;"/>
				</clipPath>
				<g class="st54">
					<path class="st3" d="M50.5,113l-2.3-1.2c2.2-0.3,3.5-2.3,3.6-4.2l2.3,1.2C54.1,110.6,52.8,112.6,50.5,113"/>
					<path class="st4" d="M54.2,108.8l-2.3-1.2c0-0.1,0-0.2,0-0.3c0,0,0-0.1,0-0.1l2.3,1.2c0,0,0,0.1,0,0.1
						C54.2,108.6,54.2,108.7,54.2,108.8"/>
					<path class="st4" d="M54.2,108.4l-2.3-1.2c0-0.1,0-0.3,0-0.4l2.3,1.2C54.2,108.1,54.2,108.2,54.2,108.4"/>
					<path class="st5" d="M54.2,108l-2.3-1.2c0-0.1,0-0.2,0-0.3l2.3,1.2C54.1,107.7,54.2,107.8,54.2,108"/>
					<path class="st5" d="M54.1,107.6l-2.3-1.2c0-0.1,0-0.2-0.1-0.3l2.3,1.2C54.1,107.4,54.1,107.5,54.1,107.6"/>
					<path class="st6" d="M54.1,107.3l-2.3-1.2c0-0.1,0-0.2-0.1-0.2l2.3,1.2C54,107.2,54.1,107.3,54.1,107.3"/>
					<path class="st6" d="M54,107.1l-2.3-1.2c0-0.1,0-0.1-0.1-0.2l2.3,1.2C54,107,54,107,54,107.1"/>
					<path class="st7" d="M54,106.9l-2.3-1.2c0-0.1,0-0.1-0.1-0.2l2.3,1.2C53.9,106.8,53.9,106.8,54,106.9"/>
					<path class="st7" d="M53.9,106.7l-2.3-1.2c0-0.1,0-0.1-0.1-0.2l2.3,1.2C53.8,106.6,53.9,106.6,53.9,106.7"/>
					<path class="st8" d="M53.8,106.5l-2.3-1.2c0-0.1-0.1-0.1-0.1-0.2l2.3,1.2C53.8,106.4,53.8,106.5,53.8,106.5"/>
					<path class="st8" d="M53.7,106.4l-2.3-1.2c0-0.1-0.1-0.1-0.1-0.1l2.3,1.2C53.7,106.3,53.7,106.3,53.7,106.4"/>
					<path class="st9" d="M53.6,106.2l-2.3-1.2c0,0-0.1-0.1-0.1-0.1l2.3,1.2C53.6,106.1,53.6,106.2,53.6,106.2"/>
					<path class="st9" d="M53.6,106.1l-2.3-1.2c0,0-0.1-0.1-0.1-0.1l2.3,1.2C53.5,106,53.5,106,53.6,106.1"/>
					<path class="st10" d="M53.5,106l-2.3-1.2c0,0-0.1-0.1-0.1-0.1l2.3,1.2C53.4,105.9,53.4,105.9,53.5,106"/>
					<path class="st11" d="M53.4,105.8l-2.3-1.2c0,0-0.1-0.1-0.1-0.1l2.3,1.2C53.3,105.7,53.3,105.8,53.4,105.8"/>
					<path class="st11" d="M53.2,105.7l-2.3-1.2c0,0-0.1-0.1-0.1-0.1l2.3,1.2C53.2,105.6,53.2,105.7,53.2,105.7"/>
					<path class="st12" d="M53.1,105.6l-2.3-1.2c0,0-0.1-0.1-0.2-0.1l2.3,1.2C53,105.5,53.1,105.5,53.1,105.6"/>
					<path class="st12" d="M53,105.5l-2.3-1.2c-0.1,0-0.1-0.1-0.2-0.1l2.3,1.2C52.8,105.4,52.9,105.4,53,105.5"/>
					<path class="st13" d="M52.8,105.3l-2.3-1.2c0,0-0.1-0.1-0.1-0.1l2.3,1.2C52.7,105.3,52.7,105.3,52.8,105.3"/>
				</g>
			</g>
			<g>
				<polygon class="st17" points="54.2,100.4 51.9,99.2 56.4,98.5 58.7,99.8 				"/>
			</g>
			<g>
				<polygon class="st9" points="54.2,102.3 51.9,101.1 51.9,99.2 54.2,100.4 				"/>
			</g>
			<g class="st1">
				<defs>
					<path id="SVGID_81_" class="st1" d="M45.7,123l-2.3-1.2c-1.5-0.8-2.5-2.1-2.7-4.1l2.3,1.2C43.2,120.8,44.2,122.2,45.7,123z"/>
				</defs>
				<clipPath id="SVGID_82_">
					<use xlink:href="#SVGID_81_"  style="overflow:visible;"/>
				</clipPath>
				<g class="st55">
					<path class="st13" d="M45.7,123l-2.3-1.2c-0.1-0.1-0.2-0.1-0.3-0.2l2.3,1.2C45.5,122.9,45.6,122.9,45.7,123"/>
					<path class="st12" d="M45.4,122.8l-2.3-1.2c-0.1-0.1-0.3-0.2-0.4-0.3l2.3,1.2C45.1,122.6,45.3,122.7,45.4,122.8"/>
					<path class="st12" d="M45,122.5l-2.3-1.2c-0.1-0.1-0.2-0.2-0.3-0.3l2.3,1.2C44.8,122.4,44.9,122.4,45,122.5"/>
					<path class="st11" d="M44.7,122.3l-2.3-1.2c-0.1-0.1-0.2-0.2-0.3-0.2l2.3,1.2C44.5,122.1,44.6,122.2,44.7,122.3"/>
					<path class="st11" d="M44.4,122l-2.3-1.2c-0.1-0.1-0.1-0.2-0.2-0.2l2.3,1.2C44.3,121.9,44.4,121.9,44.4,122"/>
					<path class="st10" d="M44.2,121.8l-2.3-1.2c-0.1-0.1-0.1-0.2-0.2-0.2l2.3,1.2C44.1,121.6,44.1,121.7,44.2,121.8"/>
					<path class="st9" d="M44,121.6l-2.3-1.2c-0.1-0.1-0.1-0.2-0.2-0.2l2.3,1.2C43.9,121.4,44,121.5,44,121.6"/>
					<path class="st9" d="M43.8,121.3l-2.3-1.2c-0.1-0.1-0.1-0.2-0.1-0.2l2.3,1.2C43.7,121.2,43.8,121.2,43.8,121.3"/>
					<path class="st8" d="M43.7,121.1l-2.3-1.2c0-0.1-0.1-0.2-0.1-0.2l2.3,1.2C43.6,120.9,43.7,121,43.7,121.1"/>
					<path class="st8" d="M43.6,120.8l-2.3-1.2c0-0.1-0.1-0.2-0.1-0.3l2.3,1.2C43.5,120.7,43.5,120.8,43.6,120.8"/>
					<path class="st7" d="M43.4,120.6l-2.3-1.2c0-0.1-0.1-0.2-0.1-0.3l2.3,1.2C43.4,120.4,43.4,120.5,43.4,120.6"/>
					<path class="st7" d="M43.3,120.3l-2.3-1.2c0-0.1-0.1-0.2-0.1-0.3l2.3,1.2C43.3,120.1,43.3,120.2,43.3,120.3"/>
					<path class="st6" d="M43.2,120.1l-2.3-1.2c0-0.1-0.1-0.2-0.1-0.3l2.3,1.2C43.2,119.9,43.2,120,43.2,120.1"/>
					<path class="st6" d="M43.1,119.7l-2.3-1.2c0-0.1-0.1-0.2-0.1-0.3l2.3,1.2C43.1,119.5,43.1,119.6,43.1,119.7"/>
					<path class="st5" d="M43.1,119.4l-2.3-1.2c0-0.1-0.1-0.2-0.1-0.4L43,119C43,119.2,43,119.3,43.1,119.4"/>
					<path class="st5" d="M43,119l-2.3-1.2c0,0,0-0.1,0-0.1l2.3,1.2C43,119,43,119,43,119"/>
				</g>
			</g>
			<g class="st1">
				<defs>
					<path id="SVGID_83_" class="st1" d="M43,118.9l-2.3-1.2c0.2,0,4.1-0.6,5.3-0.7l2.3,1.2C47.1,118.3,43.2,118.9,43,118.9z"/>
				</defs>
				<clipPath id="SVGID_84_">
					<use xlink:href="#SVGID_83_"  style="overflow:visible;"/>
				</clipPath>
				<g class="st56">
					<path class="st3" d="M43,118.9l-2.3-1.2c0.2,0,4.1-0.6,5.3-0.7l2.3,1.2C47.1,118.3,43.2,118.9,43,118.9"/>
				</g>
			</g>
			<g class="st1">
				<defs>
					<path id="SVGID_85_" class="st1" d="M46,116.8l-2.3-1.2c-2-1.1-3.3-3.6-3.3-6.7c0-4.6,2.7-8.8,6.8-9.4c1.3-0.2,2.3,0,3.3,0.5
						l2.3,1.2c-0.9-0.5-2-0.7-3.3-0.5c-4.1,0.6-6.8,4.8-6.8,9.4C42.7,113.2,43.9,115.7,46,116.8z"/>
				</defs>
				<clipPath id="SVGID_86_">
					<use xlink:href="#SVGID_85_"  style="overflow:visible;"/>
				</clipPath>
				<g class="st57">
					<path class="st13" d="M46,116.8l-2.3-1.2c-0.1-0.1-0.2-0.1-0.3-0.2l2.3,1.2C45.8,116.7,45.9,116.8,46,116.8"/>
					<path class="st12" d="M45.7,116.7l-2.3-1.2c-0.1-0.1-0.3-0.2-0.4-0.3l2.3,1.2C45.4,116.5,45.6,116.6,45.7,116.7"/>
					<path class="st12" d="M45.3,116.4l-2.3-1.2c-0.1-0.1-0.2-0.2-0.3-0.3l2.3,1.2C45.1,116.2,45.2,116.3,45.3,116.4"/>
					<path class="st11" d="M45,116.1l-2.3-1.2c-0.1-0.1-0.2-0.2-0.3-0.3l2.3,1.2C44.8,116,44.9,116,45,116.1"/>
					<path class="st11" d="M44.7,115.9l-2.3-1.2c-0.1-0.1-0.2-0.2-0.3-0.3l2.3,1.2C44.5,115.7,44.6,115.8,44.7,115.9"/>
					<path class="st10" d="M44.4,115.6l-2.3-1.2c-0.1-0.1-0.2-0.2-0.2-0.3l2.3,1.2C44.3,115.4,44.4,115.5,44.4,115.6"/>
					<path class="st9" d="M44.2,115.3l-2.3-1.2c-0.1-0.1-0.1-0.2-0.2-0.3L44,115C44.1,115.1,44.1,115.2,44.2,115.3"/>
					<path class="st9" d="M44,115l-2.3-1.2c-0.1-0.1-0.1-0.2-0.2-0.3l2.3,1.2C43.9,114.8,43.9,114.9,44,115"/>
					<path class="st8" d="M43.8,114.7l-2.3-1.2c-0.1-0.1-0.1-0.2-0.2-0.3l2.3,1.2C43.7,114.5,43.7,114.6,43.8,114.7"/>
					<path class="st8" d="M43.6,114.4l-2.3-1.2c-0.1-0.1-0.1-0.2-0.2-0.3l2.3,1.2C43.5,114.2,43.6,114.3,43.6,114.4"/>
					<path class="st7" d="M43.5,114l-2.3-1.2c-0.1-0.1-0.1-0.2-0.2-0.4l2.3,1.2C43.3,113.8,43.4,113.9,43.5,114"/>
					<path class="st7" d="M43.3,113.7l-2.3-1.2c-0.1-0.1-0.1-0.3-0.1-0.4l2.3,1.2C43.2,113.4,43.2,113.5,43.3,113.7"/>
					<path class="st6" d="M43.2,113.3l-2.3-1.2c0-0.1-0.1-0.3-0.1-0.4l2.3,1.2C43.1,113,43.1,113.1,43.2,113.3"/>
					<path class="st6" d="M43,112.8l-2.3-1.2c0-0.2-0.1-0.3-0.1-0.5l2.3,1.2C42.9,112.5,43,112.7,43,112.8"/>
					<path class="st5" d="M42.9,112.3l-2.3-1.2c0-0.2-0.1-0.4-0.1-0.5l2.3,1.2C42.8,112,42.9,112.2,42.9,112.3"/>
					<path class="st5" d="M42.8,111.8l-2.3-1.2c0-0.2-0.1-0.4-0.1-0.6l2.3,1.2C42.7,111.4,42.8,111.6,42.8,111.8"/>
					<path class="st4" d="M42.7,111.2l-2.3-1.2c0-0.3,0-0.5,0-0.8l2.3,1.2C42.7,110.6,42.7,110.9,42.7,111.2"/>
					<path class="st4" d="M42.7,110.4l-2.3-1.2c0-0.1,0-0.2,0-0.2c0-0.3,0-0.5,0-0.8l2.3,1.2c0,0.3,0,0.5,0,0.8
						C42.7,110.2,42.7,110.3,42.7,110.4"/>
					<path class="st3" d="M42.7,109.4l-2.3-1.2c0.3-4.3,2.9-8.1,6.8-8.6c1.3-0.2,2.3,0,3.3,0.5l2.3,1.2c-0.9-0.5-2-0.7-3.3-0.5
						C45.6,101.3,43,105.1,42.7,109.4"/>
				</g>
			</g>
			<g>
				<path class="st20" d="M54.2,100.4l4.5-0.6c0,0.7,0,14,0,14.9c0,5.2-3.7,8.4-8,9.1c-3.8,0.5-7.2-1.1-7.7-4.8
					c0.2,0,4.1-0.6,5.3-0.7c0.7,1.1,1.3,1.2,2.5,1c1.7-0.2,3.2-1.3,3.2-3.1c0-0.4,0-0.8,0-1.3c-0.9,1-2.6,2.3-4.5,2.6
					c-4,0.6-6.8-2.7-6.8-7.3c0-4.6,2.7-8.8,6.8-9.4c2-0.3,3.3,0.2,4.7,1.6L54.2,100.4z M50.5,113c2.4-0.3,3.6-2.5,3.6-4.4
					c0-2.3-1.2-3.9-3.6-3.6c-2.2,0.3-3.3,2.4-3.3,4.5C47.3,111.6,48.5,113.2,50.5,113"/>
			</g>
		</g>
		<g class="st1">
			<g class="st1">
				<defs>
					<path id="SVGID_87_" class="st1" d="M73,108.3l-2.3-1.2c0.1,0.1,2.8,1.4,3.7,1.8l2.3,1.2C75.8,109.7,73.1,108.4,73,108.3z"/>
				</defs>
				<clipPath id="SVGID_88_">
					<use xlink:href="#SVGID_87_"  style="overflow:visible;"/>
				</clipPath>
				<g class="st58">
					<path class="st3" d="M73,108.3l-2.3-1.2c0.1,0.1,2.8,1.4,3.7,1.8l2.3,1.2C75.8,109.7,73.1,108.4,73,108.3"/>
				</g>
			</g>
			<g class="st1">
				<defs>
					<path id="SVGID_89_" class="st1" d="M67.4,110.8l-2.3-1.2c0.6,0.3,1.4,0.4,2.2,0.3c1.6-0.2,2.6-1.5,3.4-2.8l2.3,1.2
						c-0.8,1.3-1.8,2.6-3.4,2.8C68.8,111.2,68,111.1,67.4,110.8z"/>
				</defs>
				<clipPath id="SVGID_90_">
					<use xlink:href="#SVGID_89_"  style="overflow:visible;"/>
				</clipPath>
				<g class="st59">
					<path class="st3" d="M67.4,110.8l-2.3-1.2c0.6,0.3,1.4,0.4,2.2,0.3c1.6-0.2,2.6-1.5,3.4-2.8l2.3,1.2c-0.8,1.3-1.8,2.6-3.4,2.8
						C68.8,111.2,68,111.1,67.4,110.8"/>
				</g>
			</g>
			<g class="st1">
				<defs>
					<path id="SVGID_91_" class="st1" d="M68.5,101.2l2.3,1.2c0.6,0.3,1,0.9,1.3,1.8l-2.3-1.2C69.4,102.1,69,101.5,68.5,101.2z"/>
				</defs>
				<clipPath id="SVGID_92_">
					<use xlink:href="#SVGID_91_"  style="overflow:visible;"/>
				</clipPath>
				<g class="st60">
					<path class="st7" d="M72,104.3l-2.3-1.2c0-0.1-0.1-0.1-0.1-0.2L72,104C72,104.1,72,104.2,72,104.3"/>
					<path class="st7" d="M72,104l-2.3-1.2c0-0.1-0.1-0.2-0.1-0.3l2.3,1.2C71.9,103.9,71.9,104,72,104"/>
					<path class="st8" d="M71.8,103.8l-2.3-1.2c0-0.1-0.1-0.2-0.1-0.2l2.3,1.2C71.8,103.6,71.8,103.7,71.8,103.8"/>
					<path class="st8" d="M71.7,103.6l-2.3-1.2c0-0.1-0.1-0.1-0.1-0.2l2.3,1.2C71.7,103.4,71.7,103.5,71.7,103.6"/>
					<path class="st9" d="M71.6,103.4l-2.3-1.2c0-0.1-0.1-0.1-0.1-0.2l2.3,1.2C71.6,103.3,71.6,103.3,71.6,103.4"/>
					<path class="st9" d="M71.5,103.2l-2.3-1.2c0,0-0.1-0.1-0.1-0.1l2.3,1.2C71.5,103.1,71.5,103.2,71.5,103.2"/>
					<path class="st10" d="M71.4,103.1l-2.3-1.2c0,0-0.1-0.1-0.1-0.1l2.3,1.2C71.4,103,71.4,103,71.4,103.1"/>
					<path class="st11" d="M71.3,103l-2.3-1.2c0,0-0.1-0.1-0.1-0.1l2.3,1.2C71.3,102.9,71.3,102.9,71.3,103"/>
					<path class="st11" d="M71.2,102.8l-2.3-1.2c0,0-0.1-0.1-0.1-0.1l2.3,1.2C71.2,102.8,71.2,102.8,71.2,102.8"/>
					<path class="st12" d="M71.1,102.7l-2.3-1.2c0,0-0.1-0.1-0.1-0.1l2.3,1.2C71,102.7,71.1,102.7,71.1,102.7"/>
					<path class="st12" d="M71,102.6l-2.3-1.2c0,0-0.1-0.1-0.1-0.1l2.3,1.2C70.9,102.6,70.9,102.6,71,102.6"/>
					<path class="st13" d="M70.9,102.5l-2.3-1.2c0,0-0.1,0-0.1-0.1L70.9,102.5C70.8,102.5,70.8,102.5,70.9,102.5"/>
				</g>
			</g>
			<g class="st1">
				<defs>
					<path id="SVGID_93_" class="st1" d="M66.1,105.1l-2.3-1.2c0.3,0,5.4-0.8,5.9-0.8l2.3,1.2C71.5,104.3,66.4,105.1,66.1,105.1z"/>
				</defs>
				<clipPath id="SVGID_94_">
					<use xlink:href="#SVGID_93_"  style="overflow:visible;"/>
				</clipPath>
				<g class="st61">
					<path class="st3" d="M66.1,105.1l-2.3-1.2c0.3,0,5.4-0.8,5.9-0.8l2.3,1.2C71.5,104.3,66.4,105.1,66.1,105.1"/>
				</g>
			</g>
			<g>
				<path class="st20" d="M76.9,106.1c0,0.4,0,0.6,0,1c-0.5,0.1-10.6,1.5-11,1.5c0.4,1.9,1.9,2.7,3.7,2.5c1.6-0.2,2.6-1.5,3.4-2.8
					c0.1,0.1,2.8,1.4,3.7,1.8c-1.4,2.8-4,5-7.3,5.4c-4.8,0.7-8.1-2-8.1-7.7c0-5.1,3.4-9.3,8-9.9C73.7,97.3,76.9,100.1,76.9,106.1z
					 M66.1,105.1c0.3,0,5.4-0.8,5.9-0.8c-0.6-1.5-1.4-2.2-2.8-2C67.6,102.5,66.7,103.4,66.1,105.1"/>
			</g>
			<g class="st1">
				<defs>
					<path id="SVGID_95_" class="st1" d="M64.6,114.9l-2.3-1.2c-2.1-1.1-3.3-3.5-3.3-7c0-5.1,3.4-9.3,8-9.9c1.6-0.2,3.1,0,4.3,0.6
						l2.3,1.2c-1.2-0.6-2.6-0.9-4.3-0.6c-4.6,0.6-8,4.8-8,9.9C61.2,111.4,62.5,113.7,64.6,114.9z"/>
				</defs>
				<clipPath id="SVGID_96_">
					<use xlink:href="#SVGID_95_"  style="overflow:visible;"/>
				</clipPath>
				<g class="st62">
					<path class="st13" d="M64.6,114.9l-2.3-1.2c-0.1-0.1-0.2-0.1-0.3-0.2l2.3,1.2C64.4,114.8,64.5,114.8,64.6,114.9"/>
					<path class="st12" d="M64.3,114.7l-2.3-1.2c-0.1-0.1-0.3-0.2-0.4-0.3l2.3,1.2C64,114.5,64.1,114.6,64.3,114.7"/>
					<path class="st12" d="M63.9,114.4l-2.3-1.2c-0.1-0.1-0.2-0.2-0.3-0.3l2.3,1.2C63.7,114.2,63.8,114.3,63.9,114.4"/>
					<path class="st11" d="M63.5,114.1l-2.3-1.2c-0.1-0.1-0.2-0.2-0.3-0.3l2.3,1.2C63.4,114,63.4,114.1,63.5,114.1"/>
					<path class="st11" d="M63.3,113.9l-2.3-1.2c-0.1-0.1-0.2-0.2-0.3-0.3l2.3,1.2C63.1,113.7,63.2,113.8,63.3,113.9"/>
					<path class="st10" d="M63,113.6l-2.3-1.2c-0.1-0.1-0.2-0.2-0.2-0.3l2.3,1.2C62.9,113.4,62.9,113.5,63,113.6"/>
					<path class="st9" d="M62.8,113.3l-2.3-1.2c-0.1-0.1-0.1-0.2-0.2-0.3l2.3,1.2C62.7,113.1,62.7,113.2,62.8,113.3"/>
					<path class="st9" d="M62.6,113l-2.3-1.2c-0.1-0.1-0.1-0.2-0.2-0.3l2.3,1.2C62.5,112.8,62.5,112.9,62.6,113"/>
					<path class="st8" d="M62.4,112.7l-2.3-1.2c-0.1-0.1-0.1-0.2-0.2-0.3l2.3,1.2C62.3,112.5,62.3,112.6,62.4,112.7"/>
					<path class="st8" d="M62.2,112.4l-2.3-1.2c-0.1-0.1-0.1-0.2-0.2-0.3l2.3,1.2C62.1,112.2,62.2,112.3,62.2,112.4"/>
					<path class="st7" d="M62.1,112.1l-2.3-1.2c-0.1-0.1-0.1-0.2-0.2-0.4l2.3,1.2C62,111.9,62,112,62.1,112.1"/>
					<path class="st7" d="M61.9,111.7l-2.3-1.2c-0.1-0.1-0.1-0.3-0.1-0.4l2.3,1.2C61.8,111.5,61.8,111.6,61.9,111.7"/>
					<path class="st6" d="M61.8,111.3l-2.3-1.2c0-0.1-0.1-0.3-0.1-0.4l2.3,1.2C61.7,111.1,61.7,111.2,61.8,111.3"/>
					<path class="st6" d="M61.6,110.9l-2.3-1.2c0-0.2-0.1-0.3-0.1-0.5l2.3,1.2C61.5,110.6,61.6,110.7,61.6,110.9"/>
					<path class="st5" d="M61.5,110.4l-2.3-1.2c0-0.2-0.1-0.4-0.1-0.6l2.3,1.2C61.4,110,61.5,110.2,61.5,110.4"/>
					<path class="st5" d="M61.4,109.8l-2.3-1.2c0-0.2-0.1-0.5-0.1-0.7l2.3,1.2C61.3,109.3,61.4,109.6,61.4,109.8"/>
					<path class="st4" d="M61.3,109.1l-2.3-1.2c0-0.3,0-0.6-0.1-0.9l2.3,1.2C61.3,108.5,61.3,108.8,61.3,109.1"/>
					<path class="st4" d="M61.3,108.2l-2.3-1.2c0-0.1,0-0.2,0-0.3c0-0.3,0-0.5,0-0.7l2.3,1.2c0,0.2,0,0.5,0,0.7
						C61.2,108,61.2,108.1,61.3,108.2"/>
					<path class="st3" d="M61.3,107.1l-2.3-1.2c0.3-4.8,3.6-8.5,8-9.2c1.6-0.2,3.1,0,4.3,0.6l2.3,1.2c-1.2-0.6-2.6-0.9-4.3-0.6
						C64.9,98.6,61.6,102.4,61.3,107.1"/>
				</g>
			</g>
		</g>
		<g class="st1">
			<g class="st1">
				<defs>
					<path id="SVGID_97_" class="st1" d="M86.4,99l2.3,1.2c0.7,0.4,0.9,1.3,0.9,2.2c0,1.1,0,9.4,0,9.9l-2.3-1.2c0-0.4,0-8.7,0-9.9
						C87.3,100.3,87.1,99.4,86.4,99z"/>
				</defs>
				<clipPath id="SVGID_98_">
					<use xlink:href="#SVGID_97_"  style="overflow:visible;"/>
				</clipPath>
				<g class="st63">
					<path class="st4" d="M89.5,112.3l-2.3-1.2c0-0.4,0-8.7,0-9.9c0-0.1,0-0.1,0-0.2l2.3,1.2c0,0.1,0,0.1,0,0.2
						C89.6,103.6,89.5,111.9,89.5,112.3"/>
					<path class="st4" d="M89.6,102.3l-2.3-1.2c0-0.1,0-0.3,0-0.4l2.3,1.2C89.5,102,89.6,102.1,89.6,102.3"/>
					<path class="st5" d="M89.5,101.8l-2.3-1.2c0-0.1,0-0.2,0-0.3l2.3,1.2C89.5,101.7,89.5,101.8,89.5,101.8"/>
					<path class="st5" d="M89.5,101.6l-2.3-1.2c0-0.1,0-0.1,0-0.2l2.3,1.2C89.5,101.5,89.5,101.5,89.5,101.6"/>
					<path class="st6" d="M89.5,101.4l-2.3-1.2c0-0.1,0-0.1,0-0.2l2.3,1.2C89.4,101.3,89.5,101.3,89.5,101.4"/>
					<path class="st6" d="M89.4,101.2l-2.3-1.2c0,0,0-0.1,0-0.1l2.3,1.2C89.4,101.2,89.4,101.2,89.4,101.2"/>
					<path class="st7" d="M89.4,101.1l-2.3-1.2c0,0,0-0.1,0-0.1l2.3,1.2C89.4,101,89.4,101.1,89.4,101.1"/>
					<path class="st7" d="M89.4,101l-2.3-1.2c0,0,0-0.1,0-0.1L89.4,101C89.3,100.9,89.3,101,89.4,101"/>
					<path class="st8" d="M89.3,100.9L87,99.7c0,0,0-0.1,0-0.1L89.3,100.9C89.3,100.9,89.3,100.9,89.3,100.9"/>
					<path class="st8" d="M89.3,100.8L87,99.6c0,0,0-0.1,0-0.1L89.3,100.8C89.2,100.8,89.3,100.8,89.3,100.8"/>
					<path class="st9" d="M89.2,100.7l-2.3-1.2c0,0,0,0,0-0.1L89.2,100.7C89.2,100.7,89.2,100.7,89.2,100.7"/>
					<path class="st9" d="M89.2,100.7l-2.3-1.2c0,0,0,0-0.1-0.1L89.2,100.7C89.1,100.6,89.2,100.7,89.2,100.7"/>
					<path class="st10" d="M89.1,100.6l-2.3-1.2c0,0,0,0-0.1-0.1L89.1,100.6C89.1,100.6,89.1,100.6,89.1,100.6"/>
					<path class="st11" d="M89.1,100.5l-2.3-1.2c0,0,0,0-0.1-0.1L89.1,100.5C89,100.5,89.1,100.5,89.1,100.5"/>
					<path class="st11" d="M89,100.5l-2.3-1.2c0,0,0,0-0.1-0.1L89,100.5C89,100.4,89,100.4,89,100.5"/>
					<path class="st12" d="M88.9,100.4l-2.3-1.2c0,0-0.1,0-0.1-0.1L88.9,100.4C88.9,100.4,88.9,100.4,88.9,100.4"/>
					<path class="st12" d="M88.9,100.3l-2.3-1.2c0,0-0.1,0-0.1-0.1l2.3,1.2C88.8,100.3,88.8,100.3,88.9,100.3"/>
					<path class="st13" d="M88.8,100.3L86.5,99c0,0,0,0-0.1,0L88.8,100.3C88.7,100.2,88.7,100.3,88.8,100.3"/>
				</g>
			</g>
			<g class="st1">
				<defs>
					<path id="SVGID_99_" class="st1" d="M89.8,94.5l2.3,1.2c-0.9-0.5-2-0.7-3.2-0.5L86.6,94C87.8,93.8,88.9,94,89.8,94.5z"/>
				</defs>
				<clipPath id="SVGID_100_">
					<use xlink:href="#SVGID_99_"  style="overflow:visible;"/>
				</clipPath>
				<g class="st64">
					<path class="st3" d="M88.8,95.2L86.6,94c1.2-0.2,2.3,0,3.2,0.5l2.3,1.2C91.1,95.3,90,95.1,88.8,95.2"/>
				</g>
			</g>
			<g class="st1">
				<defs>
					<path id="SVGID_101_" class="st1" d="M84.3,98.4L82,97.1c0.1-0.1,1.5-2.7,4.6-3.2l2.3,1.2C85.8,95.7,84.4,98.2,84.3,98.4z"/>
				</defs>
				<clipPath id="SVGID_102_">
					<use xlink:href="#SVGID_101_"  style="overflow:visible;"/>
				</clipPath>
				<g class="st65">
					<path class="st3" d="M84.3,98.4L82,97.1c0.1-0.1,1.5-2.7,4.6-3.2l2.3,1.2C85.8,95.7,84.4,98.2,84.3,98.4"/>
				</g>
			</g>
			<g>
				<path class="st20" d="M88.8,95.2c3.1-0.4,5.6,1.6,5.6,4.8c0,4,0,7.6,0,11.6l-4.9,0.7c0-0.4,0-8.7,0-9.9c0-1.4-0.3-2.7-2.4-2.4
					c-1.5,0.2-2.8,1.7-2.8,3.3c0,3.2,0,9.3,0,9.6l-4.8,0.7l0-16.9l4.7-0.7l0,2.2C84.4,98.2,85.8,95.7,88.8,95.2z"/>
			</g>
			<g>
				<polygon class="st9" points="79.5,113.7 77.2,112.5 77.3,95.6 79.6,96.9 				"/>
			</g>
			<g>
				<polygon class="st17" points="79.6,96.9 77.3,95.6 82,95 84.3,96.2 				"/>
			</g>
		</g>
		<g class="st1">
			<g class="st1">
				<defs>
					<path id="SVGID_103_" class="st1" d="M130.2,100l2.3,1.2c-0.5-0.2-1-0.3-1.6-0.3l-2.3-1.2C129.2,99.6,129.8,99.7,130.2,100z"/>
				</defs>
				<clipPath id="SVGID_104_">
					<use xlink:href="#SVGID_103_"  style="overflow:visible;"/>
				</clipPath>
				<g class="st66">
					<path class="st3" d="M131,100.9l-2.3-1.2c0.6-0.1,1.1,0,1.6,0.3l2.3,1.2C132.1,101,131.5,100.9,131,100.9"/>
				</g>
			</g>
			<g>
				<path class="st20" d="M131,100.9c1.6-0.2,2.9,1,2.9,2.7c0,1.7-1.3,3.3-2.9,3.6c-1.6,0.2-2.9-1-2.9-2.7
					C128,102.8,129.3,101.2,131,100.9z"/>
			</g>
			<g class="st1">
				<defs>
					<path id="SVGID_105_" class="st1" d="M129.4,107l-2.3-1.2c-0.8-0.4-1.4-1.4-1.4-2.5c0-1.7,1.3-3.3,2.9-3.6l2.3,1.2
						c-1.6,0.2-2.9,1.8-2.9,3.6C128,105.6,128.6,106.5,129.4,107z"/>
				</defs>
				<clipPath id="SVGID_106_">
					<use xlink:href="#SVGID_105_"  style="overflow:visible;"/>
				</clipPath>
				<g class="st67">
					<path class="st13" d="M129.4,107l-2.3-1.2c0,0-0.1,0-0.1-0.1l2.3,1.2C129.3,106.9,129.3,107,129.4,107"/>
					<path class="st12" d="M129.3,106.9l-2.3-1.2c-0.1,0-0.1-0.1-0.2-0.1l2.3,1.2C129.1,106.8,129.2,106.9,129.3,106.9"/>
					<path class="st12" d="M129.1,106.8l-2.3-1.2c-0.1,0-0.1-0.1-0.1-0.1l2.3,1.2C129,106.7,129,106.7,129.1,106.8"/>
					<path class="st11" d="M128.9,106.7l-2.3-1.2c0,0-0.1-0.1-0.1-0.1l2.3,1.2C128.8,106.6,128.9,106.6,128.9,106.7"/>
					<path class="st11" d="M128.8,106.5l-2.3-1.2c0,0-0.1-0.1-0.1-0.1l2.3,1.2C128.7,106.5,128.8,106.5,128.8,106.5"/>
					<path class="st10" d="M128.7,106.4l-2.3-1.2c0,0-0.1-0.1-0.1-0.1l2.3,1.2C128.6,106.3,128.7,106.4,128.7,106.4"/>
					<path class="st9" d="M128.6,106.3l-2.3-1.2c0,0-0.1-0.1-0.1-0.1l2.3,1.2C128.5,106.2,128.6,106.3,128.6,106.3"/>
					<path class="st9" d="M128.5,106.2l-2.3-1.2c0,0-0.1-0.1-0.1-0.1l2.3,1.2C128.5,106.1,128.5,106.1,128.5,106.2"/>
					<path class="st8" d="M128.4,106.1l-2.3-1.2c0,0,0-0.1-0.1-0.1l2.3,1.2C128.4,106,128.4,106,128.4,106.1"/>
					<path class="st8" d="M128.4,105.9l-2.3-1.2c0,0,0-0.1-0.1-0.1l2.3,1.2C128.3,105.8,128.3,105.9,128.4,105.9"/>
					<path class="st7" d="M128.3,105.8l-2.3-1.2c0,0,0-0.1-0.1-0.1l2.3,1.2C128.3,105.7,128.3,105.7,128.3,105.8"/>
					<path class="st7" d="M128.2,105.7l-2.3-1.2c0,0,0-0.1-0.1-0.1l2.3,1.2C128.2,105.6,128.2,105.6,128.2,105.7"/>
					<path class="st6" d="M128.2,105.5l-2.3-1.2c0-0.1,0-0.1,0-0.2l2.3,1.2C128.1,105.4,128.2,105.5,128.2,105.5"/>
					<path class="st6" d="M128.1,105.4l-2.3-1.2c0-0.1,0-0.1,0-0.2l2.3,1.2C128.1,105.3,128.1,105.3,128.1,105.4"/>
					<path class="st5" d="M128.1,105.2l-2.3-1.2c0-0.1,0-0.1,0-0.2l2.3,1.2C128.1,105.1,128.1,105.1,128.1,105.2"/>
					<path class="st5" d="M128.1,105l-2.3-1.2c0-0.1,0-0.1,0-0.2l2.3,1.2C128,104.9,128,105,128.1,105"/>
					<path class="st4" d="M128,104.8l-2.3-1.2c0-0.1,0-0.2,0-0.2l2.3,1.2C128,104.7,128,104.7,128,104.8"/>
					<path class="st4" d="M128,104.6l-2.3-1.2c0,0,0,0,0-0.1c0-0.1,0-0.2,0-0.2l2.3,1.2C128,104.4,128,104.4,128,104.6
						C128,104.5,128,104.6,128,104.6"/>
					<path class="st3" d="M128,104.3l-2.3-1.2c0.1-1.6,1.4-3.1,2.9-3.3l2.3,1.2C129.4,101.2,128.1,102.6,128,104.3"/>
				</g>
			</g>
		</g>
		<g class="st1">
			<g>
				<polygon class="st5" points="112.7,115 110.5,113.8 114,105.1 116.3,106.3 				"/>
			</g>
			<g>
				<polygon class="st6" points="118.7,100.1 116.4,98.8 119.7,89.7 122,90.9 				"/>
			</g>
			<g>
				<polygon class="st17" points="122,90.9 119.7,89.7 124.6,89 126.9,90.2 				"/>
			</g>
			<g>
				<polygon class="st20" points="126.9,90.2 117.8,114.3 112.7,115 116.3,106.3 110,92.6 115.3,91.8 118.7,100.1 122,90.9 				"/>
			</g>
			<g>
				<polygon class="st13" points="116.3,106.3 114,105.1 107.7,91.3 110,92.6 				"/>
			</g>
			<g>
				<polygon class="st17" points="110,92.6 107.7,91.3 113,90.6 115.3,91.8 				"/>
			</g>
		</g>
		<g class="st1">
			<g class="st1">
				<defs>
					<path id="SVGID_107_" class="st1" d="M105.9,97l2.3,1.2c0.2,0.1,0.4,0.2,0.5,0.4l-2.3-1.2C106.3,97.2,106.1,97.1,105.9,97z"/>
				</defs>
				<clipPath id="SVGID_108_">
					<use xlink:href="#SVGID_107_"  style="overflow:visible;"/>
				</clipPath>
				<g class="st68">
					<path class="st11" d="M108.7,98.6l-2.3-1.2c0,0,0,0-0.1-0.1L108.7,98.6C108.6,98.5,108.7,98.5,108.7,98.6"/>
					<path class="st12" d="M108.6,98.5l-2.3-1.2c0,0-0.1-0.1-0.1-0.1l2.3,1.2C108.6,98.4,108.6,98.5,108.6,98.5"/>
					<path class="st12" d="M108.5,98.4l-2.3-1.2c-0.1,0-0.1-0.1-0.2-0.1l2.3,1.2C108.4,98.3,108.5,98.4,108.5,98.4"/>
					<path class="st13" d="M108.4,98.3l-2.3-1.2c-0.1,0-0.1-0.1-0.2-0.1l2.3,1.2C108.2,98.2,108.3,98.3,108.4,98.3"/>
				</g>
			</g>
			<g class="st1">
				<defs>
					<path id="SVGID_109_" class="st1" d="M103.2,105.4l-2.3-1.2c0.6,0.3,1.4,0.5,2.2,0.4c1.3-0.2,2.9-1.1,3.3-1.6l2.3,1.2
						c-0.5,0.5-2,1.4-3.3,1.6C104.6,105.9,103.9,105.7,103.2,105.4z"/>
				</defs>
				<clipPath id="SVGID_110_">
					<use xlink:href="#SVGID_109_"  style="overflow:visible;"/>
				</clipPath>
				<g class="st69">
					<path class="st3" d="M103.2,105.4l-2.3-1.2c0.6,0.3,1.4,0.5,2.2,0.4c1.3-0.2,2.9-1.1,3.3-1.6l2.3,1.2c-0.5,0.5-2,1.4-3.3,1.6
						C104.6,105.9,103.9,105.7,103.2,105.4"/>
				</g>
			</g>
			<g class="st1">
				<defs>
					<path id="SVGID_111_" class="st1" d="M105.1,92.9l-2.3-1.2c1.4-0.2,2.3-0.1,3.6,0.3l2.3,1.2C107.4,92.8,106.5,92.7,105.1,92.9z
						"/>
				</defs>
				<clipPath id="SVGID_112_">
					<use xlink:href="#SVGID_111_"  style="overflow:visible;"/>
				</clipPath>
				<g class="st70">
					<path class="st3" d="M105.1,92.9l-2.3-1.2c1.4-0.2,2.3-0.1,3.6,0.3l2.3,1.2C107.4,92.8,106.5,92.7,105.1,92.9"/>
				</g>
			</g>
			<g class="st1">
				<defs>
					<path id="SVGID_113_" class="st1" d="M100.4,109.8l-2.3-1.2c-2.2-1.2-3.5-3.7-3.5-6.8c0-4.9,3.3-9.4,8.2-10.1l2.3,1.2
						c-4.8,0.7-8.1,5.2-8.2,10.1C96.9,106.2,98.2,108.6,100.4,109.8z"/>
				</defs>
				<clipPath id="SVGID_114_">
					<use xlink:href="#SVGID_113_"  style="overflow:visible;"/>
				</clipPath>
				<g class="st71">
					<path class="st13" d="M100.4,109.8l-2.3-1.2c-0.1-0.1-0.2-0.1-0.3-0.2l2.3,1.2C100.2,109.7,100.3,109.8,100.4,109.8"/>
					<path class="st12" d="M100.1,109.7l-2.3-1.2c-0.2-0.1-0.3-0.2-0.4-0.3l2.3,1.2C99.8,109.5,100,109.6,100.1,109.7"/>
					<path class="st12" d="M99.7,109.3l-2.3-1.2c-0.1-0.1-0.2-0.2-0.4-0.3l2.3,1.2C99.4,109.2,99.5,109.3,99.7,109.3"/>
					<path class="st11" d="M99.3,109.1l-2.3-1.2c-0.1-0.1-0.2-0.2-0.3-0.3l2.3,1.2C99.1,108.9,99.2,109,99.3,109.1"/>
					<path class="st11" d="M99,108.8l-2.3-1.2c-0.1-0.1-0.2-0.2-0.3-0.3l2.3,1.2C98.8,108.6,98.9,108.7,99,108.8"/>
					<path class="st10" d="M98.7,108.5l-2.3-1.2c-0.1-0.1-0.2-0.2-0.2-0.3l2.3,1.2C98.6,108.3,98.6,108.4,98.7,108.5"/>
					<path class="st9" d="M98.5,108.2l-2.3-1.2c-0.1-0.1-0.2-0.2-0.2-0.3l2.3,1.2C98.3,108,98.4,108.1,98.5,108.2"/>
					<path class="st9" d="M98.3,107.9l-2.3-1.2c-0.1-0.1-0.1-0.2-0.2-0.3l2.3,1.2C98.1,107.6,98.2,107.7,98.3,107.9"/>
					<path class="st8" d="M98.1,107.5l-2.3-1.2c-0.1-0.1-0.1-0.2-0.2-0.3l2.3,1.2C97.9,107.3,98,107.4,98.1,107.5"/>
					<path class="st8" d="M97.9,107.2l-2.3-1.2c-0.1-0.1-0.1-0.2-0.2-0.4l2.3,1.2C97.8,107,97.8,107.1,97.9,107.2"/>
					<path class="st7" d="M97.7,106.8l-2.3-1.2c-0.1-0.1-0.1-0.2-0.2-0.4l2.3,1.2C97.6,106.6,97.6,106.7,97.7,106.8"/>
					<path class="st7" d="M97.5,106.5l-2.3-1.2c-0.1-0.1-0.1-0.3-0.1-0.4l2.3,1.2C97.4,106.2,97.5,106.3,97.5,106.5"/>
					<path class="st6" d="M97.4,106.1l-2.3-1.2c0-0.1-0.1-0.3-0.1-0.4l2.3,1.2C97.3,105.8,97.3,105.9,97.4,106.1"/>
					<path class="st6" d="M97.3,105.6l-2.3-1.2c0-0.2-0.1-0.3-0.1-0.5l2.3,1.2C97.2,105.3,97.2,105.5,97.3,105.6"/>
					<path class="st5" d="M97.1,105.2l-2.3-1.2c0-0.2-0.1-0.4-0.1-0.5l2.3,1.2C97.1,104.8,97.1,105,97.1,105.2"/>
					<path class="st5" d="M97,104.6l-2.3-1.2c0-0.2-0.1-0.4-0.1-0.6L97,104C97,104.2,97,104.4,97,104.6"/>
					<path class="st4" d="M97,104l-2.3-1.2c0-0.2,0-0.5,0-0.8l2.3,1.2C96.9,103.5,96.9,103.8,97,104"/>
					<path class="st4" d="M96.9,103.2l-2.3-1.2c0-0.1,0-0.2,0-0.2c0-0.2,0-0.5,0-0.7l2.3,1.2c0,0.2,0,0.5,0,0.7
						C96.9,103.1,96.9,103.2,96.9,103.2"/>
					<path class="st3" d="M96.9,102.3l-2.3-1.2c0.3-4.6,3.5-8.7,8.1-9.4l2.3,1.2C100.5,93.6,97.3,97.7,96.9,102.3"/>
				</g>
			</g>
			<g>
				<path class="st20" d="M105.1,92.9c1.4-0.2,2.3-0.1,3.6,0.3c0,0.2,0,4.3,0,5.3c-0.5-0.5-2.1-1.1-3.4-0.9
					c-2.1,0.3-3.6,2.6-3.6,4.8c0,2.3,1.7,3.6,3.8,3.3c1.3-0.2,2.9-1.1,3.3-1.6l0,4.9c-0.1,0.1-2.3,1.3-3.8,1.5
					c-4.8,0.7-8.1-2.6-8-7.5C96.9,98.1,100.2,93.6,105.1,92.9z"/>
			</g>
		</g>
	</g>
</g>
</svg>
