<?xml version="1.0" encoding="utf-8"?>
<!-- Generator: Adobe Illustrator 21.1.0, SVG Export Plug-In . SVG Version: 6.00 Build 0)  -->
<svg version="1.1" id="Layer_1" xmlns="http://www.w3.org/2000/svg" xmlns:xlink="http://www.w3.org/1999/xlink" x="0px" y="0px"
	 viewBox="0 0 48 48" style="enable-background:new 0 0 48 48;" xml:space="preserve">
<style type="text/css">
	.st0{fill:#4A34CE;}
	.st1{enable-background:new    ;}
	.st2{fill:#FE6F6F;}
	.st3{fill:#FE6B6B;}
	.st4{fill:#FCE9E9;}
	.st5{fill:#FE7676;}
	.st6{fill:#FE7272;}
	.st7{clip-path:url(#SVGID_2_);enable-background:new    ;}
	.st8{fill:#FE7575;}
	.st9{fill:#FE7474;}
	.st10{fill:#FE7373;}
	.st11{fill:#FE7171;}
	.st12{fill:#FE7070;}
	.st13{fill:#FE6E6E;}
	.st14{fill:#FE6D6D;}
	.st15{fill:#FE6C6C;}
	.st16{clip-path:url(#SVGID_4_);enable-background:new    ;}
	.st17{clip-path:url(#SVGID_6_);enable-background:new    ;}
	.st18{clip-path:url(#SVGID_8_);enable-background:new    ;}
	.st19{clip-path:url(#SVGID_10_);enable-background:new    ;}
	.st20{clip-path:url(#SVGID_12_);enable-background:new    ;}
	.st21{clip-path:url(#SVGID_14_);enable-background:new    ;}
	.st22{clip-path:url(#SVGID_16_);enable-background:new    ;}
	.st23{clip-path:url(#SVGID_18_);enable-background:new    ;}
	.st24{clip-path:url(#SVGID_20_);enable-background:new    ;}
	.st25{clip-path:url(#SVGID_22_);enable-background:new    ;}
	.st26{clip-path:url(#SVGID_24_);enable-background:new    ;}
	.st27{clip-path:url(#SVGID_26_);enable-background:new    ;}
	.st28{clip-path:url(#SVGID_28_);enable-background:new    ;}
	.st29{clip-path:url(#SVGID_30_);enable-background:new    ;}
	.st30{clip-path:url(#SVGID_32_);enable-background:new    ;}
	.st31{clip-path:url(#SVGID_34_);enable-background:new    ;}
	.st32{clip-path:url(#SVGID_36_);enable-background:new    ;}
	.st33{clip-path:url(#SVGID_38_);enable-background:new    ;}
	.st34{clip-path:url(#SVGID_40_);enable-background:new    ;}
	.st35{clip-path:url(#SVGID_42_);enable-background:new    ;}
	.st36{clip-path:url(#SVGID_44_);enable-background:new    ;}
	.st37{clip-path:url(#SVGID_46_);enable-background:new    ;}
	.st38{clip-path:url(#SVGID_48_);enable-background:new    ;}
	.st39{clip-path:url(#SVGID_50_);enable-background:new    ;}
	.st40{clip-path:url(#SVGID_52_);enable-background:new    ;}
	.st41{clip-path:url(#SVGID_54_);enable-background:new    ;}
	.st42{clip-path:url(#SVGID_56_);enable-background:new    ;}
	.st43{clip-path:url(#SVGID_58_);enable-background:new    ;}
	.st44{clip-path:url(#SVGID_60_);enable-background:new    ;}
	.st45{clip-path:url(#SVGID_62_);enable-background:new    ;}
	.st46{clip-path:url(#SVGID_64_);enable-background:new    ;}
	.st47{clip-path:url(#SVGID_66_);enable-background:new    ;}
	.st48{clip-path:url(#SVGID_68_);enable-background:new    ;}
	.st49{clip-path:url(#SVGID_70_);enable-background:new    ;}
	.st50{clip-path:url(#SVGID_72_);enable-background:new    ;}
	.st51{clip-path:url(#SVGID_74_);enable-background:new    ;}
	.st52{clip-path:url(#SVGID_76_);enable-background:new    ;}
	.st53{clip-path:url(#SVGID_78_);enable-background:new    ;}
	.st54{clip-path:url(#SVGID_80_);enable-background:new    ;}
	.st55{clip-path:url(#SVGID_82_);enable-background:new    ;}
	.st56{clip-path:url(#SVGID_84_);enable-background:new    ;}
	.st57{clip-path:url(#SVGID_86_);enable-background:new    ;}
	.st58{clip-path:url(#SVGID_88_);enable-background:new    ;}
	.st59{clip-path:url(#SVGID_90_);enable-background:new    ;}
	.st60{clip-path:url(#SVGID_92_);enable-background:new    ;}
	.st61{clip-path:url(#SVGID_94_);enable-background:new    ;}
	.st62{clip-path:url(#SVGID_96_);enable-background:new    ;}
	.st63{clip-path:url(#SVGID_98_);enable-background:new    ;}
	.st64{clip-path:url(#SVGID_100_);enable-background:new    ;}
	.st65{clip-path:url(#SVGID_102_);enable-background:new    ;}
	.st66{clip-path:url(#SVGID_104_);enable-background:new    ;}
	.st67{clip-path:url(#SVGID_106_);enable-background:new    ;}
	.st68{clip-path:url(#SVGID_108_);enable-background:new    ;}
	.st69{clip-path:url(#SVGID_110_);enable-background:new    ;}
	.st70{clip-path:url(#SVGID_112_);enable-background:new    ;}
	.st71{clip-path:url(#SVGID_114_);enable-background:new    ;}
</style>
<polygon class="st0" points="47,38.7 2.8,46.5 2.8,10.3 47,1.5 "/>
<g>
	<g>
		<g class="st1">
			<g>
				<polygon class="st2" points="24.4,14.7 22.1,13.4 23.2,9.8 25.5,11 				"/>
			</g>
			<g>
				<polygon class="st3" points="25.5,11 23.2,9.8 25,9.6 27.2,10.8 				"/>
			</g>
			<g>
				<polygon class="st4" points="27.2,10.8 25.1,17 23.6,17.2 21.3,11.6 23.2,11.4 24.4,14.7 25.5,11 				"/>
			</g>
			<g>
				<polygon class="st5" points="23.6,17.2 21.3,16 19.1,10.4 21.3,11.6 				"/>
			</g>
			<g>
				<polygon class="st3" points="21.3,11.6 19.1,10.4 20.9,10.1 23.2,11.4 				"/>
			</g>
		</g>
		<g class="st1">
			<g>
				<polygon class="st4" points="19,17.9 19,12 20.7,11.7 20.7,17.6 				"/>
			</g>
			<g>
				<polygon class="st6" points="19,17.9 16.7,16.6 16.7,10.7 19,12 				"/>
			</g>
			<g>
				<polygon class="st3" points="19,12 16.7,10.7 18.4,10.5 20.7,11.7 				"/>
			</g>
		</g>
		<g class="st1">
			<g>
				<path class="st4" d="M19.8,11.4c-0.5,0.1-1-0.3-1-0.9c0-0.6,0.4-1.2,1-1.2s1,0.3,1,0.9C20.9,10.8,20.4,11.3,19.8,11.4z"/>
			</g>
			<g class="st1">
				<defs>
					<path id="SVGID_1_" class="st1" d="M19.3,11.3L17,10.1c-0.3-0.1-0.5-0.5-0.5-0.8c0-0.6,0.4-1.2,1-1.2c0.2,0,0.4,0,0.5,0.1
						l2.3,1.2c-0.2-0.1-0.3-0.1-0.5-0.1c-0.6,0.1-1,0.6-1,1.2C18.9,10.9,19,11.2,19.3,11.3z"/>
				</defs>
				<clipPath id="SVGID_2_">
					<use xlink:href="#SVGID_1_"  style="overflow:visible;"/>
				</clipPath>
				<g class="st7">
					<path class="st5" d="M19.3,11.3L17,10.1c0,0,0,0,0,0L19.3,11.3C19.3,11.3,19.3,11.3,19.3,11.3"/>
					<path class="st8" d="M19.3,11.3L17,10.1c0,0,0,0-0.1,0L19.3,11.3C19.2,11.3,19.3,11.3,19.3,11.3"/>
					<path class="st8" d="M19.2,11.3L16.9,10c0,0,0,0,0,0L19.2,11.3C19.2,11.2,19.2,11.3,19.2,11.3"/>
					<path class="st9" d="M19.2,11.2L16.9,10c0,0,0,0,0,0L19.2,11.2C19.1,11.2,19.2,11.2,19.2,11.2"/>
					<path class="st9" d="M19.1,11.2l-2.3-1.2c0,0,0,0,0,0L19.1,11.2C19.1,11.2,19.1,11.2,19.1,11.2"/>
					<path class="st10" d="M19.1,11.1l-2.3-1.2c0,0,0,0,0,0L19.1,11.1C19.1,11.1,19.1,11.1,19.1,11.1"/>
					<path class="st6" d="M19.1,11.1l-2.3-1.2c0,0,0,0,0,0L19.1,11.1C19,11.1,19.1,11.1,19.1,11.1"/>
					<path class="st6" d="M19,11.1l-2.3-1.2c0,0,0,0,0,0L19,11.1C19,11,19,11.1,19,11.1"/>
					<path class="st11" d="M19,11l-2.3-1.2c0,0,0,0,0,0L19,11C19,11,19,11,19,11"/>
					<path class="st11" d="M19,11l-2.3-1.2c0,0,0,0,0,0L19,11C19,11,19,11,19,11"/>
					<path class="st12" d="M19,10.9l-2.3-1.2c0,0,0,0,0,0L19,10.9C18.9,10.9,19,10.9,19,10.9"/>
					<path class="st12" d="M18.9,10.9l-2.3-1.2c0,0,0,0,0,0L18.9,10.9C18.9,10.9,18.9,10.9,18.9,10.9"/>
					<path class="st2" d="M18.9,10.8l-2.3-1.2c0,0,0,0,0-0.1L18.9,10.8C18.9,10.8,18.9,10.8,18.9,10.8"/>
					<path class="st2" d="M18.9,10.8l-2.3-1.2c0,0,0,0,0-0.1L18.9,10.8C18.9,10.8,18.9,10.8,18.9,10.8"/>
					<path class="st13" d="M18.9,10.7l-2.3-1.2c0,0,0,0,0-0.1L18.9,10.7C18.9,10.7,18.9,10.7,18.9,10.7"/>
					<path class="st13" d="M18.9,10.7l-2.3-1.2c0,0,0,0,0-0.1L18.9,10.7C18.9,10.6,18.9,10.6,18.9,10.7"/>
					<path class="st14" d="M18.9,10.6l-2.3-1.2c0,0,0-0.1,0-0.1L18.9,10.6C18.9,10.5,18.9,10.6,18.9,10.6"/>
					<path class="st14" d="M18.9,10.5l-2.3-1.2c0,0,0,0,0,0c0,0,0-0.1,0-0.1l2.3,1.2C18.9,10.4,18.9,10.5,18.9,10.5
						C18.9,10.5,18.9,10.5,18.9,10.5"/>
					<path class="st15" d="M18.9,10.4l-2.3-1.2c0-0.6,0.5-1.1,1-1.1c0.2,0,0.4,0,0.5,0.1l2.3,1.2c-0.2-0.1-0.3-0.1-0.5-0.1
						C19.3,9.3,18.9,9.8,18.9,10.4"/>
				</g>
			</g>
		</g>
		<g class="st1">
			<g class="st1">
				<defs>
					<path id="SVGID_3_" class="st1" d="M13.6,12.8l2.3,1.2c0.3,0.1,0.3,0.4,0.3,0.8c0,0.4,0,3.3,0,3.5L13.9,17c0-0.2,0-3.1,0-3.5
						C13.9,13.2,13.8,12.9,13.6,12.8z"/>
				</defs>
				<clipPath id="SVGID_4_">
					<use xlink:href="#SVGID_3_"  style="overflow:visible;"/>
				</clipPath>
				<g class="st16">
					<path class="st14" d="M16.1,18.3L13.9,17c0-0.2,0-3.1,0-3.5c0,0,0,0,0-0.1l2.3,1.2c0,0,0,0,0,0.1
						C16.2,15.2,16.1,18.1,16.1,18.3"/>
					<path class="st14" d="M16.2,14.7l-2.3-1.2c0,0,0-0.1,0-0.1l2.3,1.2C16.1,14.6,16.2,14.7,16.2,14.7"/>
					<path class="st13" d="M16.1,14.6l-2.3-1.2c0,0,0-0.1,0-0.1L16.1,14.6C16.1,14.5,16.1,14.6,16.1,14.6"/>
					<path class="st13" d="M16.1,14.5l-2.3-1.2c0,0,0,0,0-0.1L16.1,14.5C16.1,14.5,16.1,14.5,16.1,14.5"/>
					<path class="st2" d="M16.1,14.4l-2.3-1.2c0,0,0,0,0-0.1L16.1,14.4C16.1,14.4,16.1,14.4,16.1,14.4"/>
					<path class="st2" d="M16.1,14.4l-2.3-1.2c0,0,0,0,0,0L16.1,14.4C16.1,14.4,16.1,14.4,16.1,14.4"/>
					<path class="st12" d="M16.1,14.3l-2.3-1.2c0,0,0,0,0,0L16.1,14.3C16.1,14.3,16.1,14.3,16.1,14.3"/>
					<path class="st12" d="M16.1,14.3l-2.3-1.2c0,0,0,0,0,0L16.1,14.3C16.1,14.3,16.1,14.3,16.1,14.3"/>
					<path class="st11" d="M16.1,14.3L13.8,13c0,0,0,0,0,0L16.1,14.3C16.1,14.2,16.1,14.3,16.1,14.3"/>
					<path class="st11" d="M16.1,14.2L13.8,13c0,0,0,0,0,0L16.1,14.2C16,14.2,16,14.2,16.1,14.2"/>
					<path class="st6" d="M16,14.2L13.8,13c0,0,0,0,0,0L16,14.2C16,14.2,16,14.2,16,14.2"/>
					<path class="st6" d="M16,14.2l-2.3-1.2c0,0,0,0,0,0L16,14.2C16,14.2,16,14.2,16,14.2"/>
					<path class="st10" d="M16,14.2l-2.3-1.2c0,0,0,0,0,0L16,14.2C16,14.1,16,14.2,16,14.2"/>
					<path class="st9" d="M16,14.1l-2.3-1.2c0,0,0,0,0,0L16,14.1C16,14.1,16,14.1,16,14.1"/>
					<path class="st9" d="M16,14.1l-2.3-1.2c0,0,0,0,0,0L16,14.1C15.9,14.1,16,14.1,16,14.1"/>
					<path class="st8" d="M15.9,14.1l-2.3-1.2c0,0,0,0,0,0L15.9,14.1C15.9,14.1,15.9,14.1,15.9,14.1"/>
					<path class="st8" d="M15.9,14.1l-2.3-1.2c0,0,0,0,0,0L15.9,14.1C15.9,14,15.9,14.1,15.9,14.1"/>
					<path class="st5" d="M15.9,14l-2.3-1.2c0,0,0,0,0,0L15.9,14C15.9,14,15.9,14,15.9,14"/>
				</g>
			</g>
			<g class="st1">
				<defs>
					<path id="SVGID_5_" class="st1" d="M14.7,11.2l2.3,1.2c-0.3-0.2-0.7-0.2-1.1-0.2c-1.1,0.1-1.6,1.1-1.6,1.1L12,12.1
						c0,0,0.5-1,1.6-1.1C14,11,14.4,11.1,14.7,11.2z"/>
				</defs>
				<clipPath id="SVGID_6_">
					<use xlink:href="#SVGID_5_"  style="overflow:visible;"/>
				</clipPath>
				<g class="st17">
					<path class="st15" d="M14.3,13.4L12,12.1c0,0,0.5-1,1.6-1.1c0.4-0.1,0.8,0,1.1,0.2l2.3,1.2c-0.3-0.2-0.7-0.2-1.1-0.2
						C14.8,12.4,14.3,13.3,14.3,13.4"/>
				</g>
			</g>
			<g>
				<path class="st4" d="M14.3,11.2l0,2.2c0,0,0.5-1,1.6-1.1c1.1-0.2,2,0.6,2,1.7c0,1.4,0,2.7,0,4.1l-1.7,0.2c0-0.2,0-3.1,0-3.5
					c0-0.5-0.1-0.9-0.9-0.8c-0.5,0.1-1,0.6-1,1.2c0,1.1,0,3.3,0,3.4l-1.7,0.2l0-7.4L14.3,11.2z"/>
			</g>
			<g>
				<polygon class="st6" points="12.6,18.7 10.4,17.5 10.4,10.1 12.7,11.4 				"/>
			</g>
			<g>
				<polygon class="st3" points="12.7,11.4 10.4,10.1 12,9.9 14.3,11.2 				"/>
			</g>
		</g>
		<g class="st1">
			<g class="st1">
				<defs>
					<path id="SVGID_7_" class="st1" d="M9.2,17.8l-2.3-1.2c0.1,0.1,0.3,0.1,0.4,0.1c0.3,0,0.6-0.2,0.6-0.5c0-0.1-0.1-0.2-0.2-0.3
						l2.3,1.2c0.1,0.1,0.2,0.1,0.2,0.3c0,0.3-0.3,0.5-0.6,0.5C9.4,17.9,9.3,17.9,9.2,17.8z"/>
				</defs>
				<clipPath id="SVGID_8_">
					<use xlink:href="#SVGID_7_"  style="overflow:visible;"/>
				</clipPath>
				<g class="st18">
					<path class="st15" d="M9.2,17.8l-2.3-1.2c0.1,0.1,0.3,0.1,0.4,0.1c0.3,0,0.6-0.2,0.6-0.5l2.3,1.2c0,0.3-0.3,0.4-0.6,0.5
						C9.4,17.9,9.3,17.9,9.2,17.8"/>
					<path class="st14" d="M10.2,17.4l-2.3-1.2c0,0,0,0,0,0c0,0,0,0,0,0L10.2,17.4C10.2,17.4,10.2,17.4,10.2,17.4
						C10.2,17.4,10.2,17.4,10.2,17.4"/>
					<path class="st14" d="M10.2,17.4l-2.3-1.2c0,0,0,0,0,0L10.2,17.4C10.2,17.4,10.2,17.4,10.2,17.4"/>
					<path class="st13" d="M10.2,17.4l-2.3-1.2c0,0,0,0,0,0L10.2,17.4C10.2,17.4,10.2,17.4,10.2,17.4"/>
					<path class="st13" d="M10.2,17.4l-2.3-1.2c0,0,0,0,0,0L10.2,17.4C10.2,17.4,10.2,17.4,10.2,17.4"/>
					<path class="st2" d="M10.2,17.4l-2.3-1.2c0,0,0,0,0,0L10.2,17.4C10.2,17.3,10.2,17.4,10.2,17.4"/>
					<path class="st2" d="M10.2,17.3l-2.3-1.2c0,0,0,0,0,0L10.2,17.3C10.2,17.3,10.2,17.3,10.2,17.3"/>
					<path class="st12" d="M10.2,17.3l-2.3-1.2c0,0,0,0,0,0L10.2,17.3C10.2,17.3,10.2,17.3,10.2,17.3"/>
					<path class="st12" d="M10.2,17.3l-2.3-1.2c0,0,0,0,0,0L10.2,17.3C10.2,17.3,10.2,17.3,10.2,17.3"/>
					<path class="st11" d="M10.2,17.3l-2.3-1.2c0,0,0,0,0,0L10.2,17.3C10.2,17.3,10.2,17.3,10.2,17.3"/>
					<path class="st11" d="M10.2,17.3L7.9,16c0,0,0,0,0,0L10.2,17.3C10.2,17.3,10.2,17.3,10.2,17.3"/>
					<path class="st6" d="M10.2,17.3L7.9,16c0,0,0,0,0,0L10.2,17.3C10.2,17.3,10.2,17.3,10.2,17.3"/>
					<path class="st6" d="M10.2,17.3L7.9,16c0,0,0,0,0,0L10.2,17.3C10.2,17.3,10.2,17.3,10.2,17.3"/>
					<polyline class="st10" points="10.2,17.3 7.9,16 7.9,16 10.1,17.2 10.2,17.3 					"/>
					<path class="st9" d="M10.1,17.2L7.9,16c0,0,0,0,0,0L10.1,17.2C10.1,17.2,10.1,17.2,10.1,17.2"/>
					<path class="st9" d="M10.1,17.2L7.8,16c0,0,0,0,0,0L10.1,17.2C10.1,17.2,10.1,17.2,10.1,17.2"/>
					<path class="st8" d="M10.1,17.2L7.8,16c0,0,0,0,0,0L10.1,17.2C10.1,17.2,10.1,17.2,10.1,17.2"/>
					<path class="st8" d="M10.1,17.2l-2.3-1.2c0,0,0,0,0,0L10.1,17.2C10.1,17.2,10.1,17.2,10.1,17.2"/>
					<path class="st5" d="M10.1,17.2l-2.3-1.2c0,0,0,0,0,0L10.1,17.2C10,17.2,10.1,17.2,10.1,17.2"/>
				</g>
			</g>
			<g class="st1">
				<defs>
					<path id="SVGID_9_" class="st1" d="M7.8,13.4l2.3,1.2c0.2,0.1,0.3,0.3,0.3,0.3l-2.3-1.2C8.1,13.7,8,13.5,7.8,13.4z"/>
				</defs>
				<clipPath id="SVGID_10_">
					<use xlink:href="#SVGID_9_"  style="overflow:visible;"/>
				</clipPath>
				<g class="st19">
					<path class="st11" d="M10.4,14.9l-2.3-1.2c0,0,0,0,0,0L10.4,14.9C10.4,14.9,10.4,14.9,10.4,14.9"/>
					<path class="st11" d="M10.4,14.9l-2.3-1.2c0,0,0,0,0,0L10.4,14.9C10.4,14.9,10.4,14.9,10.4,14.9"/>
					<path class="st6" d="M10.4,14.9l-2.3-1.2c0,0,0,0,0,0L10.4,14.9C10.3,14.9,10.4,14.9,10.4,14.9"/>
					<path class="st6" d="M10.3,14.9l-2.3-1.2c0,0,0,0,0,0L10.3,14.9C10.3,14.8,10.3,14.8,10.3,14.9"/>
					<path class="st10" d="M10.3,14.8L8,13.6c0,0,0,0,0,0L10.3,14.8C10.3,14.8,10.3,14.8,10.3,14.8"/>
					<path class="st9" d="M10.3,14.8L8,13.6c0,0,0,0,0,0L10.3,14.8C10.3,14.8,10.3,14.8,10.3,14.8"/>
					<path class="st9" d="M10.3,14.8L8,13.5c0,0,0,0,0,0L10.3,14.8C10.2,14.7,10.2,14.7,10.3,14.8"/>
					<path class="st8" d="M10.2,14.7l-2.3-1.2c0,0,0,0,0,0L10.2,14.7C10.2,14.7,10.2,14.7,10.2,14.7"/>
					<path class="st8" d="M10.2,14.7l-2.3-1.2c0,0,0,0,0,0L10.2,14.7C10.2,14.7,10.2,14.7,10.2,14.7"/>
					<path class="st5" d="M10.1,14.7l-2.3-1.2c0,0,0,0,0,0L10.1,14.7C10.1,14.6,10.1,14.7,10.1,14.7"/>
				</g>
			</g>
			<g class="st1">
				<defs>
					<path id="SVGID_11_" class="st1" d="M9.4,15.2L7.2,14c0.3,0.2,1.1,0.2,1.6,0.5l2.3,1.2C10.5,15.4,9.8,15.4,9.4,15.2z"/>
				</defs>
				<clipPath id="SVGID_12_">
					<use xlink:href="#SVGID_11_"  style="overflow:visible;"/>
				</clipPath>
				<g class="st20">
					<path class="st15" d="M9.4,15.2L7.2,14c0.3,0.2,1.1,0.2,1.6,0.5l2.3,1.2C10.5,15.4,9.8,15.4,9.4,15.2"/>
				</g>
			</g>
			<g class="st1">
				<defs>
					<path id="SVGID_13_" class="st1" d="M8.3,19.1L6,17.9c-0.3-0.2-0.5-0.4-0.7-0.8l2.3,1.2C7.8,18.7,8,19,8.3,19.1z"/>
				</defs>
				<clipPath id="SVGID_14_">
					<use xlink:href="#SVGID_13_"  style="overflow:visible;"/>
				</clipPath>
				<g class="st21">
					<path class="st5" d="M8.3,19.1L6,17.9c0,0-0.1,0-0.1,0L8.3,19.1C8.2,19.1,8.3,19.1,8.3,19.1"/>
					<path class="st8" d="M8.2,19.1l-2.3-1.2c0,0-0.1-0.1-0.1-0.1L8.1,19C8.1,19,8.2,19.1,8.2,19.1"/>
					<path class="st8" d="M8.1,19l-2.3-1.2c0,0-0.1,0-0.1-0.1L8.1,19C8,19,8.1,19,8.1,19"/>
					<path class="st9" d="M8,18.9l-2.3-1.2c0,0-0.1-0.1-0.1-0.1L8,18.9C8,18.9,8,18.9,8,18.9"/>
					<path class="st9" d="M7.9,18.9l-2.3-1.2c0,0-0.1-0.1-0.1-0.1L7.9,18.9C7.9,18.8,7.9,18.8,7.9,18.9"/>
					<path class="st10" d="M7.9,18.8l-2.3-1.2c0,0,0-0.1-0.1-0.1L7.9,18.8C7.8,18.7,7.8,18.7,7.9,18.8"/>
					<path class="st6" d="M7.8,18.7l-2.3-1.2c0,0,0-0.1-0.1-0.1L7.8,18.7C7.7,18.6,7.8,18.7,7.8,18.7"/>
					<path class="st6" d="M7.7,18.6l-2.3-1.2c0,0,0-0.1-0.1-0.1l2.3,1.2C7.7,18.5,7.7,18.6,7.7,18.6"/>
					<path class="st11" d="M7.6,18.5l-2.3-1.2c0,0,0-0.1-0.1-0.1l2.3,1.2C7.6,18.4,7.6,18.5,7.6,18.5"/>
					<polyline class="st11" points="7.6,18.4 5.3,17.1 5.3,17.1 7.6,18.4 7.6,18.4 					"/>
				</g>
			</g>
			<g>
				<polygon class="st3" points="7.6,18.4 5.3,17.1 6.6,16.3 8.9,17.5 				"/>
			</g>
			<g class="st1">
				<defs>
					<path id="SVGID_15_" class="st1" d="M8.6,12.1l2.3,1.2c-0.3-0.2-0.6-0.2-1-0.2l-2.3-1.2C8,11.8,8.3,11.9,8.6,12.1z"/>
				</defs>
				<clipPath id="SVGID_16_">
					<use xlink:href="#SVGID_15_"  style="overflow:visible;"/>
				</clipPath>
				<g class="st22">
					<path class="st15" d="M9.9,13.1l-2.3-1.2c0.4-0.1,0.7,0,1,0.2l2.3,1.2C10.6,13.1,10.2,13.1,9.9,13.1"/>
				</g>
			</g>
			<g class="st1">
				<defs>
					<path id="SVGID_17_" class="st1" d="M8.5,16.7l-2.3-1.2c-0.4-0.2-0.7-0.6-0.7-1.3c0-1.1,0.9-2,2.1-2.2l2.3,1.2
						c-1.2,0.2-2.1,1.1-2.1,2.2C7.8,16.1,8.1,16.5,8.5,16.7z"/>
				</defs>
				<clipPath id="SVGID_18_">
					<use xlink:href="#SVGID_17_"  style="overflow:visible;"/>
				</clipPath>
				<g class="st23">
					<path class="st5" d="M8.5,16.7l-2.3-1.2c0,0-0.1,0-0.1,0L8.5,16.7C8.4,16.7,8.4,16.7,8.5,16.7"/>
					<path class="st8" d="M8.4,16.6l-2.3-1.2c0,0-0.1,0-0.1-0.1l2.3,1.2C8.3,16.6,8.4,16.6,8.4,16.6"/>
					<path class="st8" d="M8.3,16.6L6,15.3c0,0,0,0-0.1-0.1L8.3,16.6C8.2,16.5,8.3,16.5,8.3,16.6"/>
					<path class="st9" d="M8.2,16.5l-2.3-1.2c0,0,0,0-0.1-0.1L8.2,16.5C8.2,16.5,8.2,16.5,8.2,16.5"/>
					<path class="st9" d="M8.1,16.4l-2.3-1.2c0,0,0,0,0-0.1L8.1,16.4C8.1,16.4,8.1,16.4,8.1,16.4"/>
					<path class="st10" d="M8.1,16.4l-2.3-1.2c0,0,0,0,0-0.1L8.1,16.4C8.1,16.4,8.1,16.4,8.1,16.4"/>
					<path class="st6" d="M8,16.3l-2.3-1.2c0,0,0,0,0-0.1L8,16.3C8,16.3,8,16.3,8,16.3"/>
					<path class="st6" d="M8,16.3L5.7,15c0,0,0,0,0-0.1L8,16.3C8,16.2,8,16.3,8,16.3"/>
					<path class="st11" d="M8,16.2L5.7,15c0,0,0,0,0-0.1L8,16.2C7.9,16.2,8,16.2,8,16.2"/>
					<path class="st11" d="M7.9,16.2l-2.3-1.2c0,0,0,0,0-0.1L7.9,16.2C7.9,16.1,7.9,16.1,7.9,16.2"/>
					<path class="st12" d="M7.9,16.1l-2.3-1.2c0,0,0,0,0-0.1L7.9,16.1C7.9,16.1,7.9,16.1,7.9,16.1"/>
					<path class="st12" d="M7.9,16l-2.3-1.2c0,0,0,0,0-0.1L7.9,16C7.9,16,7.9,16,7.9,16"/>
					<path class="st2" d="M7.8,16l-2.3-1.2c0,0,0,0,0-0.1L7.8,16C7.8,15.9,7.8,15.9,7.8,16"/>
					<path class="st2" d="M7.8,15.9l-2.3-1.2c0,0,0-0.1,0-0.1L7.8,15.9C7.8,15.8,7.8,15.8,7.8,15.9"/>
					<path class="st13" d="M7.8,15.8l-2.3-1.2c0,0,0-0.1,0-0.1l2.3,1.2C7.8,15.7,7.8,15.8,7.8,15.8"/>
					<path class="st13" d="M7.8,15.7l-2.3-1.2c0,0,0-0.1,0-0.1l2.3,1.2C7.8,15.6,7.8,15.6,7.8,15.7"/>
					<path class="st14" d="M7.8,15.6l-2.3-1.2c0-0.1,0-0.1,0-0.2l2.3,1.2C7.8,15.4,7.8,15.5,7.8,15.6"/>
					<path class="st14" d="M7.8,15.4l-2.3-1.2c0,0,0,0,0,0c0,0,0-0.1,0-0.1l2.3,1.2C7.8,15.2,7.8,15.3,7.8,15.4
						C7.8,15.4,7.8,15.4,7.8,15.4"/>
					<path class="st15" d="M7.8,15.2L5.5,14c0.1-1.1,0.9-1.9,2.1-2.1l2.3,1.2C8.7,13.3,7.8,14.1,7.8,15.2"/>
				</g>
			</g>
			<g>
				<path class="st4" d="M9.9,13.1c0.8-0.1,1.4,0.3,1.8,1l-1.3,0.8c0,0-0.2-0.4-0.7-0.4c-0.3,0-0.4,0.2-0.4,0.4c0,0.7,2.5,0,2.5,2.1
					c0,1.3-1,2.1-2.2,2.3c-0.9,0.1-1.6-0.1-2-0.9l1.3-0.9c0,0,0.3,0.5,0.8,0.4c0.3,0,0.6-0.2,0.6-0.5c0-0.7-2.5,0-2.4-2.1
					C7.8,14.2,8.6,13.3,9.9,13.1z"/>
			</g>
		</g>
		<g class="st1">
			<g class="st1">
				<defs>
					<path id="SVGID_19_" class="st1" d="M35.7,20.2l2.3,1.2c0.3,0.1,0.3,0.4,0.3,0.8c0,0.4,0,3.3,0,3.5L36,24.5c0-0.2,0-3.1,0-3.5
						C36,20.7,36,20.4,35.7,20.2z"/>
				</defs>
				<clipPath id="SVGID_20_">
					<use xlink:href="#SVGID_19_"  style="overflow:visible;"/>
				</clipPath>
				<g class="st24">
					<path class="st14" d="M38.3,25.7L36,24.5c0-0.2,0-3.1,0-3.5c0,0,0,0,0-0.1l2.3,1.2c0,0,0,0,0,0.1
						C38.3,22.6,38.3,25.5,38.3,25.7"/>
					<path class="st14" d="M38.3,22.2L36,20.9c0,0,0-0.1,0-0.1l2.3,1.2C38.3,22.1,38.3,22.1,38.3,22.2"/>
					<path class="st13" d="M38.3,22L36,20.8c0,0,0-0.1,0-0.1L38.3,22C38.3,22,38.3,22,38.3,22"/>
					<path class="st13" d="M38.3,22L36,20.7c0,0,0,0,0-0.1L38.3,22C38.3,21.9,38.3,21.9,38.3,22"/>
					<path class="st2" d="M38.3,21.9L36,20.6c0,0,0,0,0-0.1L38.3,21.9C38.3,21.9,38.3,21.9,38.3,21.9"/>
					<path class="st2" d="M38.3,21.8L36,20.6c0,0,0,0,0,0L38.3,21.8C38.3,21.8,38.3,21.8,38.3,21.8"/>
					<path class="st12" d="M38.3,21.8L36,20.6c0,0,0,0,0,0L38.3,21.8C38.3,21.8,38.3,21.8,38.3,21.8"/>
					<path class="st12" d="M38.2,21.8L36,20.5c0,0,0,0,0,0L38.2,21.8C38.2,21.7,38.2,21.7,38.2,21.8"/>
					<path class="st11" d="M38.2,21.7L36,20.5c0,0,0,0,0,0L38.2,21.7C38.2,21.7,38.2,21.7,38.2,21.7"/>
					<path class="st11" d="M38.2,21.7l-2.3-1.2c0,0,0,0,0,0L38.2,21.7C38.2,21.7,38.2,21.7,38.2,21.7"/>
					<path class="st6" d="M38.2,21.7l-2.3-1.2c0,0,0,0,0,0L38.2,21.7C38.2,21.6,38.2,21.7,38.2,21.7"/>
					<path class="st6" d="M38.2,21.6l-2.3-1.2c0,0,0,0,0,0L38.2,21.6C38.2,21.6,38.2,21.6,38.2,21.6"/>
					<path class="st10" d="M38.2,21.6l-2.3-1.2c0,0,0,0,0,0L38.2,21.6C38.2,21.6,38.2,21.6,38.2,21.6"/>
					<path class="st9" d="M38.1,21.6l-2.3-1.2c0,0,0,0,0,0L38.1,21.6C38.1,21.6,38.1,21.6,38.1,21.6"/>
					<path class="st9" d="M38.1,21.6l-2.3-1.2c0,0,0,0,0,0L38.1,21.6C38.1,21.5,38.1,21.6,38.1,21.6"/>
					<path class="st8" d="M38.1,21.5l-2.3-1.2c0,0,0,0,0,0L38.1,21.5C38.1,21.5,38.1,21.5,38.1,21.5"/>
					<path class="st8" d="M38.1,21.5l-2.3-1.2c0,0,0,0,0,0L38.1,21.5C38.1,21.5,38.1,21.5,38.1,21.5"/>
					<path class="st5" d="M38,21.5l-2.3-1.2c0,0,0,0,0,0L38,21.5C38,21.5,38,21.5,38,21.5"/>
				</g>
			</g>
			<g class="st1">
				<defs>
					<path id="SVGID_21_" class="st1" d="M36.9,18.7l2.3,1.2c-0.3-0.2-0.7-0.2-1.1-0.2l-2.3-1.2C36.2,18.4,36.6,18.5,36.9,18.7z"/>
				</defs>
				<clipPath id="SVGID_22_">
					<use xlink:href="#SVGID_21_"  style="overflow:visible;"/>
				</clipPath>
				<g class="st25">
					<path class="st15" d="M38.1,19.7l-2.3-1.2c0.4-0.1,0.8,0,1.1,0.2l2.3,1.2C38.9,19.7,38.5,19.7,38.1,19.7"/>
				</g>
			</g>
			<g class="st1">
				<defs>
					<path id="SVGID_23_" class="st1" d="M36.5,20.8l-2.3-1.2c0,0,0.5-1,1.6-1.1l2.3,1.2C37,19.9,36.5,20.8,36.5,20.8z"/>
				</defs>
				<clipPath id="SVGID_24_">
					<use xlink:href="#SVGID_23_"  style="overflow:visible;"/>
				</clipPath>
				<g class="st26">
					<path class="st15" d="M36.5,20.8l-2.3-1.2c0,0,0.5-1,1.6-1.1l2.3,1.2C37,19.9,36.5,20.8,36.5,20.8"/>
				</g>
			</g>
			<g>
				<path class="st4" d="M38.1,19.7c1.1-0.2,2,0.6,2,1.7c0,1.4,0,2.7,0,4.1l-1.7,0.2c0-0.2,0-3.1,0-3.5c0-0.5-0.1-0.9-0.9-0.8
					c-0.5,0.1-1,0.6-1,1.2c0,1.1,0,3.3,0,3.4l-1.7,0.2l0-5.9l1.7-0.2l0,0.8C36.5,20.8,37,19.9,38.1,19.7z"/>
			</g>
			<g>
				<polygon class="st6" points="34.8,26.2 32.5,25 32.5,19.1 34.8,20.3 				"/>
			</g>
			<g>
				<polygon class="st3" points="34.8,20.3 32.5,19.1 34.2,18.8 36.5,20.1 				"/>
			</g>
		</g>
		<g class="st1">
			<g class="st1">
				<defs>
					<path id="SVGID_25_" class="st1" d="M43.6,32.2l2.3,1.2c-0.2-0.1-0.3-0.1-0.5-0.1l-2.3-1.2C43.3,32.1,43.5,32.1,43.6,32.2z"/>
				</defs>
				<clipPath id="SVGID_26_">
					<use xlink:href="#SVGID_25_"  style="overflow:visible;"/>
				</clipPath>
				<g class="st27">
					<path class="st15" d="M45.4,33.3l-2.3-1.2c0.2,0,0.4,0,0.5,0.1l2.3,1.2C45.7,33.3,45.6,33.3,45.4,33.3"/>
				</g>
			</g>
			<g class="st1">
				<defs>
					<path id="SVGID_27_" class="st1" d="M44.8,35.4l-2.3-1.2c-0.3-0.2-0.5-0.5-0.5-0.9c0-0.6,0.5-1.2,1-1.3l2.3,1.2
						c-0.6,0.1-1,0.6-1,1.3C44.3,35,44.5,35.3,44.8,35.4z"/>
				</defs>
				<clipPath id="SVGID_28_">
					<use xlink:href="#SVGID_27_"  style="overflow:visible;"/>
				</clipPath>
				<g class="st28">
					<path class="st5" d="M44.8,35.4l-2.3-1.2c0,0,0,0,0,0L44.8,35.4C44.8,35.4,44.8,35.4,44.8,35.4"/>
					<path class="st8" d="M44.8,35.4l-2.3-1.2c0,0,0,0-0.1,0L44.8,35.4C44.7,35.4,44.7,35.4,44.8,35.4"/>
					<path class="st8" d="M44.7,35.4l-2.3-1.2c0,0,0,0-0.1,0L44.7,35.4C44.7,35.4,44.7,35.4,44.7,35.4"/>
					<path class="st9" d="M44.6,35.3l-2.3-1.2c0,0,0,0,0,0L44.6,35.3C44.6,35.3,44.6,35.3,44.6,35.3"/>
					<path class="st9" d="M44.6,35.3l-2.3-1.2c0,0,0,0,0,0L44.6,35.3C44.6,35.3,44.6,35.3,44.6,35.3"/>
					<path class="st10" d="M44.6,35.3L42.3,34c0,0,0,0,0,0L44.6,35.3C44.5,35.2,44.6,35.2,44.6,35.3"/>
					<path class="st6" d="M44.5,35.2L42.3,34c0,0,0,0,0,0L44.5,35.2C44.5,35.2,44.5,35.2,44.5,35.2"/>
					<path class="st6" d="M44.5,35.2l-2.3-1.2c0,0,0,0,0,0L44.5,35.2C44.5,35.1,44.5,35.2,44.5,35.2"/>
					<path class="st11" d="M44.5,35.1l-2.3-1.2c0,0,0,0,0,0L44.5,35.1C44.5,35.1,44.5,35.1,44.5,35.1"/>
					<path class="st11" d="M44.4,35.1l-2.3-1.2c0,0,0,0,0,0L44.4,35.1C44.4,35,44.4,35.1,44.4,35.1"/>
					<path class="st12" d="M44.4,35l-2.3-1.2c0,0,0,0,0,0L44.4,35C44.4,35,44.4,35,44.4,35"/>
					<path class="st12" d="M44.4,35l-2.3-1.2c0,0,0,0,0,0L44.4,35C44.4,35,44.4,35,44.4,35"/>
					<path class="st2" d="M44.4,34.9l-2.3-1.2c0,0,0,0,0-0.1L44.4,34.9C44.4,34.9,44.4,34.9,44.4,34.9"/>
					<path class="st2" d="M44.4,34.9l-2.3-1.2c0,0,0,0,0-0.1L44.4,34.9C44.4,34.8,44.4,34.9,44.4,34.9"/>
					<path class="st13" d="M44.4,34.8l-2.3-1.2c0,0,0,0,0-0.1L44.4,34.8C44.3,34.8,44.4,34.8,44.4,34.8"/>
					<path class="st13" d="M44.3,34.8l-2.3-1.2c0,0,0,0,0-0.1L44.3,34.8C44.3,34.7,44.3,34.7,44.3,34.8"/>
					<path class="st14" d="M44.3,34.7l-2.3-1.2c0,0,0-0.1,0-0.1L44.3,34.7C44.3,34.6,44.3,34.7,44.3,34.7"/>
					<path class="st14" d="M44.3,34.6l-2.3-1.2c0,0,0,0,0,0c0,0,0-0.1,0-0.1l2.3,1.2C44.3,34.5,44.3,34.6,44.3,34.6
						C44.3,34.6,44.3,34.6,44.3,34.6"/>
					<path class="st15" d="M44.3,34.5l-2.3-1.2c0-0.6,0.5-1.1,1-1.2l2.3,1.2C44.8,33.4,44.4,33.9,44.3,34.5"/>
				</g>
			</g>
			<g>
				<path class="st4" d="M45.4,33.3c0.6-0.1,1,0.4,1,1c0,0.6-0.5,1.2-1,1.2c-0.6,0.1-1-0.3-1-1C44.3,34,44.8,33.4,45.4,33.3z"/>
			</g>
		</g>
		<g class="st1">
			<g>
				<polygon class="st13" points="39,38.3 36.7,37 37.9,34 40.2,35.2 				"/>
			</g>
			<g>
				<polygon class="st2" points="41.1,33 38.8,31.8 39.9,28.6 42.2,29.8 				"/>
			</g>
			<g>
				<polygon class="st3" points="42.2,29.8 39.9,28.6 41.7,28.3 43.9,29.6 				"/>
			</g>
			<g>
				<polygon class="st4" points="43.9,29.6 40.7,38 39,38.3 40.2,35.2 38,30.4 39.9,30.1 41.1,33 42.2,29.8 				"/>
			</g>
			<g>
				<polygon class="st5" points="40.2,35.2 37.9,34 35.7,29.2 38,30.4 				"/>
			</g>
			<g>
				<polygon class="st3" points="38,30.4 35.7,29.2 37.6,28.9 39.9,30.1 				"/>
			</g>
		</g>
		<g class="st1">
			<g class="st1">
				<defs>
					<path id="SVGID_29_" class="st1" d="M35.1,31.1l2.3,1.2c0.1,0,0.1,0.1,0.2,0.1l-2.3-1.2C35.2,31.2,35.2,31.2,35.1,31.1z"/>
				</defs>
				<clipPath id="SVGID_30_">
					<use xlink:href="#SVGID_29_"  style="overflow:visible;"/>
				</clipPath>
				<g class="st29">
					<polyline class="st9" points="37.6,32.5 35.3,31.3 35.3,31.3 37.6,32.5 37.6,32.5 					"/>
					<path class="st9" d="M37.6,32.5l-2.3-1.2c0,0,0,0,0,0L37.6,32.5C37.5,32.5,37.6,32.5,37.6,32.5"/>
					<path class="st8" d="M37.5,32.5l-2.3-1.2c0,0,0,0,0,0L37.5,32.5C37.5,32.5,37.5,32.5,37.5,32.5"/>
					<path class="st8" d="M37.5,32.4l-2.3-1.2c0,0,0,0-0.1,0L37.5,32.4C37.5,32.4,37.5,32.4,37.5,32.4"/>
					<path class="st5" d="M37.4,32.4l-2.3-1.2c0,0,0,0-0.1,0L37.4,32.4C37.4,32.4,37.4,32.4,37.4,32.4"/>
				</g>
			</g>
			<g class="st1">
				<defs>
					<path id="SVGID_31_" class="st1" d="M35.7,34.9l-2.3-1.2c0.2,0.1,0.5,0.2,0.8,0.1c0.5-0.1,1-0.4,1.2-0.6l2.3,1.2
						c-0.2,0.2-0.7,0.5-1.2,0.6C36.1,35.1,35.9,35,35.7,34.9z"/>
				</defs>
				<clipPath id="SVGID_32_">
					<use xlink:href="#SVGID_31_"  style="overflow:visible;"/>
				</clipPath>
				<g class="st30">
					<path class="st15" d="M35.7,34.9l-2.3-1.2c0.2,0.1,0.5,0.2,0.8,0.1c0.5-0.1,1-0.4,1.2-0.6l2.3,1.2c-0.2,0.2-0.7,0.5-1.2,0.6
						C36.1,35.1,35.9,35,35.7,34.9"/>
				</g>
			</g>
			<g class="st1">
				<defs>
					<path id="SVGID_33_" class="st1" d="M36.3,30.5L34,29.3c0.5-0.1,0.8,0,1.3,0.1l2.3,1.2C37.1,30.5,36.8,30.5,36.3,30.5z"/>
				</defs>
				<clipPath id="SVGID_34_">
					<use xlink:href="#SVGID_33_"  style="overflow:visible;"/>
				</clipPath>
				<g class="st31">
					<path class="st15" d="M36.3,30.5L34,29.3c0.5-0.1,0.8,0,1.3,0.1l2.3,1.2C37.1,30.5,36.8,30.5,36.3,30.5"/>
				</g>
			</g>
			<g class="st1">
				<defs>
					<path id="SVGID_35_" class="st1" d="M34.7,36.5l-2.3-1.2c-0.8-0.4-1.2-1.3-1.2-2.4c0-1.7,1.2-3.3,2.9-3.5l2.3,1.2
						c-1.7,0.2-2.9,1.8-2.9,3.5C33.4,35.2,33.9,36,34.7,36.5z"/>
				</defs>
				<clipPath id="SVGID_36_">
					<use xlink:href="#SVGID_35_"  style="overflow:visible;"/>
				</clipPath>
				<g class="st32">
					<path class="st5" d="M34.7,36.5l-2.3-1.2c0,0-0.1,0-0.1-0.1l2.3,1.2C34.6,36.4,34.6,36.4,34.7,36.5"/>
					<path class="st8" d="M34.6,36.4l-2.3-1.2c-0.1,0-0.1-0.1-0.2-0.1l2.3,1.2C34.5,36.3,34.5,36.4,34.6,36.4"/>
					<path class="st8" d="M34.4,36.3L32.1,35c0,0-0.1-0.1-0.1-0.1l2.3,1.2C34.3,36.2,34.4,36.2,34.4,36.3"/>
					<path class="st9" d="M34.3,36.2L32,34.9c0,0-0.1-0.1-0.1-0.1l2.3,1.2C34.2,36.1,34.2,36.1,34.3,36.2"/>
					<path class="st9" d="M34.2,36.1l-2.3-1.2c0,0-0.1-0.1-0.1-0.1l2.3,1.2C34.1,36,34.1,36,34.2,36.1"/>
					<path class="st10" d="M34.1,36l-2.3-1.2c0,0-0.1-0.1-0.1-0.1l2.3,1.2C34,35.9,34.1,35.9,34.1,36"/>
					<path class="st6" d="M34,35.9l-2.3-1.2c0,0-0.1-0.1-0.1-0.1l2.3,1.2C33.9,35.8,34,35.8,34,35.9"/>
					<path class="st6" d="M33.9,35.8l-2.3-1.2c0,0,0-0.1-0.1-0.1l2.3,1.2C33.9,35.7,33.9,35.7,33.9,35.8"/>
					<path class="st11" d="M33.8,35.6l-2.3-1.2c0,0,0-0.1-0.1-0.1l2.3,1.2C33.8,35.6,33.8,35.6,33.8,35.6"/>
					<path class="st11" d="M33.8,35.5l-2.3-1.2c0,0,0-0.1-0.1-0.1l2.3,1.2C33.7,35.4,33.8,35.5,33.8,35.5"/>
					<path class="st12" d="M33.7,35.4l-2.3-1.2c0,0,0-0.1-0.1-0.1l2.3,1.2C33.7,35.3,33.7,35.4,33.7,35.4"/>
					<path class="st12" d="M33.7,35.3L31.4,34c0,0,0-0.1-0.1-0.1l2.3,1.2C33.6,35.2,33.6,35.2,33.7,35.3"/>
					<path class="st2" d="M33.6,35.1l-2.3-1.2c0,0,0-0.1,0-0.2l2.3,1.2C33.6,35,33.6,35.1,33.6,35.1"/>
					<path class="st2" d="M33.6,35l-2.3-1.2c0-0.1,0-0.1,0-0.2l2.3,1.2C33.5,34.9,33.6,34.9,33.6,35"/>
					<path class="st13" d="M33.5,34.8l-2.3-1.2c0-0.1,0-0.1,0-0.2l2.3,1.2C33.5,34.7,33.5,34.8,33.5,34.8"/>
					<path class="st13" d="M33.5,34.6l-2.3-1.2c0-0.1,0-0.1,0-0.2l2.3,1.2C33.5,34.5,33.5,34.6,33.5,34.6"/>
					<path class="st14" d="M33.5,34.4l-2.3-1.2c0-0.1,0-0.2,0-0.3l2.3,1.2C33.4,34.2,33.5,34.3,33.5,34.4"/>
					<path class="st14" d="M33.4,34.1l-2.3-1.2c0,0,0-0.1,0-0.1c0-0.1,0-0.2,0-0.2l2.3,1.2C33.5,33.9,33.4,34,33.4,34.1
						C33.4,34.1,33.4,34.1,33.4,34.1"/>
					<path class="st15" d="M33.5,33.8l-2.3-1.2c0.1-1.6,1.2-3,2.8-3.3l2.3,1.2C34.7,30.8,33.6,32.2,33.5,33.8"/>
				</g>
			</g>
			<g>
				<path class="st4" d="M36.3,30.5c0.5-0.1,0.8,0,1.3,0.1c0,0.1,0,1.5,0,1.9c-0.2-0.2-0.7-0.4-1.2-0.3c-0.7,0.1-1.3,0.9-1.3,1.7
					c0,0.8,0.6,1.2,1.3,1.1c0.5-0.1,1-0.4,1.2-0.6l0,1.7c0,0-0.8,0.4-1.3,0.5c-1.7,0.2-2.8-0.9-2.8-2.6
					C33.5,32.3,34.6,30.8,36.3,30.5z"/>
			</g>
		</g>
		<g class="st1">
			<g class="st1">
				<defs>
					<path id="SVGID_37_" class="st1" d="M30.3,27.2L28,26c0.2,0.1,0.3,0.1,0.6,0.1c0.6-0.1,1.1-0.4,1.1-1.1c0-0.2,0-0.3,0-0.4
						l2.3,1.2c0,0.2,0,0.3,0,0.4c0,0.6-0.5,1-1.1,1.1C30.6,27.3,30.4,27.3,30.3,27.2z"/>
				</defs>
				<clipPath id="SVGID_38_">
					<use xlink:href="#SVGID_37_"  style="overflow:visible;"/>
				</clipPath>
				<g class="st33">
					<path class="st15" d="M30.3,27.2L28,26c0.2,0.1,0.3,0.1,0.6,0.1c0.6-0.1,1.1-0.4,1.1-1l2.3,1.2c0,0.6-0.6,0.9-1.1,1
						C30.6,27.3,30.4,27.3,30.3,27.2"/>
					<path class="st14" d="M32,26.2L29.7,25c0,0,0-0.1,0-0.1c0-0.1,0-0.2,0-0.3l2.3,1.2C32,26,32,26.1,32,26.2
						C32,26.2,32,26.2,32,26.2"/>
					<path class="st14" d="M32,25.9l-2.3-1.2c0,0,0-0.1,0-0.1l2.3,1.2C32,25.8,32,25.8,32,25.9"/>
					<path class="st13" d="M32,25.7l-2.3-1.2c0,0,0,0,0,0L32,25.7C32,25.7,32,25.7,32,25.7"/>
				</g>
			</g>
			<g class="st1">
				<defs>
					<path id="SVGID_39_" class="st1" d="M30.2,25l-2.3-1.2c0.2,0.1,0.4,0.1,0.6,0.1l2.3,1.2C30.5,25.1,30.3,25.1,30.2,25z"/>
				</defs>
				<clipPath id="SVGID_40_">
					<use xlink:href="#SVGID_39_"  style="overflow:visible;"/>
				</clipPath>
				<g class="st34">
					<path class="st15" d="M30.2,25l-2.3-1.2c0.2,0.1,0.4,0.1,0.6,0.1l2.3,1.2C30.5,25.1,30.3,25.1,30.2,25"/>
				</g>
			</g>
			<g class="st1">
				<defs>
					<path id="SVGID_41_" class="st1" d="M29.2,21.1l2.3,1.2c0.4,0.2,0.5,0.6,0.5,1.1c0,0.7-0.4,1.4-1.3,1.6l-2.3-1.2
						c0.8-0.1,1.3-0.9,1.3-1.6C29.8,21.8,29.6,21.3,29.2,21.1z"/>
				</defs>
				<clipPath id="SVGID_42_">
					<use xlink:href="#SVGID_41_"  style="overflow:visible;"/>
				</clipPath>
				<g class="st35">
					<path class="st15" d="M30.8,25.1l-2.3-1.2c0.8-0.1,1.2-0.8,1.3-1.5l2.3,1.2C32,24.3,31.6,25,30.8,25.1"/>
					<path class="st14" d="M32,23.6l-2.3-1.2c0,0,0-0.1,0-0.1c0,0,0,0,0,0l2.3,1.2C32,23.5,32,23.5,32,23.6C32,23.6,32,23.6,32,23.6
						"/>
					<path class="st14" d="M32,23.5l-2.3-1.2c0-0.1,0-0.1,0-0.1l2.3,1.2C32,23.4,32,23.4,32,23.5"/>
					<path class="st13" d="M32,23.3l-2.3-1.2c0,0,0-0.1,0-0.1l2.3,1.2C32,23.2,32,23.3,32,23.3"/>
					<path class="st13" d="M32,23.2L29.7,22c0,0,0-0.1,0-0.1L32,23.2C32,23.1,32,23.2,32,23.2"/>
					<path class="st2" d="M32,23.1l-2.3-1.2c0,0,0-0.1,0-0.1L32,23.1C32,23.1,32,23.1,32,23.1"/>
					<path class="st2" d="M32,23l-2.3-1.2c0,0,0-0.1,0-0.1L32,23C32,23,32,23,32,23"/>
					<path class="st12" d="M32,22.9l-2.3-1.2c0,0,0,0,0-0.1L32,22.9C31.9,22.9,32,22.9,32,22.9"/>
					<path class="st12" d="M31.9,22.9l-2.3-1.2c0,0,0,0,0-0.1L31.9,22.9C31.9,22.8,31.9,22.9,31.9,22.9"/>
					<path class="st11" d="M31.9,22.8l-2.3-1.2c0,0,0,0,0-0.1L31.9,22.8C31.9,22.8,31.9,22.8,31.9,22.8"/>
					<path class="st11" d="M31.9,22.8l-2.3-1.2c0,0,0,0,0-0.1L31.9,22.8C31.9,22.7,31.9,22.7,31.9,22.8"/>
					<path class="st6" d="M31.9,22.7l-2.3-1.2c0,0,0,0,0,0L31.9,22.7C31.8,22.7,31.8,22.7,31.9,22.7"/>
					<path class="st6" d="M31.8,22.7l-2.3-1.2c0,0,0,0,0,0L31.8,22.7C31.8,22.6,31.8,22.6,31.8,22.7"/>
					<path class="st10" d="M31.8,22.6l-2.3-1.2c0,0,0,0,0,0L31.8,22.6C31.8,22.6,31.8,22.6,31.8,22.6"/>
					<path class="st9" d="M31.8,22.6l-2.3-1.2c0,0,0,0,0,0L31.8,22.6C31.7,22.5,31.7,22.6,31.8,22.6"/>
					<path class="st9" d="M31.7,22.5l-2.3-1.2c0,0,0,0,0,0L31.7,22.5C31.7,22.5,31.7,22.5,31.7,22.5"/>
					<path class="st8" d="M31.7,22.5l-2.3-1.2c0,0,0,0-0.1,0L31.7,22.5C31.6,22.5,31.7,22.5,31.7,22.5"/>
					<path class="st8" d="M31.6,22.4l-2.3-1.2c0,0,0,0-0.1,0L31.6,22.4C31.6,22.4,31.6,22.4,31.6,22.4"/>
					<path class="st5" d="M31.6,22.4l-2.3-1.2c0,0,0,0,0,0L31.6,22.4C31.5,22.4,31.5,22.4,31.6,22.4"/>
				</g>
			</g>
			<g>
				<polygon class="st3" points="32,20.7 29.8,19.4 31.4,19.2 33.6,20.5 				"/>
			</g>
			<g>
				<polygon class="st6" points="32,21.4 29.8,20.1 29.8,19.4 32,20.7 				"/>
			</g>
			<g class="st1">
				<defs>
					<path id="SVGID_43_" class="st1" d="M29.1,28.6l-2.3-1.2c-0.5-0.3-0.9-0.8-1-1.4l2.3,1.2C28.2,27.8,28.6,28.3,29.1,28.6z"/>
				</defs>
				<clipPath id="SVGID_44_">
					<use xlink:href="#SVGID_43_"  style="overflow:visible;"/>
				</clipPath>
				<g class="st36">
					<path class="st5" d="M29.1,28.6l-2.3-1.2c0,0-0.1,0-0.1-0.1l2.3,1.2C29,28.5,29,28.6,29.1,28.6"/>
					<path class="st8" d="M29,28.5l-2.3-1.2c0,0-0.1-0.1-0.1-0.1l2.3,1.2C28.9,28.5,28.9,28.5,29,28.5"/>
					<path class="st8" d="M28.8,28.4l-2.3-1.2c0,0-0.1-0.1-0.1-0.1l2.3,1.2C28.8,28.4,28.8,28.4,28.8,28.4"/>
					<path class="st9" d="M28.7,28.3l-2.3-1.2c0,0-0.1-0.1-0.1-0.1L28.7,28.3C28.7,28.3,28.7,28.3,28.7,28.3"/>
					<path class="st9" d="M28.6,28.2L26.4,27c0,0-0.1-0.1-0.1-0.1L28.6,28.2C28.6,28.2,28.6,28.2,28.6,28.2"/>
					<path class="st10" d="M28.6,28.2l-2.3-1.2c0,0,0-0.1-0.1-0.1L28.6,28.2C28.5,28.1,28.5,28.1,28.6,28.2"/>
					<path class="st6" d="M28.5,28.1l-2.3-1.2c0,0,0-0.1-0.1-0.1L28.5,28.1C28.5,28,28.5,28.1,28.5,28.1"/>
					<path class="st6" d="M28.4,28l-2.3-1.2c0,0,0-0.1-0.1-0.1L28.4,28C28.4,27.9,28.4,28,28.4,28"/>
					<path class="st11" d="M28.4,27.9l-2.3-1.2c0,0,0-0.1,0-0.1L28.4,27.9C28.4,27.9,28.4,27.9,28.4,27.9"/>
					<path class="st11" d="M28.3,27.8l-2.3-1.2c0,0,0-0.1,0-0.1L28.3,27.8C28.3,27.8,28.3,27.8,28.3,27.8"/>
					<path class="st12" d="M28.3,27.7L26,26.5c0,0,0-0.1,0-0.1L28.3,27.7C28.3,27.7,28.3,27.7,28.3,27.7"/>
					<path class="st12" d="M28.3,27.7L26,26.4c0,0,0-0.1,0-0.1L28.3,27.7C28.2,27.6,28.2,27.6,28.3,27.7"/>
					<path class="st2" d="M28.2,27.6l-2.3-1.2c0,0,0-0.1,0-0.1l2.3,1.2C28.2,27.5,28.2,27.5,28.2,27.6"/>
					<path class="st2" d="M28.2,27.4l-2.3-1.2c0,0,0-0.1,0-0.1l2.3,1.2C28.2,27.4,28.2,27.4,28.2,27.4"/>
					<path class="st13" d="M28.2,27.3l-2.3-1.2c0,0,0-0.1,0-0.1l2.3,1.2C28.1,27.2,28.1,27.3,28.2,27.3"/>
					<path class="st13" d="M28.1,27.2L25.9,26c0,0,0,0,0-0.1L28.1,27.2C28.1,27.2,28.1,27.2,28.1,27.2"/>
				</g>
			</g>
			<g class="st1">
				<defs>
					<path id="SVGID_45_" class="st1" d="M28.1,27.1l-2.3-1.2c0.1,0,1.4-0.2,1.9-0.3l2.3,1.2C29.6,26.9,28.2,27.1,28.1,27.1z"/>
				</defs>
				<clipPath id="SVGID_46_">
					<use xlink:href="#SVGID_45_"  style="overflow:visible;"/>
				</clipPath>
				<g class="st37">
					<path class="st15" d="M28.1,27.1l-2.3-1.2c0.1,0,1.4-0.2,1.9-0.3l2.3,1.2C29.6,26.9,28.2,27.1,28.1,27.1"/>
				</g>
			</g>
			<g class="st1">
				<defs>
					<path id="SVGID_47_" class="st1" d="M29.2,26.4l-2.3-1.2c-0.7-0.4-1.2-1.3-1.1-2.3c0-1.6,1-3.1,2.4-3.3c0.5-0.1,0.8,0,1.1,0.2
						l2.3,1.2c-0.3-0.2-0.7-0.2-1.1-0.2C29,21,28,22.5,28,24.1C28,25.2,28.5,26,29.2,26.4z"/>
				</defs>
				<clipPath id="SVGID_48_">
					<use xlink:href="#SVGID_47_"  style="overflow:visible;"/>
				</clipPath>
				<g class="st38">
					<path class="st5" d="M29.2,26.4l-2.3-1.2c0,0-0.1,0-0.1-0.1L29.2,26.4C29.1,26.4,29.1,26.4,29.2,26.4"/>
					<path class="st8" d="M29.1,26.4l-2.3-1.2c0,0-0.1-0.1-0.1-0.1l2.3,1.2C29,26.3,29,26.3,29.1,26.4"/>
					<path class="st8" d="M28.9,26.3L26.7,25c0,0-0.1-0.1-0.1-0.1l2.3,1.2C28.9,26.2,28.9,26.2,28.9,26.3"/>
					<path class="st9" d="M28.8,26.2l-2.3-1.2c0,0-0.1-0.1-0.1-0.1L28.8,26.2C28.8,26.1,28.8,26.2,28.8,26.2"/>
					<path class="st9" d="M28.7,26.1l-2.3-1.2c0,0-0.1-0.1-0.1-0.1L28.7,26.1C28.7,26,28.7,26.1,28.7,26.1"/>
					<path class="st10" d="M28.6,26l-2.3-1.2c0,0-0.1-0.1-0.1-0.1L28.6,26C28.6,25.9,28.6,26,28.6,26"/>
					<path class="st6" d="M28.6,25.9l-2.3-1.2c0,0-0.1-0.1-0.1-0.1l2.3,1.2C28.5,25.8,28.5,25.9,28.6,25.9"/>
					<path class="st6" d="M28.5,25.8l-2.3-1.2c0,0,0-0.1-0.1-0.1l2.3,1.2C28.4,25.7,28.5,25.8,28.5,25.8"/>
					<path class="st11" d="M28.4,25.7l-2.3-1.2c0,0,0-0.1-0.1-0.1l2.3,1.2C28.4,25.6,28.4,25.6,28.4,25.7"/>
					<path class="st11" d="M28.4,25.6l-2.3-1.2c0,0,0-0.1-0.1-0.1l2.3,1.2C28.3,25.5,28.3,25.5,28.4,25.6"/>
					<path class="st12" d="M28.3,25.4L26,24.2c0,0,0-0.1-0.1-0.1l2.3,1.2C28.3,25.4,28.3,25.4,28.3,25.4"/>
					<path class="st12" d="M28.2,25.3L26,24.1c0,0,0-0.1-0.1-0.1l2.3,1.2C28.2,25.2,28.2,25.3,28.2,25.3"/>
					<path class="st2" d="M28.2,25.2l-2.3-1.2c0-0.1,0-0.1,0-0.2l2.3,1.2C28.2,25.1,28.2,25.1,28.2,25.2"/>
					<path class="st2" d="M28.1,25l-2.3-1.2c0-0.1,0-0.1,0-0.2l2.3,1.2C28.1,24.9,28.1,25,28.1,25"/>
					<path class="st13" d="M28.1,24.9l-2.3-1.2c0-0.1,0-0.1,0-0.2l2.3,1.2C28.1,24.7,28.1,24.8,28.1,24.9"/>
					<path class="st13" d="M28.1,24.7l-2.3-1.2c0-0.1,0-0.1,0-0.2l2.3,1.2C28,24.5,28.1,24.6,28.1,24.7"/>
					<path class="st14" d="M28,24.4l-2.3-1.2c0-0.1,0-0.2,0-0.3l2.3,1.2C28,24.3,28,24.4,28,24.4"/>
					<path class="st14" d="M28,24.2l-2.3-1.2c0,0,0-0.1,0-0.1c0-0.1,0-0.2,0-0.3l2.3,1.2C28,23.9,28,24,28,24.2
						C28,24.1,28,24.1,28,24.2"/>
					<path class="st15" d="M28,23.8l-2.3-1.2c0.1-1.5,1-2.8,2.4-3c0.5-0.1,0.8,0,1.1,0.2l2.3,1.2c-0.3-0.2-0.7-0.2-1.1-0.2
						C29.1,21,28.1,22.3,28,23.8"/>
				</g>
			</g>
			<g>
				<path class="st4" d="M32,20.7l1.6-0.2c0,0.2,0,4.9,0,5.2c0,1.8-1.3,3-2.8,3.2c-1.3,0.2-2.5-0.4-2.7-1.7c0.1,0,1.4-0.2,1.9-0.3
					c0.2,0.4,0.5,0.4,0.9,0.4c0.6-0.1,1.1-0.4,1.1-1.1c0-0.2,0-0.3,0-0.4c-0.3,0.3-0.9,0.8-1.6,0.9C29,26.8,28,25.7,28,24.1
					c0-1.6,1-3.1,2.4-3.3c0.7-0.1,1.2,0.1,1.6,0.5L32,20.7z M30.8,25.1c0.8-0.1,1.3-0.9,1.3-1.6c0-0.8-0.4-1.4-1.3-1.2
					c-0.8,0.1-1.2,0.8-1.2,1.6C29.6,24.6,30,25.2,30.8,25.1"/>
			</g>
		</g>
		<g class="st1">
			<g>
				<polygon class="st4" points="25.5,27.5 25.5,21.6 27.1,21.4 27.1,27.3 				"/>
			</g>
			<g>
				<polygon class="st6" points="25.5,27.5 23.2,26.3 23.2,20.4 25.5,21.6 				"/>
			</g>
			<g>
				<polygon class="st3" points="25.5,21.6 23.2,20.4 24.9,20.1 27.1,21.4 				"/>
			</g>
		</g>
		<g class="st1">
			<g>
				<path class="st4" d="M26.3,21.1c-0.5,0.1-1-0.3-1-0.9c0-0.6,0.4-1.2,1-1.2c0.6-0.1,1,0.3,1,0.9C27.3,20.4,26.9,21,26.3,21.1z"/>
			</g>
			<g class="st1">
				<defs>
					<path id="SVGID_49_" class="st1" d="M25.8,21l-2.3-1.2c-0.3-0.1-0.5-0.5-0.5-0.8c0-0.6,0.4-1.2,1-1.2c0.2,0,0.4,0,0.5,0.1
						l2.3,1.2c-0.2-0.1-0.3-0.1-0.5-0.1c-0.6,0.1-1,0.6-1,1.2C25.3,20.5,25.5,20.8,25.8,21z"/>
				</defs>
				<clipPath id="SVGID_50_">
					<use xlink:href="#SVGID_49_"  style="overflow:visible;"/>
				</clipPath>
				<g class="st39">
					<path class="st5" d="M25.8,21l-2.3-1.2c0,0,0,0,0,0L25.8,21C25.8,21,25.8,21,25.8,21"/>
					<path class="st8" d="M25.7,21l-2.3-1.2c0,0,0,0-0.1,0L25.7,21C25.7,20.9,25.7,20.9,25.7,21"/>
					<path class="st8" d="M25.7,20.9l-2.3-1.2c0,0,0,0,0,0L25.7,20.9C25.6,20.9,25.7,20.9,25.7,20.9"/>
					<path class="st9" d="M25.6,20.9l-2.3-1.2c0,0,0,0,0,0L25.6,20.9C25.6,20.9,25.6,20.9,25.6,20.9"/>
					<path class="st9" d="M25.6,20.8l-2.3-1.2c0,0,0,0,0,0L25.6,20.8C25.6,20.8,25.6,20.8,25.6,20.8"/>
					<path class="st10" d="M25.6,20.8l-2.3-1.2c0,0,0,0,0,0L25.6,20.8C25.5,20.8,25.5,20.8,25.6,20.8"/>
					<path class="st6" d="M25.5,20.8l-2.3-1.2c0,0,0,0,0,0L25.5,20.8C25.5,20.7,25.5,20.7,25.5,20.8"/>
					<path class="st6" d="M25.5,20.7l-2.3-1.2c0,0,0,0,0,0L25.5,20.7C25.5,20.7,25.5,20.7,25.5,20.7"/>
					<path class="st11" d="M25.5,20.7l-2.3-1.2c0,0,0,0,0,0L25.5,20.7C25.5,20.7,25.5,20.7,25.5,20.7"/>
					<path class="st11" d="M25.4,20.6l-2.3-1.2c0,0,0,0,0,0L25.4,20.6C25.4,20.6,25.4,20.6,25.4,20.6"/>
					<path class="st12" d="M25.4,20.6l-2.3-1.2c0,0,0,0,0,0L25.4,20.6C25.4,20.6,25.4,20.6,25.4,20.6"/>
					<path class="st12" d="M25.4,20.5l-2.3-1.2c0,0,0,0,0,0L25.4,20.5C25.4,20.5,25.4,20.5,25.4,20.5"/>
					<path class="st2" d="M25.4,20.5l-2.3-1.2c0,0,0,0,0-0.1L25.4,20.5C25.4,20.5,25.4,20.5,25.4,20.5"/>
					<path class="st2" d="M25.4,20.4l-2.3-1.2c0,0,0,0,0-0.1L25.4,20.4C25.4,20.4,25.4,20.4,25.4,20.4"/>
					<path class="st13" d="M25.4,20.4l-2.3-1.2c0,0,0,0,0-0.1L25.4,20.4C25.3,20.3,25.4,20.4,25.4,20.4"/>
					<path class="st13" d="M25.3,20.3l-2.3-1.2c0,0,0,0,0-0.1L25.3,20.3C25.3,20.3,25.3,20.3,25.3,20.3"/>
					<path class="st14" d="M25.3,20.2L23.1,19c0,0,0-0.1,0-0.1L25.3,20.2C25.3,20.2,25.3,20.2,25.3,20.2"/>
					<path class="st14" d="M25.3,20.2L23,18.9c0,0,0,0,0,0c0,0,0-0.1,0-0.1l2.3,1.2C25.3,20.1,25.3,20.1,25.3,20.2
						C25.3,20.1,25.3,20.2,25.3,20.2"/>
					<path class="st15" d="M25.3,20.1l-2.3-1.2c0-0.6,0.5-1.1,1-1.1c0.2,0,0.4,0,0.5,0.1l2.3,1.2c-0.2-0.1-0.3-0.1-0.5-0.1
						C25.8,19,25.4,19.5,25.3,20.1"/>
				</g>
			</g>
		</g>
		<g class="st1">
			<g class="st1">
				<defs>
					<path id="SVGID_51_" class="st1" d="M22,26.6l-2.3-1.2c0.1,0.1,0.3,0.1,0.4,0.1c0.3,0,0.6-0.2,0.6-0.5c0-0.1-0.1-0.2-0.2-0.3
						l2.3,1.2C23,26,23,26.1,23,26.2c0,0.3-0.3,0.5-0.6,0.5C22.3,26.7,22.1,26.7,22,26.6z"/>
				</defs>
				<clipPath id="SVGID_52_">
					<use xlink:href="#SVGID_51_"  style="overflow:visible;"/>
				</clipPath>
				<g class="st40">
					<path class="st15" d="M22,26.6l-2.3-1.2c0.1,0.1,0.3,0.1,0.4,0.1c0.3,0,0.6-0.2,0.6-0.5l2.3,1.2c0,0.3-0.3,0.4-0.6,0.5
						C22.3,26.7,22.1,26.7,22,26.6"/>
					<path class="st14" d="M23,26.2L20.8,25c0,0,0,0,0,0c0,0,0,0,0,0L23,26.2C23,26.2,23,26.2,23,26.2C23,26.2,23,26.2,23,26.2"/>
					<path class="st14" d="M23,26.2l-2.3-1.2c0,0,0,0,0,0L23,26.2C23,26.2,23,26.2,23,26.2"/>
					<path class="st13" d="M23,26.2l-2.3-1.2c0,0,0,0,0,0L23,26.2C23,26.1,23,26.2,23,26.2"/>
					<path class="st13" d="M23,26.1l-2.3-1.2c0,0,0,0,0,0L23,26.1C23,26.1,23,26.1,23,26.1"/>
					<path class="st2" d="M23,26.1l-2.3-1.2c0,0,0,0,0,0L23,26.1C23,26.1,23,26.1,23,26.1"/>
					<path class="st2" d="M23,26.1l-2.3-1.2c0,0,0,0,0,0L23,26.1C23,26.1,23,26.1,23,26.1"/>
					<path class="st12" d="M23,26.1l-2.3-1.2c0,0,0,0,0,0L23,26.1C23,26.1,23,26.1,23,26.1"/>
					<path class="st12" d="M23,26.1l-2.3-1.2c0,0,0,0,0,0L23,26.1C23,26.1,23,26.1,23,26.1"/>
					<path class="st11" d="M23,26.1l-2.3-1.2c0,0,0,0,0,0L23,26.1C23,26.1,23,26.1,23,26.1"/>
					<path class="st11" d="M23,26.1l-2.3-1.2c0,0,0,0,0,0L23,26.1C23,26,23,26,23,26.1"/>
					<path class="st6" d="M23,26l-2.3-1.2c0,0,0,0,0,0L23,26C23,26,23,26,23,26"/>
					<path class="st6" d="M23,26l-2.3-1.2c0,0,0,0,0,0L23,26C23,26,23,26,23,26"/>
					<polyline class="st10" points="23,26 20.7,24.8 20.7,24.8 23,26 23,26 					"/>
					<path class="st9" d="M23,26l-2.3-1.2c0,0,0,0,0,0L23,26C23,26,23,26,23,26"/>
					<path class="st9" d="M23,26l-2.3-1.2c0,0,0,0,0,0L23,26C22.9,26,22.9,26,23,26"/>
					<path class="st8" d="M22.9,26l-2.3-1.2c0,0,0,0,0,0L22.9,26C22.9,26,22.9,26,22.9,26"/>
					<path class="st8" d="M22.9,26l-2.3-1.2c0,0,0,0,0,0L22.9,26C22.9,25.9,22.9,25.9,22.9,26"/>
					<path class="st5" d="M22.9,25.9l-2.3-1.2c0,0,0,0,0,0L22.9,25.9C22.9,25.9,22.9,25.9,22.9,25.9"/>
				</g>
			</g>
			<g class="st1">
				<defs>
					<path id="SVGID_53_" class="st1" d="M20.7,22.2l2.3,1.2c0.2,0.1,0.3,0.3,0.3,0.3l-2.3-1.2C20.9,22.5,20.8,22.3,20.7,22.2z"/>
				</defs>
				<clipPath id="SVGID_54_">
					<use xlink:href="#SVGID_53_"  style="overflow:visible;"/>
				</clipPath>
				<g class="st41">
					<polyline class="st12" points="23.2,23.7 20.9,22.5 20.9,22.5 23.2,23.7 23.2,23.7 					"/>
					<path class="st11" d="M23.2,23.7l-2.3-1.2c0,0,0,0,0,0L23.2,23.7C23.2,23.7,23.2,23.7,23.2,23.7"/>
					<path class="st11" d="M23.2,23.7l-2.3-1.2c0,0,0,0,0,0L23.2,23.7C23.2,23.7,23.2,23.7,23.2,23.7"/>
					<path class="st6" d="M23.2,23.6l-2.3-1.2c0,0,0,0,0,0L23.2,23.6C23.2,23.6,23.2,23.6,23.2,23.6"/>
					<path class="st6" d="M23.2,23.6l-2.3-1.2c0,0,0,0,0,0L23.2,23.6C23.1,23.6,23.2,23.6,23.2,23.6"/>
					<path class="st10" d="M23.1,23.6l-2.3-1.2c0,0,0,0,0,0L23.1,23.6C23.1,23.6,23.1,23.6,23.1,23.6"/>
					<path class="st9" d="M23.1,23.5l-2.3-1.2c0,0,0,0,0,0L23.1,23.5C23.1,23.5,23.1,23.5,23.1,23.5"/>
					<path class="st9" d="M23.1,23.5l-2.3-1.2c0,0,0,0,0,0L23.1,23.5C23.1,23.5,23.1,23.5,23.1,23.5"/>
					<path class="st8" d="M23,23.5l-2.3-1.2c0,0,0,0,0,0L23,23.5C23,23.5,23,23.5,23,23.5"/>
					<path class="st8" d="M23,23.4l-2.3-1.2c0,0,0,0,0,0L23,23.4C23,23.4,23,23.4,23,23.4"/>
					<path class="st5" d="M23,23.4l-2.3-1.2c0,0,0,0,0,0L23,23.4C22.9,23.4,23,23.4,23,23.4"/>
				</g>
			</g>
			<g class="st1">
				<defs>
					<path id="SVGID_55_" class="st1" d="M22.3,24L20,22.7c0.3,0.2,1.1,0.2,1.6,0.5l2.3,1.2C23.3,24.2,22.6,24.2,22.3,24z"/>
				</defs>
				<clipPath id="SVGID_56_">
					<use xlink:href="#SVGID_55_"  style="overflow:visible;"/>
				</clipPath>
				<g class="st42">
					<path class="st15" d="M22.3,24L20,22.7c0.3,0.2,1.1,0.2,1.6,0.5l2.3,1.2C23.3,24.2,22.6,24.2,22.3,24"/>
				</g>
			</g>
			<g class="st1">
				<defs>
					<path id="SVGID_57_" class="st1" d="M21.1,27.9l-2.3-1.2c-0.3-0.2-0.5-0.4-0.7-0.8l2.3,1.2C20.6,27.5,20.8,27.7,21.1,27.9z"/>
				</defs>
				<clipPath id="SVGID_58_">
					<use xlink:href="#SVGID_57_"  style="overflow:visible;"/>
				</clipPath>
				<g class="st43">
					<path class="st5" d="M21.1,27.9l-2.3-1.2c0,0-0.1,0-0.1,0L21.1,27.9C21.1,27.9,21.1,27.9,21.1,27.9"/>
					<path class="st8" d="M21.1,27.9l-2.3-1.2c0,0-0.1-0.1-0.1-0.1l2.3,1.2C21,27.8,21,27.8,21.1,27.9"/>
					<path class="st8" d="M20.9,27.8l-2.3-1.2c0,0-0.1-0.1-0.1-0.1L20.9,27.8C20.9,27.7,20.9,27.8,20.9,27.8"/>
					<path class="st9" d="M20.8,27.7l-2.3-1.2c0,0-0.1-0.1-0.1-0.1L20.8,27.7C20.8,27.6,20.8,27.7,20.8,27.7"/>
					<path class="st9" d="M20.8,27.6l-2.3-1.2c0,0-0.1-0.1-0.1-0.1L20.8,27.6C20.7,27.6,20.7,27.6,20.8,27.6"/>
					<path class="st10" d="M20.7,27.5l-2.3-1.2c0,0-0.1-0.1-0.1-0.1L20.7,27.5C20.6,27.5,20.7,27.5,20.7,27.5"/>
					<path class="st6" d="M20.6,27.4l-2.3-1.2c0,0,0-0.1-0.1-0.1L20.6,27.4C20.6,27.4,20.6,27.4,20.6,27.4"/>
					<path class="st6" d="M20.5,27.3l-2.3-1.2c0,0,0-0.1-0.1-0.1l2.3,1.2C20.5,27.3,20.5,27.3,20.5,27.3"/>
					<path class="st11" d="M20.5,27.2L18.2,26c0,0,0-0.1-0.1-0.1L20.5,27.2C20.4,27.2,20.4,27.2,20.5,27.2"/>
				</g>
			</g>
			<g>
				<polygon class="st3" points="20.4,27.1 18.1,25.9 19.4,25 21.7,26.3 				"/>
			</g>
			<g class="st1">
				<defs>
					<path id="SVGID_59_" class="st1" d="M21.4,20.8l2.3,1.2c-0.3-0.2-0.6-0.2-1-0.2l-2.3-1.2C20.8,20.6,21.1,20.7,21.4,20.8z"/>
				</defs>
				<clipPath id="SVGID_60_">
					<use xlink:href="#SVGID_59_"  style="overflow:visible;"/>
				</clipPath>
				<g class="st44">
					<path class="st15" d="M22.7,21.9l-2.3-1.2c0.4-0.1,0.7,0,1,0.2l2.3,1.2C23.4,21.9,23.1,21.8,22.7,21.9"/>
				</g>
			</g>
			<g class="st1">
				<defs>
					<path id="SVGID_61_" class="st1" d="M21.3,25.4L19,24.2c-0.4-0.2-0.7-0.6-0.7-1.3c0-1.1,0.9-2,2.1-2.2l2.3,1.2
						c-1.2,0.2-2.1,1.1-2.1,2.2C20.6,24.8,20.9,25.2,21.3,25.4z"/>
				</defs>
				<clipPath id="SVGID_62_">
					<use xlink:href="#SVGID_61_"  style="overflow:visible;"/>
				</clipPath>
				<g class="st45">
					<path class="st5" d="M21.3,25.4L19,24.2c0,0-0.1,0-0.1,0L21.3,25.4C21.3,25.4,21.3,25.4,21.3,25.4"/>
					<path class="st8" d="M21.2,25.4L19,24.2c0,0-0.1,0-0.1-0.1l2.3,1.2C21.2,25.4,21.2,25.4,21.2,25.4"/>
					<path class="st8" d="M21.1,25.3l-2.3-1.2c0,0,0,0-0.1-0.1L21.1,25.3C21.1,25.3,21.1,25.3,21.1,25.3"/>
					<path class="st9" d="M21,25.3L18.8,24c0,0,0,0-0.1-0.1L21,25.3C21,25.2,21,25.2,21,25.3"/>
					<path class="st9" d="M21,25.2L18.7,24c0,0,0,0-0.1-0.1L21,25.2C20.9,25.2,21,25.2,21,25.2"/>
					<path class="st10" d="M20.9,25.1l-2.3-1.2c0,0,0,0,0-0.1L20.9,25.1C20.9,25.1,20.9,25.1,20.9,25.1"/>
					<path class="st6" d="M20.9,25.1l-2.3-1.2c0,0,0,0,0-0.1L20.9,25.1C20.9,25.1,20.9,25.1,20.9,25.1"/>
					<path class="st6" d="M20.8,25l-2.3-1.2c0,0,0,0,0-0.1L20.8,25C20.8,25,20.8,25,20.8,25"/>
					<path class="st11" d="M20.8,25l-2.3-1.2c0,0,0,0,0-0.1L20.8,25C20.8,24.9,20.8,25,20.8,25"/>
					<path class="st11" d="M20.8,24.9l-2.3-1.2c0,0,0,0,0-0.1L20.8,24.9C20.8,24.9,20.8,24.9,20.8,24.9"/>
					<path class="st12" d="M20.7,24.9l-2.3-1.2c0,0,0,0,0-0.1L20.7,24.9C20.7,24.8,20.7,24.8,20.7,24.9"/>
					<path class="st12" d="M20.7,24.8l-2.3-1.2c0,0,0,0,0-0.1L20.7,24.8C20.7,24.7,20.7,24.8,20.7,24.8"/>
					<path class="st2" d="M20.7,24.7l-2.3-1.2c0,0,0,0,0-0.1L20.7,24.7C20.7,24.7,20.7,24.7,20.7,24.7"/>
					<path class="st2" d="M20.7,24.6l-2.3-1.2c0,0,0-0.1,0-0.1L20.7,24.6C20.6,24.6,20.7,24.6,20.7,24.6"/>
					<path class="st13" d="M20.6,24.5l-2.3-1.2c0,0,0-0.1,0-0.1l2.3,1.2C20.6,24.5,20.6,24.5,20.6,24.5"/>
					<path class="st13" d="M20.6,24.4l-2.3-1.2c0,0,0-0.1,0-0.1l2.3,1.2C20.6,24.4,20.6,24.4,20.6,24.4"/>
					<path class="st14" d="M20.6,24.3l-2.3-1.2c0-0.1,0-0.1,0-0.2l2.3,1.2C20.6,24.2,20.6,24.3,20.6,24.3"/>
					<path class="st14" d="M20.6,24.2l-2.3-1.2c0,0,0,0,0,0c0,0,0-0.1,0-0.1l2.3,1.2C20.6,24,20.6,24.1,20.6,24.2
						C20.6,24.1,20.6,24.1,20.6,24.2"/>
					<path class="st15" d="M20.6,24l-2.3-1.2c0.1-1.1,0.9-1.9,2.1-2.1l2.3,1.2C21.5,22.1,20.7,22.9,20.6,24"/>
				</g>
			</g>
			<g>
				<path class="st4" d="M22.7,21.9c0.8-0.1,1.4,0.3,1.8,1l-1.3,0.8c0,0-0.2-0.4-0.7-0.4c-0.3,0-0.4,0.2-0.4,0.4
					c0,0.7,2.5,0,2.5,2.1c0,1.3-1,2.1-2.2,2.3c-0.9,0.1-1.6-0.1-2-0.9l1.3-0.9c0,0,0.3,0.5,0.8,0.4c0.3,0,0.6-0.2,0.6-0.5
					c0-0.7-2.4,0-2.4-2.1C20.6,23,21.5,22.1,22.7,21.9z"/>
			</g>
		</g>
		<g class="st1">
			<g class="st1">
				<defs>
					<path id="SVGID_63_" class="st1" d="M18.6,26.3L16.3,25c0,0,1,0.5,1.3,0.6l2.3,1.2C19.6,26.7,18.6,26.3,18.6,26.3z"/>
				</defs>
				<clipPath id="SVGID_64_">
					<use xlink:href="#SVGID_63_"  style="overflow:visible;"/>
				</clipPath>
				<g class="st46">
					<path class="st15" d="M18.6,26.3L16.3,25c0,0,1,0.5,1.3,0.6l2.3,1.2C19.6,26.7,18.6,26.3,18.6,26.3"/>
				</g>
			</g>
			<g class="st1">
				<defs>
					<path id="SVGID_65_" class="st1" d="M16.6,27.1l-2.3-1.2c0.2,0.1,0.5,0.2,0.8,0.1c0.5-0.1,0.9-0.5,1.2-1l2.3,1.2
						c-0.3,0.4-0.6,0.9-1.2,1C17.1,27.3,16.8,27.3,16.6,27.1z"/>
				</defs>
				<clipPath id="SVGID_66_">
					<use xlink:href="#SVGID_65_"  style="overflow:visible;"/>
				</clipPath>
				<g class="st47">
					<path class="st15" d="M16.6,27.1l-2.3-1.2c0.2,0.1,0.5,0.2,0.8,0.1c0.5-0.1,0.9-0.5,1.2-1l2.3,1.2c-0.3,0.4-0.6,0.9-1.2,1
						C17.1,27.3,16.8,27.3,16.6,27.1"/>
				</g>
			</g>
			<g class="st1">
				<defs>
					<path id="SVGID_67_" class="st1" d="M15.5,23l2.3,1.2c0.2,0.1,0.3,0.3,0.4,0.6L16,23.6C15.9,23.3,15.7,23.1,15.5,23z"/>
				</defs>
				<clipPath id="SVGID_68_">
					<use xlink:href="#SVGID_67_"  style="overflow:visible;"/>
				</clipPath>
				<g class="st48">
					<path class="st12" d="M18.3,24.8L16,23.6c0,0,0-0.1,0-0.1L18.3,24.8C18.2,24.8,18.2,24.8,18.3,24.8"/>
					<path class="st12" d="M18.2,24.8l-2.3-1.2c0,0,0-0.1,0-0.1L18.2,24.8C18.2,24.7,18.2,24.7,18.2,24.8"/>
					<path class="st11" d="M18.2,24.7l-2.3-1.2c0,0,0-0.1,0-0.1L18.2,24.7C18.2,24.6,18.2,24.6,18.2,24.7"/>
					<path class="st11" d="M18.1,24.6l-2.3-1.2c0,0,0,0,0-0.1L18.1,24.6C18.1,24.5,18.1,24.6,18.1,24.6"/>
					<path class="st6" d="M18.1,24.5l-2.3-1.2c0,0,0,0,0-0.1L18.1,24.5C18.1,24.5,18.1,24.5,18.1,24.5"/>
					<path class="st6" d="M18.1,24.5l-2.3-1.2c0,0,0,0,0,0L18.1,24.5C18.1,24.4,18.1,24.5,18.1,24.5"/>
					<path class="st10" d="M18,24.4l-2.3-1.2c0,0,0,0,0,0L18,24.4C18,24.4,18,24.4,18,24.4"/>
					<path class="st9" d="M18,24.4l-2.3-1.2c0,0,0,0,0,0L18,24.4C18,24.4,18,24.4,18,24.4"/>
					<path class="st9" d="M18,24.3l-2.3-1.2c0,0,0,0,0,0L18,24.3C17.9,24.3,18,24.3,18,24.3"/>
					<path class="st8" d="M17.9,24.3l-2.3-1.2c0,0,0,0,0,0L17.9,24.3C17.9,24.3,17.9,24.3,17.9,24.3"/>
					<path class="st8" d="M17.9,24.3L15.6,23c0,0,0,0,0,0L17.9,24.3C17.9,24.3,17.9,24.3,17.9,24.3"/>
					<path class="st5" d="M17.8,24.2L15.6,23c0,0,0,0,0,0L17.8,24.2C17.8,24.2,17.8,24.2,17.8,24.2"/>
				</g>
			</g>
			<g class="st1">
				<defs>
					<path id="SVGID_69_" class="st1" d="M16.2,25.1l-2.3-1.2c0.1,0,1.9-0.3,2.1-0.3l2.3,1.2C18.1,24.9,16.3,25.1,16.2,25.1z"/>
				</defs>
				<clipPath id="SVGID_70_">
					<use xlink:href="#SVGID_69_"  style="overflow:visible;"/>
				</clipPath>
				<g class="st49">
					<path class="st15" d="M16.2,25.1l-2.3-1.2c0.1,0,1.9-0.3,2.1-0.3l2.3,1.2C18.1,24.9,16.3,25.1,16.2,25.1"/>
				</g>
			</g>
			<g>
				<path class="st4" d="M20,25.5c0,0.1,0,0.2,0,0.4c-0.2,0-3.7,0.5-3.8,0.5c0.1,0.7,0.7,0.9,1.3,0.9c0.5-0.1,0.9-0.5,1.2-1
					c0,0,1,0.5,1.3,0.6c-0.5,1-1.4,1.7-2.6,1.9c-1.7,0.2-2.8-0.7-2.8-2.7c0-1.8,1.2-3.2,2.8-3.5C18.9,22.4,20,23.4,20,25.5z
					 M16.2,25.1c0.1,0,1.9-0.3,2.1-0.3c-0.2-0.5-0.5-0.8-1-0.7C16.7,24.2,16.4,24.6,16.2,25.1"/>
			</g>
			<g class="st1">
				<defs>
					<path id="SVGID_71_" class="st1" d="M15.7,28.6l-2.3-1.2c-0.7-0.4-1.2-1.2-1.2-2.4c0-1.8,1.2-3.2,2.8-3.5
						c0.6-0.1,1.1,0,1.5,0.2l2.3,1.2c-0.4-0.2-0.9-0.3-1.5-0.2c-1.6,0.2-2.8,1.7-2.8,3.5C14.5,27.3,14.9,28.2,15.7,28.6z"/>
				</defs>
				<clipPath id="SVGID_72_">
					<use xlink:href="#SVGID_71_"  style="overflow:visible;"/>
				</clipPath>
				<g class="st50">
					<path class="st5" d="M15.7,28.6l-2.3-1.2c0,0-0.1,0-0.1-0.1l2.3,1.2C15.6,28.5,15.6,28.5,15.7,28.6"/>
					<path class="st8" d="M15.6,28.5l-2.3-1.2c-0.1,0-0.1-0.1-0.1-0.1l2.3,1.2C15.5,28.4,15.5,28.5,15.6,28.5"/>
					<path class="st8" d="M15.4,28.4l-2.3-1.2c0,0-0.1-0.1-0.1-0.1l2.3,1.2C15.3,28.3,15.4,28.4,15.4,28.4"/>
					<path class="st9" d="M15.3,28.3L13,27.1c0,0-0.1-0.1-0.1-0.1L15.3,28.3C15.2,28.2,15.3,28.3,15.3,28.3"/>
					<path class="st9" d="M15.2,28.2L12.9,27c0,0-0.1-0.1-0.1-0.1L15.2,28.2C15.1,28.1,15.2,28.2,15.2,28.2"/>
					<path class="st10" d="M15.1,28.1l-2.3-1.2c0,0-0.1-0.1-0.1-0.1L15.1,28.1C15,28.1,15.1,28.1,15.1,28.1"/>
					<path class="st6" d="M15,28l-2.3-1.2c0,0,0-0.1-0.1-0.1L15,28C15,28,15,28,15,28"/>
					<path class="st6" d="M15,27.9l-2.3-1.2c0,0,0-0.1-0.1-0.1l2.3,1.2C14.9,27.8,14.9,27.9,15,27.9"/>
					<path class="st11" d="M14.9,27.8l-2.3-1.2c0,0,0-0.1-0.1-0.1l2.3,1.2C14.8,27.7,14.9,27.8,14.9,27.8"/>
					<path class="st11" d="M14.8,27.7l-2.3-1.2c0,0,0-0.1-0.1-0.1l2.3,1.2C14.8,27.6,14.8,27.7,14.8,27.7"/>
					<path class="st12" d="M14.8,27.6l-2.3-1.2c0,0,0-0.1-0.1-0.1l2.3,1.2C14.7,27.5,14.7,27.5,14.8,27.6"/>
					<path class="st12" d="M14.7,27.5l-2.3-1.2c0,0,0-0.1-0.1-0.1l2.3,1.2C14.7,27.4,14.7,27.4,14.7,27.5"/>
					<path class="st2" d="M14.7,27.3l-2.3-1.2c0,0,0-0.1,0-0.2l2.3,1.2C14.6,27.2,14.6,27.3,14.7,27.3"/>
					<path class="st2" d="M14.6,27.2l-2.3-1.2c0-0.1,0-0.1,0-0.2l2.3,1.2C14.6,27.1,14.6,27.1,14.6,27.2"/>
					<path class="st13" d="M14.6,27l-2.3-1.2c0-0.1,0-0.1,0-0.2l2.3,1.2C14.5,26.9,14.6,26.9,14.6,27"/>
					<path class="st13" d="M14.5,26.8l-2.3-1.2c0-0.1,0-0.2,0-0.2l2.3,1.2C14.5,26.6,14.5,26.7,14.5,26.8"/>
					<path class="st14" d="M14.5,26.5l-2.3-1.2c0-0.1,0-0.2,0-0.3l2.3,1.2C14.5,26.3,14.5,26.4,14.5,26.5"/>
					<path class="st14" d="M14.5,26.2L12.2,25c0,0,0-0.1,0-0.1c0-0.1,0-0.2,0-0.3l2.3,1.2c0,0.1,0,0.2,0,0.3
						C14.5,26.1,14.5,26.2,14.5,26.2"/>
					<path class="st15" d="M14.5,25.9l-2.3-1.2c0.1-1.7,1.3-3,2.8-3.2c0.6-0.1,1.1,0,1.5,0.2l2.3,1.2c-0.4-0.2-0.9-0.3-1.5-0.2
						C15.8,22.9,14.6,24.2,14.5,25.9"/>
				</g>
			</g>
		</g>
		<g class="st1">
			<g>
				<polygon class="st6" points="12,29.4 9.7,28.2 9.7,27.5 12,28.8 				"/>
			</g>
			<g class="st1">
				<defs>
					<path id="SVGID_73_" class="st1" d="M10,28l-2.3-1.2c0.2,0.1,0.4,0.1,0.7,0.1l2.3,1.2C10.4,28.2,10.2,28.1,10,28z"/>
				</defs>
				<clipPath id="SVGID_74_">
					<use xlink:href="#SVGID_73_"  style="overflow:visible;"/>
				</clipPath>
				<g class="st51">
					<path class="st15" d="M10,28l-2.3-1.2c0.2,0.1,0.4,0.1,0.7,0.1l2.3,1.2C10.4,28.2,10.2,28.1,10,28"/>
				</g>
			</g>
			<g class="st1">
				<defs>
					<path id="SVGID_75_" class="st1" d="M9.2,24.1l2.3,1.2c0.4,0.2,0.6,0.6,0.6,1.1c0,0.8-0.5,1.5-1.3,1.6l-2.3-1.2
						c0.9-0.1,1.3-0.8,1.3-1.6C9.7,24.7,9.5,24.3,9.2,24.1z"/>
				</defs>
				<clipPath id="SVGID_76_">
					<use xlink:href="#SVGID_75_"  style="overflow:visible;"/>
				</clipPath>
				<g class="st52">
					<path class="st15" d="M10.7,28.1l-2.3-1.2c0.8-0.1,1.3-0.8,1.3-1.5l2.3,1.2C12,27.4,11.5,28,10.7,28.1"/>
					<path class="st14" d="M12,26.6l-2.3-1.2c0,0,0-0.1,0-0.1c0,0,0,0,0,0l2.3,1.2c0,0,0,0,0,0C12,26.5,12,26.6,12,26.6"/>
					<path class="st14" d="M12,26.4l-2.3-1.2c0,0,0-0.1,0-0.1l2.3,1.2C12,26.4,12,26.4,12,26.4"/>
					<path class="st13" d="M12,26.3l-2.3-1.2c0,0,0-0.1,0-0.1l2.3,1.2C12,26.2,12,26.3,12,26.3"/>
					<path class="st13" d="M12,26.2L9.7,25c0,0,0-0.1,0-0.1L12,26.2C12,26.1,12,26.2,12,26.2"/>
					<path class="st2" d="M12,26.1l-2.3-1.2c0,0,0-0.1,0-0.1L12,26.1C12,26.1,12,26.1,12,26.1"/>
					<path class="st2" d="M12,26l-2.3-1.2c0,0,0,0,0-0.1L12,26C12,26,12,26,12,26"/>
					<path class="st12" d="M11.9,26l-2.3-1.2c0,0,0,0,0-0.1L11.9,26C11.9,25.9,11.9,25.9,11.9,26"/>
					<path class="st12" d="M11.9,25.9l-2.3-1.2c0,0,0,0,0-0.1L11.9,25.9C11.9,25.8,11.9,25.9,11.9,25.9"/>
					<path class="st11" d="M11.9,25.8l-2.3-1.2c0,0,0,0,0-0.1L11.9,25.8C11.9,25.8,11.9,25.8,11.9,25.8"/>
					<path class="st11" d="M11.9,25.8l-2.3-1.2c0,0,0,0,0-0.1L11.9,25.8C11.8,25.7,11.9,25.7,11.9,25.8"/>
					<path class="st6" d="M11.8,25.7l-2.3-1.2c0,0,0,0,0-0.1L11.8,25.7C11.8,25.7,11.8,25.7,11.8,25.7"/>
					<path class="st6" d="M11.8,25.7l-2.3-1.2c0,0,0,0,0-0.1L11.8,25.7C11.8,25.6,11.8,25.6,11.8,25.7"/>
					<path class="st10" d="M11.8,25.6l-2.3-1.2c0,0,0,0,0,0L11.8,25.6C11.7,25.6,11.7,25.6,11.8,25.6"/>
					<path class="st9" d="M11.7,25.6l-2.3-1.2c0,0,0,0,0,0L11.7,25.6C11.7,25.5,11.7,25.5,11.7,25.6"/>
					<path class="st9" d="M11.7,25.5l-2.3-1.2c0,0,0,0-0.1,0L11.7,25.5C11.6,25.5,11.7,25.5,11.7,25.5"/>
					<path class="st8" d="M11.6,25.5l-2.3-1.2c0,0,0,0-0.1,0L11.6,25.5C11.6,25.4,11.6,25.4,11.6,25.5"/>
					<path class="st8" d="M11.6,25.4l-2.3-1.2c0,0,0,0-0.1,0L11.6,25.4C11.5,25.4,11.5,25.4,11.6,25.4"/>
					<path class="st5" d="M11.5,25.4l-2.3-1.2c0,0,0,0,0,0L11.5,25.4C11.5,25.3,11.5,25.4,11.5,25.4"/>
				</g>
			</g>
			<g>
				<polygon class="st6" points="11.9,24.1 9.7,22.8 9.7,20.8 12,22 				"/>
			</g>
			<g>
				<polygon class="st3" points="12,22 9.7,20.8 11.3,20.6 13.6,21.8 				"/>
			</g>
			<g class="st1">
				<defs>
					<path id="SVGID_77_" class="st1" d="M9.3,22.6l2.3,1.2c-0.3-0.1-0.7-0.3-1.2-0.2l-2.3-1.2C8.6,22.3,9.1,22.5,9.3,22.6z"/>
				</defs>
				<clipPath id="SVGID_78_">
					<use xlink:href="#SVGID_77_"  style="overflow:visible;"/>
				</clipPath>
				<g class="st53">
					<path class="st15" d="M10.4,23.6l-2.3-1.2c0.5-0.1,1,0.1,1.2,0.2l2.3,1.2C11.3,23.7,10.9,23.5,10.4,23.6"/>
				</g>
			</g>
			<g>
				<path class="st4" d="M12,22l1.7-0.2l0,7.4L12,29.4l0-0.6c-0.5,0.6-1,0.9-1.8,1c-1.5,0.2-2.5-1.1-2.5-2.7c0-1.6,1-3.3,2.6-3.5
					c1-0.1,1.5,0.4,1.6,0.5L12,22z M10.7,28.1c0.9-0.1,1.3-0.8,1.3-1.6c0-0.8-0.5-1.4-1.3-1.3c-0.8,0.1-1.3,0.9-1.3,1.6
					C9.4,27.7,9.9,28.2,10.7,28.1"/>
			</g>
			<g class="st1">
				<defs>
					<path id="SVGID_79_" class="st1" d="M8.9,29.6l-2.3-1.2c-0.8-0.4-1.2-1.4-1.2-2.5c0-1.6,1-3.3,2.6-3.5l2.3,1.2
						c-1.6,0.2-2.6,1.9-2.6,3.5C7.7,28.2,8.2,29.2,8.9,29.6z"/>
				</defs>
				<clipPath id="SVGID_80_">
					<use xlink:href="#SVGID_79_"  style="overflow:visible;"/>
				</clipPath>
				<g class="st54">
					<path class="st5" d="M8.9,29.6l-2.3-1.2c0,0-0.1,0-0.1-0.1L8.9,29.6C8.9,29.6,8.9,29.6,8.9,29.6"/>
					<path class="st8" d="M8.8,29.5l-2.3-1.2c0,0-0.1-0.1-0.1-0.1l2.3,1.2C8.8,29.5,8.8,29.5,8.8,29.5"/>
					<path class="st8" d="M8.7,29.4l-2.3-1.2c0,0-0.1-0.1-0.1-0.1l2.3,1.2C8.6,29.4,8.7,29.4,8.7,29.4"/>
					<path class="st9" d="M8.6,29.3l-2.3-1.2c0,0-0.1-0.1-0.1-0.1l2.3,1.2C8.5,29.3,8.6,29.3,8.6,29.3"/>
					<path class="st9" d="M8.5,29.2L6.2,28c0,0-0.1-0.1-0.1-0.1L8.5,29.2C8.4,29.2,8.5,29.2,8.5,29.2"/>
					<path class="st10" d="M8.4,29.1l-2.3-1.2c0,0-0.1-0.1-0.1-0.1L8.3,29C8.3,29.1,8.4,29.1,8.4,29.1"/>
					<path class="st6" d="M8.3,29L6,27.8c0,0-0.1-0.1-0.1-0.1l2.3,1.2C8.3,29,8.3,29,8.3,29"/>
					<path class="st6" d="M8.2,28.9L6,27.7c0,0,0-0.1-0.1-0.1l2.3,1.2C8.2,28.9,8.2,28.9,8.2,28.9"/>
					<path class="st11" d="M8.2,28.8l-2.3-1.2c0,0,0-0.1-0.1-0.1l2.3,1.2C8.1,28.7,8.1,28.8,8.2,28.8"/>
					<path class="st11" d="M8.1,28.7l-2.3-1.2c0,0,0-0.1-0.1-0.1L8,28.6C8.1,28.6,8.1,28.7,8.1,28.7"/>
					<path class="st12" d="M8,28.6l-2.3-1.2c0,0,0-0.1-0.1-0.1L8,28.4C8,28.5,8,28.5,8,28.6"/>
					<path class="st12" d="M8,28.4l-2.3-1.2c0,0,0-0.1-0.1-0.2l2.3,1.2C7.9,28.3,8,28.4,8,28.4"/>
					<path class="st2" d="M7.9,28.3L5.6,27c0-0.1,0-0.1-0.1-0.2l2.3,1.2C7.9,28.2,7.9,28.2,7.9,28.3"/>
					<path class="st2" d="M7.9,28.1l-2.3-1.2c0-0.1,0-0.1,0-0.2l2.3,1.2C7.8,28,7.9,28.1,7.9,28.1"/>
					<path class="st13" d="M7.8,27.9l-2.3-1.2c0-0.1,0-0.1,0-0.2l2.3,1.2C7.8,27.8,7.8,27.9,7.8,27.9"/>
					<path class="st13" d="M7.8,27.7l-2.3-1.2c0-0.1,0-0.2,0-0.2l2.3,1.2C7.8,27.6,7.8,27.6,7.8,27.7"/>
					<path class="st14" d="M7.8,27.5l-2.3-1.2c0-0.1,0-0.2,0-0.3l2.3,1.2C7.7,27.3,7.7,27.4,7.8,27.5"/>
					<path class="st14" d="M7.7,27.2L5.5,26c0,0,0-0.1,0-0.1c0-0.1,0-0.2,0-0.3l2.3,1.2C7.7,26.9,7.7,27,7.7,27.2
						C7.7,27.1,7.7,27.2,7.7,27.2"/>
					<path class="st15" d="M7.7,26.8l-2.3-1.2c0.1-1.5,1.1-3,2.6-3.2l2.3,1.2C8.8,23.8,7.9,25.3,7.7,26.8"/>
				</g>
			</g>
		</g>
		<g class="st1">
			<g class="st1">
				<defs>
					<path id="SVGID_81_" class="st1" d="M28.3,31.9l2.3,1.2c0.3,0.1,0.3,0.4,0.3,0.8c0,0.4,0,3.3,0,3.5l-2.3-1.2c0-0.2,0-3.1,0-3.5
						C28.6,32.3,28.5,32,28.3,31.9z"/>
				</defs>
				<clipPath id="SVGID_82_">
					<use xlink:href="#SVGID_81_"  style="overflow:visible;"/>
				</clipPath>
				<g class="st55">
					<path class="st14" d="M30.9,37.3l-2.3-1.2c0-0.2,0-3.1,0-3.5c0,0,0,0,0-0.1l2.3,1.2c0,0,0,0,0,0.1
						C30.9,34.3,30.9,37.2,30.9,37.3"/>
					<path class="st14" d="M30.9,33.8l-2.3-1.2c0,0,0-0.1,0-0.1l2.3,1.2C30.9,33.7,30.9,33.7,30.9,33.8"/>
					<path class="st13" d="M30.9,33.7l-2.3-1.2c0,0,0-0.1,0-0.1L30.9,33.7C30.9,33.6,30.9,33.6,30.9,33.7"/>
					<path class="st13" d="M30.9,33.6l-2.3-1.2c0,0,0,0,0-0.1L30.9,33.6C30.9,33.5,30.9,33.5,30.9,33.6"/>
					<path class="st2" d="M30.8,33.5l-2.3-1.2c0,0,0,0,0-0.1L30.8,33.5C30.8,33.5,30.8,33.5,30.8,33.5"/>
					<path class="st2" d="M30.8,33.4l-2.3-1.2c0,0,0,0,0,0L30.8,33.4C30.8,33.4,30.8,33.4,30.8,33.4"/>
					<path class="st12" d="M30.8,33.4l-2.3-1.2c0,0,0,0,0,0L30.8,33.4C30.8,33.4,30.8,33.4,30.8,33.4"/>
					<path class="st12" d="M30.8,33.4l-2.3-1.2c0,0,0,0,0,0L30.8,33.4C30.8,33.3,30.8,33.4,30.8,33.4"/>
					<path class="st11" d="M30.8,33.3l-2.3-1.2c0,0,0,0,0,0L30.8,33.3C30.8,33.3,30.8,33.3,30.8,33.3"/>
					<path class="st11" d="M30.8,33.3l-2.3-1.2c0,0,0,0,0,0L30.8,33.3C30.8,33.3,30.8,33.3,30.8,33.3"/>
					<path class="st6" d="M30.8,33.3L28.5,32c0,0,0,0,0,0L30.8,33.3C30.7,33.3,30.8,33.3,30.8,33.3"/>
					<path class="st6" d="M30.7,33.2L28.5,32c0,0,0,0,0,0L30.7,33.2C30.7,33.2,30.7,33.2,30.7,33.2"/>
					<path class="st10" d="M30.7,33.2L28.4,32c0,0,0,0,0,0L30.7,33.2C30.7,33.2,30.7,33.2,30.7,33.2"/>
					<path class="st9" d="M30.7,33.2L28.4,32c0,0,0,0,0,0L30.7,33.2C30.7,33.2,30.7,33.2,30.7,33.2"/>
					<path class="st9" d="M30.7,33.2l-2.3-1.2c0,0,0,0,0,0L30.7,33.2C30.7,33.2,30.7,33.2,30.7,33.2"/>
					<path class="st8" d="M30.7,33.2l-2.3-1.2c0,0,0,0,0,0L30.7,33.2C30.6,33.1,30.7,33.1,30.7,33.2"/>
					<path class="st8" d="M30.6,33.1l-2.3-1.2c0,0,0,0,0,0L30.6,33.1C30.6,33.1,30.6,33.1,30.6,33.1"/>
					<path class="st5" d="M30.6,33.1l-2.3-1.2c0,0,0,0,0,0L30.6,33.1C30.6,33.1,30.6,33.1,30.6,33.1"/>
				</g>
			</g>
			<g class="st1">
				<defs>
					<path id="SVGID_83_" class="st1" d="M29.5,30.3l2.3,1.2c-0.3-0.2-0.7-0.2-1.1-0.2l-2.3-1.2C28.8,30,29.1,30.1,29.5,30.3z"/>
				</defs>
				<clipPath id="SVGID_84_">
					<use xlink:href="#SVGID_83_"  style="overflow:visible;"/>
				</clipPath>
				<g class="st56">
					<path class="st15" d="M30.6,31.3l-2.3-1.2c0.4-0.1,0.8,0,1.1,0.2l2.3,1.2C31.4,31.3,31,31.3,30.6,31.3"/>
				</g>
			</g>
			<g class="st1">
				<defs>
					<path id="SVGID_85_" class="st1" d="M29,32.4l-2.3-1.2c0,0,0.5-1,1.6-1.1l2.3,1.2C29.6,31.5,29.1,32.4,29,32.4z"/>
				</defs>
				<clipPath id="SVGID_86_">
					<use xlink:href="#SVGID_85_"  style="overflow:visible;"/>
				</clipPath>
				<g class="st57">
					<path class="st15" d="M29,32.4l-2.3-1.2c0,0,0.5-1,1.6-1.1l2.3,1.2C29.6,31.5,29.1,32.4,29,32.4"/>
				</g>
			</g>
			<g>
				<path class="st4" d="M30.6,31.3c1.1-0.2,2,0.6,2,1.7c0,1.4,0,2.7,0,4l-1.7,0.2c0-0.2,0-3.1,0-3.5c0-0.5-0.1-0.9-0.9-0.8
					c-0.5,0.1-1,0.6-1,1.2c0,1.1,0,3.3,0,3.4l-1.7,0.2l0-5.9l1.7-0.2l0,0.8C29.1,32.4,29.6,31.5,30.6,31.3z"/>
			</g>
			<g>
				<polygon class="st6" points="27.4,37.8 25.1,36.6 25.1,30.7 27.4,31.9 				"/>
			</g>
			<g>
				<polygon class="st3" points="27.4,31.9 25.1,30.7 26.8,30.4 29,31.7 				"/>
			</g>
		</g>
		<g class="st1">
			<g class="st1">
				<defs>
					<path id="SVGID_87_" class="st1" d="M25.1,35.9l-2.3-1.2c0,0,1,0.5,1.3,0.6l2.3,1.2C26.1,36.4,25.1,35.9,25.1,35.9z"/>
				</defs>
				<clipPath id="SVGID_88_">
					<use xlink:href="#SVGID_87_"  style="overflow:visible;"/>
				</clipPath>
				<g class="st58">
					<path class="st15" d="M25.1,35.9l-2.3-1.2c0,0,1,0.5,1.3,0.6l2.3,1.2C26.1,36.4,25.1,35.9,25.1,35.9"/>
				</g>
			</g>
			<g class="st1">
				<defs>
					<path id="SVGID_89_" class="st1" d="M23.1,36.8l-2.3-1.2c0.2,0.1,0.5,0.2,0.8,0.1c0.5-0.1,0.9-0.5,1.2-1l2.3,1.2
						c-0.3,0.4-0.6,0.9-1.2,1C23.6,36.9,23.3,36.9,23.1,36.8z"/>
				</defs>
				<clipPath id="SVGID_90_">
					<use xlink:href="#SVGID_89_"  style="overflow:visible;"/>
				</clipPath>
				<g class="st59">
					<path class="st15" d="M23.1,36.8l-2.3-1.2c0.2,0.1,0.5,0.2,0.8,0.1c0.5-0.1,0.9-0.5,1.2-1l2.3,1.2c-0.3,0.4-0.6,0.9-1.2,1
						C23.6,36.9,23.3,36.9,23.1,36.8"/>
				</g>
			</g>
			<g class="st1">
				<defs>
					<path id="SVGID_91_" class="st1" d="M22,32.6l2.3,1.2c0.2,0.1,0.3,0.3,0.4,0.6l-2.3-1.2C22.4,32.9,22.2,32.7,22,32.6z"/>
				</defs>
				<clipPath id="SVGID_92_">
					<use xlink:href="#SVGID_91_"  style="overflow:visible;"/>
				</clipPath>
				<g class="st60">
					<path class="st12" d="M24.7,34.5l-2.3-1.2c0,0,0-0.1,0-0.1L24.7,34.5C24.7,34.4,24.7,34.5,24.7,34.5"/>
					<path class="st12" d="M24.7,34.4l-2.3-1.2c0,0,0-0.1,0-0.1L24.7,34.4C24.7,34.3,24.7,34.4,24.7,34.4"/>
					<path class="st11" d="M24.7,34.3l-2.3-1.2c0,0,0-0.1,0-0.1L24.7,34.3C24.6,34.3,24.7,34.3,24.7,34.3"/>
					<path class="st11" d="M24.6,34.2L22.4,33c0,0,0,0,0-0.1L24.6,34.2C24.6,34.2,24.6,34.2,24.6,34.2"/>
					<path class="st6" d="M24.6,34.2l-2.3-1.2c0,0,0,0,0-0.1L24.6,34.2C24.6,34.1,24.6,34.2,24.6,34.2"/>
					<path class="st6" d="M24.6,34.1l-2.3-1.2c0,0,0,0,0,0L24.6,34.1C24.5,34.1,24.6,34.1,24.6,34.1"/>
					<path class="st10" d="M24.5,34.1l-2.3-1.2c0,0,0,0,0,0L24.5,34.1C24.5,34,24.5,34.1,24.5,34.1"/>
					<path class="st9" d="M24.5,34l-2.3-1.2c0,0,0,0,0,0L24.5,34C24.5,34,24.5,34,24.5,34"/>
					<path class="st9" d="M24.5,34l-2.3-1.2c0,0,0,0,0,0L24.5,34C24.4,34,24.4,34,24.5,34"/>
					<path class="st8" d="M24.4,34l-2.3-1.2c0,0,0,0,0,0L24.4,34C24.4,33.9,24.4,33.9,24.4,34"/>
					<path class="st8" d="M24.4,33.9l-2.3-1.2c0,0,0,0,0,0L24.4,33.9C24.3,33.9,24.4,33.9,24.4,33.9"/>
					<path class="st5" d="M24.3,33.9L22,32.7c0,0,0,0,0,0L24.3,33.9C24.3,33.9,24.3,33.9,24.3,33.9"/>
				</g>
			</g>
			<g class="st1">
				<defs>
					<path id="SVGID_93_" class="st1" d="M22.7,34.8l-2.3-1.2c0.1,0,1.9-0.3,2.1-0.3l2.3,1.2C24.6,34.5,22.8,34.8,22.7,34.8z"/>
				</defs>
				<clipPath id="SVGID_94_">
					<use xlink:href="#SVGID_93_"  style="overflow:visible;"/>
				</clipPath>
				<g class="st61">
					<path class="st15" d="M22.7,34.8l-2.3-1.2c0.1,0,1.9-0.3,2.1-0.3l2.3,1.2C24.6,34.5,22.8,34.8,22.7,34.8"/>
				</g>
			</g>
			<g>
				<path class="st4" d="M26.5,35.1c0,0.1,0,0.2,0,0.4c-0.2,0-3.7,0.5-3.8,0.5c0.1,0.7,0.7,0.9,1.3,0.9c0.5-0.1,0.9-0.5,1.2-1
					c0,0,1,0.5,1.3,0.6c-0.5,1-1.4,1.7-2.6,1.9c-1.7,0.2-2.8-0.7-2.8-2.7c0-1.8,1.2-3.2,2.8-3.5C25.3,32.1,26.5,33,26.5,35.1z
					 M22.7,34.8c0.1,0,1.9-0.3,2.1-0.3c-0.2-0.5-0.5-0.8-1-0.7C23.2,33.9,22.9,34.2,22.7,34.8"/>
			</g>
			<g class="st1">
				<defs>
					<path id="SVGID_95_" class="st1" d="M22.1,38.2L19.9,37c-0.7-0.4-1.2-1.2-1.2-2.4c0-1.8,1.2-3.2,2.8-3.5c0.6-0.1,1.1,0,1.5,0.2
						l2.3,1.2c-0.4-0.2-0.9-0.3-1.5-0.2C22.2,32.5,21,34,21,35.8C21,37,21.4,37.8,22.1,38.2z"/>
				</defs>
				<clipPath id="SVGID_96_">
					<use xlink:href="#SVGID_95_"  style="overflow:visible;"/>
				</clipPath>
				<g class="st62">
					<path class="st5" d="M22.1,38.2L19.9,37c0,0-0.1,0-0.1-0.1l2.3,1.2C22.1,38.2,22.1,38.2,22.1,38.2"/>
					<path class="st8" d="M22,38.2l-2.3-1.2c-0.1,0-0.1-0.1-0.1-0.1l2.3,1.2C21.9,38.1,22,38.1,22,38.2"/>
					<path class="st8" d="M21.9,38.1l-2.3-1.2c0,0-0.1-0.1-0.1-0.1l2.3,1.2C21.8,38,21.9,38,21.9,38.1"/>
					<path class="st9" d="M21.8,38l-2.3-1.2c0,0-0.1-0.1-0.1-0.1L21.8,38C21.7,37.9,21.7,37.9,21.8,38"/>
					<path class="st9" d="M21.7,37.9l-2.3-1.2c0,0-0.1-0.1-0.1-0.1L21.7,37.9C21.6,37.8,21.7,37.8,21.7,37.9"/>
					<path class="st10" d="M21.6,37.8l-2.3-1.2c0,0-0.1-0.1-0.1-0.1L21.6,37.8C21.5,37.7,21.6,37.7,21.6,37.8"/>
					<path class="st6" d="M21.5,37.7l-2.3-1.2c0,0,0-0.1-0.1-0.1L21.5,37.7C21.5,37.6,21.5,37.6,21.5,37.7"/>
					<path class="st6" d="M21.4,37.6l-2.3-1.2c0,0,0-0.1-0.1-0.1l2.3,1.2C21.4,37.5,21.4,37.5,21.4,37.6"/>
					<path class="st11" d="M21.4,37.5l-2.3-1.2c0,0,0-0.1-0.1-0.1l2.3,1.2C21.3,37.4,21.4,37.4,21.4,37.5"/>
					<path class="st11" d="M21.3,37.4L19,36.1c0,0,0-0.1-0.1-0.1l2.3,1.2C21.3,37.3,21.3,37.3,21.3,37.4"/>
					<path class="st12" d="M21.3,37.2L19,36c0,0,0-0.1-0.1-0.1l2.3,1.2C21.2,37.2,21.2,37.2,21.3,37.2"/>
					<path class="st12" d="M21.2,37.1l-2.3-1.2c0,0,0-0.1-0.1-0.1l2.3,1.2C21.2,37,21.2,37.1,21.2,37.1"/>
					<path class="st2" d="M21.2,37l-2.3-1.2c0,0,0-0.1,0-0.2l2.3,1.2C21.1,36.9,21.1,36.9,21.2,37"/>
					<path class="st2" d="M21.1,36.8l-2.3-1.2c0-0.1,0-0.1,0-0.2l2.3,1.2C21.1,36.7,21.1,36.8,21.1,36.8"/>
					<path class="st13" d="M21.1,36.6l-2.3-1.2c0-0.1,0-0.1,0-0.2l2.3,1.2C21,36.5,21,36.6,21.1,36.6"/>
					<path class="st13" d="M21,36.4l-2.3-1.2c0-0.1,0-0.2,0-0.2l2.3,1.2C21,36.3,21,36.4,21,36.4"/>
					<path class="st14" d="M21,36.2L18.7,35c0-0.1,0-0.2,0-0.3l2.3,1.2C21,36,21,36.1,21,36.2"/>
					<path class="st14" d="M21,35.9l-2.3-1.2c0,0,0-0.1,0-0.1c0-0.1,0-0.2,0-0.3l2.3,1.2c0,0.1,0,0.2,0,0.3C21,35.8,21,35.8,21,35.9
						"/>
					<path class="st15" d="M21,35.5l-2.3-1.2c0.1-1.7,1.3-3,2.8-3.2c0.6-0.1,1.1,0,1.5,0.2l2.3,1.2c-0.4-0.2-0.9-0.3-1.5-0.2
						C22.2,32.5,21.1,33.8,21,35.5"/>
				</g>
			</g>
		</g>
		<g class="st1">
			<g class="st1">
				<defs>
					<path id="SVGID_97_" class="st1" d="M16.7,39.7l-2.3-1.2c0.2,0.1,0.3,0.1,0.6,0.1c0.6-0.1,1.1-0.4,1.1-1.1c0-0.2,0-0.3,0-0.4
						l2.3,1.2c0,0.2,0,0.3,0,0.4c0,0.6-0.5,1-1.1,1.1C17.1,39.8,16.9,39.7,16.7,39.7z"/>
				</defs>
				<clipPath id="SVGID_98_">
					<use xlink:href="#SVGID_97_"  style="overflow:visible;"/>
				</clipPath>
				<g class="st63">
					<path class="st15" d="M16.7,39.7l-2.3-1.2c0.2,0.1,0.3,0.1,0.6,0.1c0.6-0.1,1.1-0.4,1.1-1l2.3,1.2c0,0.6-0.6,0.9-1.1,1
						C17.1,39.8,16.9,39.7,16.7,39.7"/>
					<path class="st14" d="M18.4,38.7l-2.3-1.2c0,0,0-0.1,0-0.1c0-0.1,0-0.2,0-0.2l2.3,1.2C18.4,38.5,18.4,38.5,18.4,38.7
						C18.4,38.7,18.4,38.7,18.4,38.7"/>
					<path class="st14" d="M18.4,38.4l-2.3-1.2c0,0,0-0.1,0-0.1l2.3,1.2C18.4,38.3,18.4,38.3,18.4,38.4"/>
					<path class="st13" d="M18.4,38.3L16.1,37c0,0,0-0.1,0-0.1L18.4,38.3C18.4,38.2,18.4,38.2,18.4,38.3"/>
				</g>
			</g>
			<g class="st1">
				<defs>
					<path id="SVGID_99_" class="st1" d="M16.6,37.4l-2.3-1.2c0.2,0.1,0.4,0.1,0.6,0.1l2.3,1.2C17,37.6,16.8,37.5,16.6,37.4z"/>
				</defs>
				<clipPath id="SVGID_100_">
					<use xlink:href="#SVGID_99_"  style="overflow:visible;"/>
				</clipPath>
				<g class="st64">
					<path class="st15" d="M16.6,37.4l-2.3-1.2c0.2,0.1,0.4,0.1,0.6,0.1l2.3,1.2C17,37.6,16.8,37.5,16.6,37.4"/>
				</g>
			</g>
			<g class="st1">
				<defs>
					<path id="SVGID_101_" class="st1" d="M15.7,33.6l2.3,1.2c0.4,0.2,0.5,0.6,0.5,1.1c0,0.7-0.5,1.4-1.3,1.6L15,36.3
						c0.8-0.1,1.3-0.9,1.3-1.6C16.2,34.2,16.1,33.8,15.7,33.6z"/>
				</defs>
				<clipPath id="SVGID_102_">
					<use xlink:href="#SVGID_101_"  style="overflow:visible;"/>
				</clipPath>
				<g class="st65">
					<path class="st15" d="M17.2,37.5L15,36.3c0.8-0.1,1.2-0.8,1.3-1.5l2.3,1.2C18.5,36.7,18,37.4,17.2,37.5"/>
					<path class="st14" d="M18.5,36.1l-2.3-1.2c0,0,0-0.1,0-0.1c0,0,0,0,0,0l2.3,1.2C18.5,36,18.5,36,18.5,36.1
						C18.5,36,18.5,36.1,18.5,36.1"/>
					<path class="st14" d="M18.5,35.9l-2.3-1.2c0,0,0-0.1,0-0.1l2.3,1.2C18.5,35.8,18.5,35.9,18.5,35.9"/>
					<path class="st13" d="M18.5,35.8l-2.3-1.2c0,0,0-0.1,0-0.1l2.3,1.2C18.5,35.7,18.5,35.8,18.5,35.8"/>
					<path class="st13" d="M18.5,35.7l-2.3-1.2c0,0,0-0.1,0-0.1L18.5,35.7C18.5,35.6,18.5,35.6,18.5,35.7"/>
					<path class="st2" d="M18.5,35.6l-2.3-1.2c0,0,0-0.1,0-0.1L18.5,35.6C18.5,35.5,18.5,35.6,18.5,35.6"/>
					<path class="st2" d="M18.4,35.5l-2.3-1.2c0,0,0,0,0-0.1L18.4,35.5C18.4,35.4,18.4,35.5,18.4,35.5"/>
					<path class="st12" d="M18.4,35.4l-2.3-1.2c0,0,0,0,0-0.1L18.4,35.4C18.4,35.4,18.4,35.4,18.4,35.4"/>
					<path class="st12" d="M18.4,35.4l-2.3-1.2c0,0,0,0,0-0.1L18.4,35.4C18.4,35.3,18.4,35.3,18.4,35.4"/>
					<path class="st11" d="M18.4,35.3l-2.3-1.2c0,0,0,0,0-0.1L18.4,35.3C18.4,35.3,18.4,35.3,18.4,35.3"/>
					<path class="st11" d="M18.3,35.2L16.1,34c0,0,0,0,0-0.1L18.3,35.2C18.3,35.2,18.3,35.2,18.3,35.2"/>
					<path class="st6" d="M18.3,35.2L16,34c0,0,0,0,0,0L18.3,35.2C18.3,35.2,18.3,35.2,18.3,35.2"/>
					<path class="st6" d="M18.3,35.1L16,33.9c0,0,0,0,0,0L18.3,35.1C18.3,35.1,18.3,35.1,18.3,35.1"/>
					<path class="st10" d="M18.3,35.1L16,33.9c0,0,0,0,0,0L18.3,35.1C18.2,35.1,18.2,35.1,18.3,35.1"/>
					<path class="st9" d="M18.2,35.1l-2.3-1.2c0,0,0,0,0,0L18.2,35.1C18.2,35,18.2,35,18.2,35.1"/>
					<path class="st9" d="M18.2,35l-2.3-1.2c0,0,0,0,0,0L18.2,35C18.1,35,18.2,35,18.2,35"/>
					<path class="st8" d="M18.1,35l-2.3-1.2c0,0,0,0-0.1,0L18.1,35C18.1,34.9,18.1,34.9,18.1,35"/>
					<path class="st8" d="M18.1,34.9l-2.3-1.2c0,0,0,0-0.1,0L18.1,34.9C18,34.9,18.1,34.9,18.1,34.9"/>
					<path class="st5" d="M18,34.9l-2.3-1.2c0,0,0,0,0,0L18,34.9C18,34.9,18,34.9,18,34.9"/>
				</g>
			</g>
			<g>
				<polygon class="st3" points="18.5,33.2 16.2,31.9 17.8,31.7 20.1,32.9 				"/>
			</g>
			<g>
				<polygon class="st6" points="18.5,33.8 16.2,32.6 16.2,31.9 18.5,33.2 				"/>
			</g>
			<g class="st1">
				<defs>
					<path id="SVGID_103_" class="st1" d="M15.5,41l-2.3-1.2c-0.5-0.3-0.9-0.8-1-1.4l2.3,1.2C14.7,40.3,15,40.8,15.5,41z"/>
				</defs>
				<clipPath id="SVGID_104_">
					<use xlink:href="#SVGID_103_"  style="overflow:visible;"/>
				</clipPath>
				<g class="st66">
					<path class="st5" d="M15.5,41l-2.3-1.2c0,0-0.1,0-0.1-0.1l2.3,1.2C15.5,41,15.5,41,15.5,41"/>
					<path class="st8" d="M15.4,41l-2.3-1.2c0,0-0.1-0.1-0.1-0.1l2.3,1.2C15.3,40.9,15.4,41,15.4,41"/>
					<path class="st8" d="M15.3,40.9L13,39.6c0,0-0.1-0.1-0.1-0.1l2.3,1.2C15.2,40.8,15.3,40.9,15.3,40.9"/>
					<path class="st9" d="M15.2,40.8l-2.3-1.2c0,0-0.1-0.1-0.1-0.1L15.2,40.8C15.1,40.7,15.2,40.8,15.2,40.8"/>
					<path class="st9" d="M15.1,40.7l-2.3-1.2c0,0-0.1-0.1-0.1-0.1L15.1,40.7C15,40.7,15.1,40.7,15.1,40.7"/>
					<path class="st10" d="M15,40.6l-2.3-1.2c0,0,0-0.1-0.1-0.1L15,40.6C15,40.6,15,40.6,15,40.6"/>
					<path class="st6" d="M14.9,40.5l-2.3-1.2c0,0,0-0.1-0.1-0.1L14.9,40.5C14.9,40.5,14.9,40.5,14.9,40.5"/>
					<path class="st6" d="M14.9,40.5l-2.3-1.2c0,0,0-0.1-0.1-0.1L14.9,40.5C14.9,40.4,14.9,40.4,14.9,40.5"/>
					<path class="st11" d="M14.8,40.4l-2.3-1.2c0,0,0-0.1,0-0.1L14.8,40.4C14.8,40.3,14.8,40.4,14.8,40.4"/>
					<path class="st11" d="M14.8,40.3l-2.3-1.2c0,0,0-0.1,0-0.1L14.8,40.3C14.8,40.2,14.8,40.3,14.8,40.3"/>
					<path class="st12" d="M14.7,40.2L12.5,39c0,0,0-0.1,0-0.1L14.7,40.2C14.7,40.2,14.7,40.2,14.7,40.2"/>
					<path class="st12" d="M14.7,40.1l-2.3-1.2c0,0,0-0.1,0-0.1L14.7,40.1C14.7,40.1,14.7,40.1,14.7,40.1"/>
					<path class="st2" d="M14.7,40l-2.3-1.2c0,0,0-0.1,0-0.1l2.3,1.2C14.6,40,14.7,40,14.7,40"/>
					<path class="st2" d="M14.6,39.9l-2.3-1.2c0,0,0-0.1,0-0.1l2.3,1.2C14.6,39.8,14.6,39.9,14.6,39.9"/>
					<path class="st13" d="M14.6,39.8l-2.3-1.2c0,0,0-0.1,0-0.1l2.3,1.2C14.6,39.7,14.6,39.8,14.6,39.8"/>
					<path class="st13" d="M14.6,39.7l-2.3-1.2c0,0,0,0,0-0.1L14.6,39.7C14.6,39.6,14.6,39.7,14.6,39.7"/>
				</g>
			</g>
			<g class="st1">
				<defs>
					<path id="SVGID_105_" class="st1" d="M14.6,39.6l-2.3-1.2c0.1,0,1.4-0.2,1.9-0.3l2.3,1.2C16,39.4,14.6,39.6,14.6,39.6z"/>
				</defs>
				<clipPath id="SVGID_106_">
					<use xlink:href="#SVGID_105_"  style="overflow:visible;"/>
				</clipPath>
				<g class="st67">
					<path class="st15" d="M14.6,39.6l-2.3-1.2c0.1,0,1.4-0.2,1.9-0.3l2.3,1.2C16,39.4,14.6,39.6,14.6,39.6"/>
				</g>
			</g>
			<g class="st1">
				<defs>
					<path id="SVGID_107_" class="st1" d="M15.6,38.9l-2.3-1.2c-0.7-0.4-1.2-1.3-1.1-2.3c0-1.6,1-3.1,2.4-3.3c0.5-0.1,0.8,0,1.1,0.2
						l2.3,1.2c-0.3-0.2-0.7-0.2-1.1-0.2c-1.4,0.2-2.4,1.7-2.4,3.3C14.5,37.6,14.9,38.5,15.6,38.9z"/>
				</defs>
				<clipPath id="SVGID_108_">
					<use xlink:href="#SVGID_107_"  style="overflow:visible;"/>
				</clipPath>
				<g class="st68">
					<path class="st5" d="M15.6,38.9l-2.3-1.2c0,0-0.1,0-0.1-0.1L15.6,38.9C15.6,38.9,15.6,38.9,15.6,38.9"/>
					<path class="st8" d="M15.5,38.8l-2.3-1.2c0,0-0.1-0.1-0.1-0.1l2.3,1.2C15.4,38.8,15.5,38.8,15.5,38.8"/>
					<path class="st8" d="M15.4,38.7l-2.3-1.2c0,0-0.1-0.1-0.1-0.1l2.3,1.2C15.3,38.7,15.4,38.7,15.4,38.7"/>
					<path class="st9" d="M15.3,38.6L13,37.4c0,0-0.1-0.1-0.1-0.1L15.3,38.6C15.2,38.6,15.2,38.6,15.3,38.6"/>
					<path class="st9" d="M15.2,38.6l-2.3-1.2c0,0-0.1-0.1-0.1-0.1L15.2,38.6C15.1,38.5,15.2,38.5,15.2,38.6"/>
					<path class="st10" d="M15.1,38.5l-2.3-1.2c0,0-0.1-0.1-0.1-0.1L15.1,38.5C15,38.4,15.1,38.4,15.1,38.5"/>
					<path class="st6" d="M15,38.4l-2.3-1.2c0,0-0.1-0.1-0.1-0.1l2.3,1.2C15,38.3,15,38.3,15,38.4"/>
					<path class="st6" d="M14.9,38.3L12.7,37c0,0,0-0.1-0.1-0.1l2.3,1.2C14.9,38.2,14.9,38.2,14.9,38.3"/>
					<path class="st11" d="M14.9,38.2l-2.3-1.2c0,0,0-0.1-0.1-0.1l2.3,1.2C14.8,38.1,14.8,38.1,14.9,38.2"/>
					<path class="st11" d="M14.8,38l-2.3-1.2c0,0,0-0.1-0.1-0.1l2.3,1.2C14.8,38,14.8,38,14.8,38"/>
					<path class="st12" d="M14.7,37.9l-2.3-1.2c0,0,0-0.1-0.1-0.1l2.3,1.2C14.7,37.8,14.7,37.9,14.7,37.9"/>
					<path class="st12" d="M14.7,37.8l-2.3-1.2c0,0,0-0.1-0.1-0.1l2.3,1.2C14.7,37.7,14.7,37.7,14.7,37.8"/>
					<path class="st2" d="M14.6,37.6l-2.3-1.2c0-0.1,0-0.1,0-0.2l2.3,1.2C14.6,37.5,14.6,37.6,14.6,37.6"/>
					<path class="st2" d="M14.6,37.5l-2.3-1.2c0-0.1,0-0.1,0-0.2l2.3,1.2C14.6,37.4,14.6,37.4,14.6,37.5"/>
					<path class="st13" d="M14.5,37.3l-2.3-1.2c0-0.1,0-0.1,0-0.2l2.3,1.2C14.5,37.2,14.5,37.3,14.5,37.3"/>
					<path class="st13" d="M14.5,37.1l-2.3-1.2c0-0.1,0-0.1,0-0.2l2.3,1.2C14.5,37,14.5,37.1,14.5,37.1"/>
					<path class="st14" d="M14.5,36.9l-2.3-1.2c0-0.1,0-0.2,0-0.3l2.3,1.2C14.5,36.7,14.5,36.8,14.5,36.9"/>
					<path class="st14" d="M14.5,36.6l-2.3-1.2c0,0,0-0.1,0-0.1c0-0.1,0-0.2,0-0.3l2.3,1.2C14.5,36.4,14.5,36.5,14.5,36.6
						C14.5,36.6,14.5,36.6,14.5,36.6"/>
					<path class="st15" d="M14.5,36.3L12.2,35c0.1-1.5,1-2.8,2.4-3c0.5-0.1,0.8,0,1.1,0.2l2.3,1.2c-0.3-0.2-0.7-0.2-1.1-0.2
						C15.5,33.5,14.6,34.8,14.5,36.3"/>
				</g>
			</g>
			<g>
				<path class="st4" d="M18.5,33.2l1.6-0.2c0,0.2,0,4.9,0,5.2c0,1.8-1.3,3-2.8,3.2c-1.3,0.2-2.5-0.4-2.7-1.7c0.1,0,1.4-0.2,1.9-0.3
					c0.2,0.4,0.5,0.4,0.9,0.4c0.6-0.1,1.1-0.4,1.1-1.1c0-0.2,0-0.3,0-0.4c-0.3,0.4-0.9,0.8-1.6,0.9c-1.4,0.2-2.4-0.9-2.4-2.5
					c0-1.6,1-3.1,2.4-3.3c0.7-0.1,1.2,0.1,1.6,0.5L18.5,33.2z M17.2,37.5c0.8-0.1,1.3-0.9,1.3-1.6c0-0.8-0.4-1.4-1.3-1.2
					c-0.8,0.1-1.2,0.8-1.2,1.6C16.1,37.1,16.5,37.6,17.2,37.5"/>
			</g>
		</g>
		<g class="st1">
			<g>
				<polygon class="st6" points="11.9,40 9.6,38.7 9.6,38.2 11.9,39.4 				"/>
			</g>
			<g class="st1">
				<defs>
					<path id="SVGID_109_" class="st1" d="M10,38.6l-2.3-1.2c0.2,0.1,0.4,0.1,0.7,0.1l2.3,1.2C10.4,38.7,10.2,38.7,10,38.6z"/>
				</defs>
				<clipPath id="SVGID_110_">
					<use xlink:href="#SVGID_109_"  style="overflow:visible;"/>
				</clipPath>
				<g class="st69">
					<path class="st15" d="M10,38.6l-2.3-1.2c0.2,0.1,0.4,0.1,0.7,0.1l2.3,1.2C10.4,38.7,10.2,38.7,10,38.6"/>
				</g>
			</g>
			<g class="st1">
				<defs>
					<path id="SVGID_111_" class="st1" d="M9.1,34.7l2.3,1.2c0.4,0.2,0.6,0.6,0.6,1.2c0,0.9-0.6,1.5-1.3,1.6l-2.3-1.2
						c0.7-0.1,1.3-0.8,1.3-1.6C9.7,35.3,9.5,34.9,9.1,34.7z"/>
				</defs>
				<clipPath id="SVGID_112_">
					<use xlink:href="#SVGID_111_"  style="overflow:visible;"/>
				</clipPath>
				<g class="st70">
					<path class="st15" d="M10.6,38.7l-2.3-1.2c0.7-0.1,1.3-0.7,1.3-1.5l2.3,1.2C11.9,38,11.3,38.6,10.6,38.7"/>
					<path class="st14" d="M12,37.2l-2.3-1.2c0,0,0-0.1,0-0.1c0,0,0,0,0,0L12,37c0,0,0,0,0,0C12,37.1,12,37.1,12,37.2"/>
					<path class="st14" d="M12,37l-2.3-1.2c0,0,0-0.1,0-0.1l2.3,1.2C12,36.9,12,37,12,37"/>
					<path class="st13" d="M12,36.9l-2.3-1.2c0,0,0-0.1,0-0.1l2.3,1.2C12,36.8,12,36.9,12,36.9"/>
					<path class="st13" d="M12,36.8l-2.3-1.2c0,0,0-0.1,0-0.1L12,36.8C12,36.7,12,36.8,12,36.8"/>
					<path class="st2" d="M12,36.7l-2.3-1.2c0,0,0-0.1,0-0.1L12,36.7C11.9,36.6,12,36.7,12,36.7"/>
					<path class="st2" d="M11.9,36.6l-2.3-1.2c0,0,0,0,0-0.1L11.9,36.6C11.9,36.6,11.9,36.6,11.9,36.6"/>
					<path class="st12" d="M11.9,36.5l-2.3-1.2c0,0,0,0,0-0.1L11.9,36.5C11.9,36.5,11.9,36.5,11.9,36.5"/>
					<path class="st12" d="M11.9,36.5l-2.3-1.2c0,0,0,0,0-0.1L11.9,36.5C11.9,36.4,11.9,36.4,11.9,36.5"/>
					<path class="st11" d="M11.9,36.4l-2.3-1.2c0,0,0,0,0-0.1L11.9,36.4C11.8,36.4,11.9,36.4,11.9,36.4"/>
					<path class="st11" d="M11.8,36.3l-2.3-1.2c0,0,0,0,0-0.1L11.8,36.3C11.8,36.3,11.8,36.3,11.8,36.3"/>
					<path class="st6" d="M11.8,36.3l-2.3-1.2c0,0,0,0,0-0.1L11.8,36.3C11.8,36.3,11.8,36.3,11.8,36.3"/>
					<path class="st6" d="M11.8,36.2L9.5,35c0,0,0,0,0-0.1L11.8,36.2C11.7,36.2,11.8,36.2,11.8,36.2"/>
					<path class="st10" d="M11.7,36.2l-2.3-1.2c0,0,0,0,0-0.1L11.7,36.2C11.7,36.2,11.7,36.2,11.7,36.2"/>
					<path class="st9" d="M11.7,36.1l-2.3-1.2c0,0,0,0,0-0.1L11.7,36.1C11.7,36.1,11.7,36.1,11.7,36.1"/>
					<path class="st9" d="M11.6,36.1l-2.3-1.2c0,0,0,0-0.1,0L11.6,36.1C11.6,36.1,11.6,36.1,11.6,36.1"/>
					<path class="st8" d="M11.6,36l-2.3-1.2c0,0,0,0-0.1,0L11.6,36C11.5,36,11.6,36,11.6,36"/>
					<path class="st8" d="M11.5,36l-2.3-1.2c0,0,0,0-0.1-0.1L11.5,36C11.5,35.9,11.5,36,11.5,36"/>
					<path class="st5" d="M11.5,35.9l-2.3-1.2c0,0,0,0-0.1,0L11.5,35.9C11.4,35.9,11.4,35.9,11.5,35.9"/>
				</g>
			</g>
			<g>
				<polygon class="st3" points="12,34.1 9.7,32.8 11.3,32.6 13.6,33.8 				"/>
			</g>
			<g>
				<polygon class="st6" points="12,34.7 9.7,33.4 9.7,32.8 12,34.1 				"/>
			</g>
			<g class="st1">
				<defs>
					<path id="SVGID_113_" class="st1" d="M8.9,40.1l-2.3-1.2c-0.7-0.4-1.2-1.3-1.2-2.5c0-1.6,1.1-3.3,2.7-3.5
						c0.5-0.1,0.8,0,1.1,0.2l2.3,1.2c-0.3-0.2-0.7-0.2-1.1-0.2c-1.5,0.2-2.7,1.8-2.7,3.5C7.7,38.9,8.2,39.7,8.9,40.1z"/>
				</defs>
				<clipPath id="SVGID_114_">
					<use xlink:href="#SVGID_113_"  style="overflow:visible;"/>
				</clipPath>
				<g class="st71">
					<path class="st5" d="M8.9,40.1l-2.3-1.2c0,0-0.1,0-0.1-0.1L8.9,40.1C8.8,40.1,8.8,40.1,8.9,40.1"/>
					<path class="st8" d="M8.8,40.1l-2.3-1.2c0,0-0.1-0.1-0.1-0.1L8.6,40C8.7,40,8.7,40.1,8.8,40.1"/>
					<path class="st8" d="M8.6,40l-2.3-1.2c0,0-0.1-0.1-0.1-0.1l2.3,1.2C8.6,39.9,8.6,40,8.6,40"/>
					<path class="st9" d="M8.5,39.9l-2.3-1.2c0,0-0.1-0.1-0.1-0.1L8.5,39.9C8.5,39.8,8.5,39.9,8.5,39.9"/>
					<path class="st9" d="M8.4,39.8l-2.3-1.2c0,0-0.1-0.1-0.1-0.1L8.4,39.8C8.4,39.7,8.4,39.8,8.4,39.8"/>
					<path class="st10" d="M8.4,39.7l-2.3-1.2c0,0-0.1-0.1-0.1-0.1L8.4,39.7C8.3,39.6,8.3,39.7,8.4,39.7"/>
					<path class="st6" d="M8.3,39.6L6,38.4c0,0,0-0.1-0.1-0.1l2.3,1.2C8.2,39.5,8.2,39.6,8.3,39.6"/>
					<path class="st6" d="M8.2,39.5l-2.3-1.2c0,0,0-0.1-0.1-0.1l2.3,1.2C8.2,39.4,8.2,39.5,8.2,39.5"/>
					<path class="st11" d="M8.1,39.4l-2.3-1.2c0,0,0-0.1-0.1-0.1l2.3,1.2C8.1,39.3,8.1,39.4,8.1,39.4"/>
					<path class="st11" d="M8.1,39.3l-2.3-1.2c0,0,0-0.1-0.1-0.1L8,39.2C8,39.2,8,39.3,8.1,39.3"/>
					<path class="st12" d="M8,39.2l-2.3-1.2c0,0,0-0.1-0.1-0.1L8,39C8,39.1,8,39.1,8,39.2"/>
					<path class="st12" d="M8,39l-2.3-1.2c0,0,0-0.1-0.1-0.1l2.3,1.2C7.9,38.9,7.9,39,8,39"/>
					<path class="st2" d="M7.9,38.9l-2.3-1.2c0-0.1,0-0.1,0-0.2l2.3,1.2C7.9,38.8,7.9,38.8,7.9,38.9"/>
					<path class="st2" d="M7.9,38.7l-2.3-1.2c0-0.1,0-0.1,0-0.2l2.3,1.2C7.8,38.6,7.8,38.7,7.9,38.7"/>
					<path class="st13" d="M7.8,38.6l-2.3-1.2c0-0.1,0-0.1,0-0.2l2.3,1.2C7.8,38.4,7.8,38.5,7.8,38.6"/>
					<path class="st13" d="M7.8,38.3l-2.3-1.2c0-0.1,0-0.2,0-0.3l2.3,1.2C7.7,38.2,7.8,38.3,7.8,38.3"/>
					<path class="st14" d="M7.7,38.1l-2.3-1.2c0-0.1,0-0.2,0-0.3l2.3,1.2C7.7,37.9,7.7,38,7.7,38.1"/>
					<path class="st14" d="M7.7,37.8l-2.3-1.2c0,0,0-0.1,0-0.1c0-0.1,0-0.2,0-0.2l2.3,1.2c0,0.1,0,0.2,0,0.2
						C7.7,37.7,7.7,37.7,7.7,37.8"/>
					<path class="st15" d="M7.7,37.4l-2.3-1.2c0.1-1.6,1.2-3,2.6-3.2c0.5-0.1,0.8,0,1.1,0.2l2.3,1.2c-0.3-0.2-0.7-0.2-1.1-0.2
						C8.9,34.4,7.8,35.9,7.7,37.4"/>
				</g>
			</g>
			<g>
				<path class="st4" d="M12,34.1l1.6-0.2l0,5.9L11.9,40l0-0.6c0,0-0.6,0.8-1.6,0.9c-1.5,0.2-2.6-0.8-2.6-2.7c0-1.6,1.1-3.3,2.7-3.5
					c0.7-0.1,1.1,0.1,1.6,0.5L12,34.1z M10.6,38.7c0.7-0.1,1.3-0.8,1.3-1.6c0-0.9-0.6-1.4-1.3-1.3c-0.8,0.1-1.3,0.8-1.3,1.6
					C9.4,38.2,9.9,38.8,10.6,38.7"/>
			</g>
		</g>
	</g>
</g>
</svg>
