<?xml version="1.0" encoding="utf-8"?>
<!-- Generator: Adobe Illustrator 21.0.2, SVG Export Plug-In . SVG Version: 6.00 Build 0)  -->
<svg version="1.1" id="Layer_1" xmlns="http://www.w3.org/2000/svg" xmlns:xlink="http://www.w3.org/1999/xlink" x="0px" y="0px"
	 viewBox="0 0 1366 768" style="enable-background:new 0 0 1366 768;" xml:space="preserve">
<style type="text/css">
	.st0{fill:#D81C3B;}
	.st1{fill:#D81C3B;stroke:#D81C3B;stroke-width:12;stroke-linecap:round;stroke-linejoin:round;stroke-miterlimit:10;}
	.st2{fill:none;stroke:#D81C3B;stroke-width:5;stroke-miterlimit:10;}
	.st3{fill:none;stroke:#D81C3B;stroke-width:25;stroke-linecap:round;stroke-linejoin:round;stroke-miterlimit:10;}
</style>
<g>
	<path class="st0" d="M630,499h-72c-3.3,0-6-2.7-6-6V392c0-3.3,2.7-6,6-6h72c3.3,0,6,2.7,6,6v101C636,496.3,633.3,499,630,499z"/>
	<path class="st0" d="M712.7,494.5l50.9-99.8c2-4-0.9-8.7-5.3-8.7H656.5c-4.5,0-7.4,4.7-5.3,8.7l50.9,99.8
		C704.2,498.9,710.5,498.9,712.7,494.5z"/>
	<circle class="st0" cx="768.5" cy="484.5" r="14.5"/>
	<path class="st0" d="M758,379H657c-3.3,0-6-2.7-6-6V272c0-3.3,2.7-6,6-6h101c3.3,0,6,2.7,6,6v101C764,376.3,761.3,379,758,379z"/>
	<g>
		<g>
			<path class="st1" d="M594.3,372.8c-22.7,0-40.5-10.5-41.9-32.8h33c0.6,7.3,4.5,8.5,7.6,8.5c3.1,0,6-1.4,6-4.9
				c-0.1-13.4-46.9-8.5-46.3-42.4c0-19.9,16.8-30.2,37.9-30.2c23.9,0,39.3,11.5,40.2,32.1h-33.5c-0.3-6-3.5-7.8-6.9-7.8
				c-2.5,0-4.5,1.7-4.5,5c0,12.5,46.1,10.4,46.1,40.9C632.1,359.4,618.2,372.8,594.3,372.8z"/>
		</g>
	</g>
	<rect x="527.5" y="253.5" class="st2" width="279" height="260"/>
	<path class="st3" d="M795,269"/>
</g>
</svg>
